<?xml version="1.0" encoding="UTF-8"?>
<svg id="icons" xmlns="http://www.w3.org/2000/svg" viewBox="0 0 200 200">
  <defs>
    <style>
      .cls-1 {
        fill: #231f20;
      }
    </style>
  </defs>
  <path class="cls-1" d="m158.44,19.48H41.56c-12.17,0-22.08,9.91-22.08,22.08v116.88c0,12.17,9.91,22.08,22.08,22.08h116.88c12.18,0,22.08-9.91,22.08-22.08V41.56c0-12.17-9.9-22.08-22.08-22.08Zm12.08,138.96c0,6.66-5.42,12.08-12.08,12.08H41.56c-6.66,0-12.08-5.42-12.08-12.08V41.56c0-6.66,5.42-12.08,12.08-12.08h116.88c6.66,0,12.08,5.42,12.08,12.08v116.88Z"/>
  <path class="cls-1" d="m155.65,100c0,2.76-2.23,5-5,5h-45.65v45.65c0,2.76-2.24,5-5,5s-5-2.24-5-5v-45.65h-45.65c-2.76,0-5-2.24-5-5s2.24-5,5-5h45.65v-45.65c0-2.76,2.24-5,5-5s5,2.24,5,5v45.65h45.65c2.77,0,5,2.24,5,5Z"/>
</svg>