<?xml version="1.0" encoding="UTF-8"?>
<svg id="icons" xmlns="http://www.w3.org/2000/svg" viewBox="0 0 200 200">
  <defs>
    <style>
      .cls-1 {
        fill: #231f20;
      }
    </style>
  </defs>
  <path class="cls-1" d="m163.55,51.13h-24.52v-12.66c0-7.26-6.08-13.16-13.56-13.16h-50.9c-7.48,0-13.57,5.9-13.57,13.16v12.66h-24.52c-8.27,0-15,6.73-15,15v87.74c0,8.27,6.73,15,15,15h127.07c8.27,0,15-6.73,15-15v-87.74c0-8.27-6.73-15-15-15Zm-92.55-12.66c0-1.74,1.6-3.16,3.57-3.16h50.9c1.96,0,3.56,1.42,3.56,3.16v12.66h-58.03v-12.66Zm97.55,115.4c0,2.76-2.24,5-5,5H36.48c-2.75,0-5-2.24-5-5v-47.87h39.96v5.18c0,8.6,6.51,15.6,14.52,15.6h28.12c8,0,14.52-7,14.52-15.6v-5.18h39.95v47.87Zm-87.11-47.87h37.16v5.18c0,3.09-2.03,5.6-4.52,5.6h-28.12c-2.49,0-4.52-2.51-4.52-5.6v-5.18Zm87.11-10H31.48v-29.87c0-2.75,2.25-5,5-5h127.07c2.76,0,5,2.25,5,5v29.87Z"/>
</svg>