<?xml version="1.0" encoding="UTF-8"?>
<svg id="icons" xmlns="http://www.w3.org/2000/svg" viewBox="0 0 200 200">
  <defs>
    <style>
      .cls-1 {
        fill: #231f20;
      }
    </style>
  </defs>
  <path class="cls-1" d="m81.77,138.42c-1.28,0-2.56-.49-3.54-1.46l-30.38-30.38c-1.95-1.95-1.95-5.12,0-7.07,1.95-1.95,5.12-1.95,7.07,0l26.85,26.85,63.31-63.31c1.95-1.95,5.12-1.95,7.07,0,1.95,1.95,1.95,5.12,0,7.07l-66.84,66.84c-.98.98-2.26,1.46-3.54,1.46Z"/>
  <path class="cls-1" d="m158.44,180.12H41.56c-12.17,0-22.08-9.9-22.08-22.08V41.17c0-12.17,9.9-22.08,22.08-22.08h116.88c12.17,0,22.08,9.9,22.08,22.08v116.88c0,12.17-9.9,22.08-22.08,22.08ZM41.56,29.09c-6.66,0-12.08,5.42-12.08,12.08v116.88c0,6.66,5.42,12.08,12.08,12.08h116.88c6.66,0,12.08-5.42,12.08-12.08V41.17c0-6.66-5.42-12.08-12.08-12.08H41.56Z"/>
</svg>