<?xml version="1.0" encoding="UTF-8"?>
<svg id="icons" xmlns="http://www.w3.org/2000/svg" viewBox="0 0 200 200">
  <defs>
    <style>
      .cls-1 {
        fill: #231f20;
      }
    </style>
  </defs>
  <path class="cls-1" d="m158.44,19.48H41.56c-12.17,0-22.08,9.91-22.08,22.08v116.88c0,12.17,9.91,22.08,22.08,22.08h116.88c12.18,0,22.08-9.91,22.08-22.08V41.56c0-12.17-9.9-22.08-22.08-22.08Zm12.08,138.96c0,6.66-5.42,12.08-12.08,12.08H41.56c-6.66,0-12.08-5.42-12.08-12.08V41.56c0-6.66,5.42-12.08,12.08-12.08h116.88c6.66,0,12.08,5.42,12.08,12.08v116.88Z"/>
  <path class="cls-1" d="m140.8,133.73c1.95,1.95,1.95,5.11,0,7.07-.98.97-2.26,1.46-3.54,1.46s-2.56-.49-3.53-1.46l-33.72-33.73-33.73,33.73c-.98.97-2.26,1.46-3.54,1.46s-2.56-.49-3.53-1.46c-1.96-1.96-1.96-5.12,0-7.07l33.73-33.73-33.73-33.73c-1.96-1.95-1.96-5.11,0-7.07s5.12-1.95,7.07,0l33.73,33.73,33.72-33.73c1.95-1.95,5.12-1.95,7.07,0,1.95,1.96,1.95,5.12,0,7.07l-33.73,33.73,33.73,33.73Z"/>
</svg>