<?xml version="1.0" encoding="UTF-8"?>
<svg id="icons" xmlns="http://www.w3.org/2000/svg" viewBox="0 0 200 200">
  <defs>
    <style>
      .cls-1 {
        fill: #231f20;
      }
    </style>
  </defs>
  <path class="cls-1" d="m157.84,150.77c1.96,1.95,1.96,5.12,0,7.07-.97.98-2.25,1.46-3.53,1.46s-2.56-.48-3.54-1.46l-50.77-50.77-50.77,50.77c-.97.98-2.25,1.46-3.53,1.46s-2.56-.48-3.54-1.46c-1.95-1.95-1.95-5.12,0-7.07l50.77-50.77-50.77-50.77c-1.95-1.95-1.95-5.12,0-7.07,1.95-1.95,5.12-1.95,7.07,0l50.77,50.77,50.77-50.77c1.95-1.95,5.12-1.95,7.07,0,1.96,1.95,1.96,5.12,0,7.07l-50.77,50.77,50.77,50.77Z"/>
</svg>