<?xml version="1.0" encoding="UTF-8"?>
<svg id="icons" xmlns="http://www.w3.org/2000/svg" viewBox="0 0 200 200">
  <defs>
    <style>
      .cls-1 {
        fill: #231f20;
      }
    </style>
  </defs>
  <path class="cls-1" d="m174.75,171.54H25.25c-7.38,0-13.38-6-13.38-13.38v-36.28c0-2.76,2.24-5,5-5s5,2.24,5,5v36.28c0,1.86,1.52,3.38,3.38,3.38h149.5c1.86,0,3.38-1.52,3.38-3.38v-36.28c0-2.76,2.24-5,5-5s5,2.24,5,5v36.28c0,7.38-6,13.38-13.38,13.38Z"/>
  <path class="cls-1" d="m151.65,103.12l-48.39,41.56s-.05.04-.08.06c-.34.29-.71.52-1.1.7-.09.04-.18.08-.27.11-.2.08-.41.15-.62.19-.1.03-.21.05-.31.07-.29.05-.59.08-.88.08s-.59-.03-.88-.08c-.1-.02-.21-.04-.31-.07-.21-.04-.42-.11-.62-.19-.09-.03-.18-.07-.27-.11-.39-.18-.76-.41-1.1-.7-.03-.02-.05-.04-.08-.06l-48.39-41.56c-2.09-1.8-2.33-4.96-.53-7.05,1.8-2.1,4.96-2.34,7.05-.54l40.13,34.47V32.54c0-2.76,2.24-5,5-5s5,2.24,5,5v97.47l40.14-34.48c2.09-1.8,5.25-1.56,7.05.54,1.8,2.09,1.56,5.25-.54,7.05Z"/>
</svg>