<?xml version="1.0" encoding="UTF-8"?>
<svg id="icons" xmlns="http://www.w3.org/2000/svg" viewBox="0 0 200 200">
  <defs>
    <style>
      .cls-1 {
        fill: #231f20;
      }
    </style>
  </defs>
  <path class="cls-1" d="m177.54,27.75v62.62c0,2.77-2.24,5-5,5s-5-2.23-5-5v-50.54l-80.12,80.12c-.98.98-2.26,1.47-3.54,1.47s-2.56-.49-3.53-1.47c-1.95-1.95-1.95-5.12,0-7.07l80.36-80.36h-51.02c-2.76,0-5-2.24-5-5s2.24-5,5-5h62.85c2.68,0,4.86,2.1,4.98,4.75.01.16.02.32.02.48Z"/>
  <path class="cls-1" d="m177.54,27.52v.23c0-.16-.01-.32-.02-.48.02.08.02.17.02.25Z"/>
  <path class="cls-1" d="m141.36,178.99H34.46c-7.25,0-13.15-5.9-13.15-13.15V58.93c0-7.25,5.9-13.15,13.15-13.15h57.56c2.76,0,5,2.24,5,5s-2.24,5-5,5h-57.56c-1.74,0-3.15,1.42-3.15,3.15v106.91c0,1.74,1.42,3.15,3.15,3.15h106.91c1.74,0,3.15-1.42,3.15-3.15v-57.56c0-2.76,2.24-5,5-5s5,2.24,5,5v57.56c0,7.25-5.9,13.15-13.15,13.15Z"/>
</svg>