<?xml version="1.0" encoding="UTF-8"?>
<svg id="icons" xmlns="http://www.w3.org/2000/svg" viewBox="0 0 200 200">
  <defs>
    <style>
      .cls-1 {
        fill: #231f20;
      }
    </style>
  </defs>
  <path class="cls-1" d="m172.81,165.84c-.32-.2-.62-.43-.9-.71l-23.21-23.21-7.35-7.35-52.58-52.58-7.2-7.2-13.65-13.65L34.41,27.63c-.19-.2-.37-.4-.52-.62-1.93-1.21-4.5-.97-6.17.71-1.96,1.95-1.96,5.11,0,7.07l23.4,23.4c-15.79,9.09-29.26,22.56-38.57,39.31-.01.02-.03.05-.04.07-.04.07-.08.15-.11.22-.05.09-.09.19-.14.29-.04.1-.08.21-.11.31-.04.11-.07.21-.1.32-.03.1-.05.21-.07.31-.13.65-.13,1.32,0,1.96.02.1.04.21.07.31.03.11.06.21.1.32.1.31.24.61.4.89,18.01,32.39,51.52,52.5,87.45,52.5,13.77,0,27.19-2.95,39.51-8.42l25.71,25.71c.97.97,2.25,1.46,3.53,1.46s2.56-.49,3.54-1.46c1.75-1.76,1.93-4.5.52-6.45Zm-61.76-47.72c-3.22,1.98-7,3.12-11.05,3.12-11.71,0-21.24-9.53-21.24-21.24,0-4.04,1.14-7.83,3.11-11.06l29.18,29.18Zm-11.05,26.88c-31.42,0-60.82-17.17-77.35-45,8.82-14.86,21.31-26.67,35.81-34.47l16.21,16.21c-3.72,5.14-5.91,11.45-5.91,18.26,0,17.23,14.02,31.24,31.24,31.24,6.82,0,13.12-2.19,18.26-5.91l13.61,13.61c-10.06,3.95-20.84,6.06-31.87,6.06Z"/>
  <path class="cls-1" d="m172.81,165.84c-.32-.2-.62-.43-.9-.71l-23.21-23.21-7.35-7.35-52.58-52.58-7.2-7.2-13.65-13.65L34.41,27.63c-.19-.2-.37-.4-.52-.62.32.19.62.43.9.71l25.71,25.71,7.63,7.63,57.2,57.2,16.2,16.21h.01l30.75,30.75c.19.19.37.4.52.62Z"/>
  <path class="cls-1" d="m172.81,165.84c-.32-.2-.62-.43-.9-.71l-23.21-23.21-7.35-7.35-52.58-52.58-7.2-7.2-13.65-13.65L34.41,27.63c-.19-.2-.37-.4-.52-.62.32.19.62.43.9.71l25.71,25.71,7.63,7.63,57.2,57.2,16.2,16.21h.01l30.75,30.75c.19.19.37.4.52.62Z"/>
  <path class="cls-1" d="m148.89,141.82c-.07.03-.13.07-.19.1l-7.35-7.35c.06-.04.12-.07.18-.1h.01l7.35,7.35Z"/>
  <path class="cls-1" d="m68.13,61.06c-.07.03-.14.06-.21.08l-7.62-7.62c.07-.04.13-.07.2-.09l7.63,7.63Z"/>
  <path class="cls-1" d="m188.03,100.97c-.02.11-.04.21-.07.32-.05.19-.11.37-.18.55-.09.23-.2.45-.32.66-7.61,13.69-17.99,25.18-30.15,33.89l-7.18-7.18c10.85-7.47,20.19-17.38,27.22-29.21-16.53-27.83-45.92-45-77.35-45-7.28,0-14.46.92-21.39,2.69l-8.08-8.08c9.44-3.02,19.36-4.61,29.47-4.61,35.94,0,69.45,20.12,87.46,52.5.01.02.03.05.04.07.04.07.08.15.11.22.05.1.09.19.14.29.01.03.02.05.03.08.07.18.13.36.18.55.03.11.05.21.07.32.13.65.13,1.31,0,1.94Z"/>
  <path class="cls-1" d="m118.13,111.06c-.04.06-.08.12-.11.18l7.19,7.19c.05-.06.09-.11.12-.17l-7.2-7.2Zm-36.39-36.39c-.06.04-.11.08-.17.12l7.2,7.2c.06-.05.12-.08.18-.11l-7.21-7.21Zm18.26-5.91c-3.12,0-6.14.46-8.99,1.33l8.68,8.68c.1-.01.21-.01.31-.01,11.71,0,21.24,9.53,21.24,21.24,0,.1,0,.21-.01.31l8.68,8.68c.87-2.85,1.33-5.87,1.33-8.99,0-17.22-14.01-31.24-31.24-31.24Z"/>
</svg>