<?xml version="1.0" encoding="UTF-8"?>
<svg id="icons" xmlns="http://www.w3.org/2000/svg" viewBox="0 0 200 200">
  <defs>
    <style>
      .cls-1 {
        fill: #231f20;
      }
    </style>
  </defs>
  <path class="cls-1" d="m172.61,166.05c-.3-.19-.58-.41-.84-.67l-18.3-18.3-7.16-7.16-18.58-18.58-7.15-7.15-34.77-34.77-7.15-7.15L34.27,27.88c-.26-.26-.48-.54-.68-.84.3.18.59.41.85.67l19.97,19.97,66.31,66.31,7.16,7.16,18.63,18.63,7.15,7.15,18.28,18.28c.26.26.48.54.67.84Z"/>
  <path class="cls-1" d="m172.61,166.05c-.3-.19-.58-.41-.84-.67l-18.3-18.3-7.16-7.16-18.58-18.58-7.15-7.15-34.77-34.77-7.15-7.15L34.27,27.88c-.26-.26-.48-.54-.68-.84.3.18.59.41.85.67l19.97,19.97,66.31,66.31,7.16,7.16,18.63,18.63,7.15,7.15,18.28,18.28c.26.26.48.54.67.84Z"/>
  <path class="cls-1" d="m153.66,146.93c-.06.06-.12.11-.19.15l-7.16-7.16c.07-.04.14-.09.2-.14l7.15,7.15Z"/>
  <path class="cls-1" d="m172.61,166.05c-.3-.19-.58-.41-.84-.67l-18.3-18.3-7.16-7.16-18.58-18.58-7.15-7.15-34.77-34.77-7.15-7.15L34.27,27.88c-.26-.26-.48-.54-.68-.84-1.93-1.25-4.53-1.02-6.22.67-1.95,1.95-1.95,5.12,0,7.07l18.58,18.58c-14.56,10.93-26.38,26.27-33.72,44.8-.05.13-.1.26-.13.38-.03.1-.06.21-.09.31,0,.03-.01.05-.02.08-.02.11-.04.22-.05.33-.02.1-.04.2-.04.3-.01.15-.02.29-.02.44s.01.29.02.44c0,.1.02.2.04.3.01.11.03.21.05.32.01.04.02.08.03.12.03.09.05.19.08.28.03.12.08.25.13.38,15.2,38.37,49.65,63.16,87.77,63.16,16.1,0,31.55-4.42,45.17-12.42l19.7,19.7c.97.98,2.26,1.47,3.53,1.47s2.56-.49,3.54-1.47c1.69-1.69,1.92-4.3.67-6.23Zm-93.59-79.62l34.55,34.55c-3.91,2.54-8.56,4.02-13.57,4.02-13.78,0-25-11.22-25-25,0-5,1.47-9.66,4.02-13.57Zm20.98,68.57c-33.38,0-63.7-21.52-77.72-55,6.88-16.42,17.67-29.95,30.82-39.49l18.73,18.73c-4.29,5.81-6.83,12.99-6.83,20.76,0,19.3,15.7,35,35,35,7.77,0,14.95-2.54,20.76-6.83l17.07,17.07c-11.55,6.3-24.44,9.76-37.83,9.76Z"/>
  <path class="cls-1" d="m61.74,55.01c-.08.04-.15.08-.22.12l-7.32-7.32c.07-.05.14-.09.21-.13l7.33,7.33Z"/>
  <path class="cls-1" d="m188.13,99.97v.05c0,.14,0,.29-.02.43v.03c-.02.15-.04.3-.07.44-.01.09-.03.17-.06.26-.04.21-.11.42-.19.62,0,.01-.01.02-.01.04-6.09,15.38-15.28,28.57-26.55,38.86l-7.08-7.08c9.88-8.93,18.01-20.33,23.58-33.62-14.03-33.48-44.34-55-77.73-55-10.03,0-19.78,1.94-28.89,5.58l-7.64-7.64c11.37-5.15,23.74-7.94,36.53-7.94,38.12,0,72.58,24.79,87.78,63.16.05.13.09.25.13.38.03.08.05.16.07.24.03.1.05.19.06.29.03.15.05.29.07.44v.03c.01.14.02.29.02.43Z"/>
  <path class="cls-1" d="m100,65c-4.31,0-8.44.78-12.25,2.22l8.13,8.13c1.34-.23,2.72-.35,4.12-.35,13.79,0,25,11.21,25,25,0,1.4-.12,2.78-.35,4.12l8.13,8.13c1.44-3.81,2.22-7.94,2.22-12.25,0-19.3-15.7-35-35-35Zm-21.15,7.12c-.06.06-.13.11-.19.15l7.15,7.15c.07-.04.13-.09.2-.14l-7.16-7.16Zm41.87,41.87c-.05.07-.1.13-.14.2l7.15,7.15c.05-.06.1-.13.15-.19l-7.16-7.16Z"/>
</svg>