<?xml version="1.0" encoding="UTF-8"?>
<svg id="icons" xmlns="http://www.w3.org/2000/svg" viewBox="0 0 200 200">
  <defs>
    <style>
      .cls-1 {
        fill: #231f20;
      }
    </style>
  </defs>
  <path class="cls-1" d="m188.11,99.55v-.03c-.02-.15-.04-.3-.07-.44-.01-.09-.03-.17-.06-.26-.04-.21-.1-.42-.19-.62,0-.01,0-.03-.01-.04-15.2-38.37-49.66-63.16-87.78-63.16S27.43,59.79,12.23,98.16c-.05.12-.09.25-.13.38-.03.09-.05.19-.08.28-.01.04-.02.08-.03.12-.02.11-.04.21-.05.32-.02.1-.04.2-.04.3-.01.15-.02.29-.02.44s.01.29.02.44c0,.1.02.2.04.3.01.11.03.22.05.33.01.03.01.06.02.08.03.1.06.21.09.31.03.13.08.26.13.38,15.2,38.37,49.65,63.16,87.77,63.16s72.58-24.79,87.78-63.16c.05-.13.09-.25.13-.38.03-.08.05-.16.07-.24.03-.1.05-.19.06-.29.03-.15.05-.29.07-.44v-.03c.01-.14.02-.29.02-.43v-.05c0-.14,0-.29-.02-.43Zm-88.11,55.45c-33.38,0-63.7-21.52-77.72-55,14.03-33.48,44.34-55,77.72-55s63.7,21.52,77.73,55c-14.03,33.48-44.34,55-77.73,55Z"/>
  <path class="cls-1" d="m100,135c-19.3,0-35-15.7-35-35s15.7-35,35-35,35,15.7,35,35-15.7,35-35,35Zm0-60c-13.79,0-25,11.21-25,25s11.21,25,25,25,25-11.22,25-25-11.21-25-25-25Z"/>
</svg>