<?xml version="1.0" encoding="UTF-8"?>
<svg id="icons" xmlns="http://www.w3.org/2000/svg" viewBox="0 0 200 200">
  <defs>
    <style>
      .cls-1 {
        fill: #231f20;
      }
    </style>
  </defs>
  <path class="cls-1" d="m169.06,59.15c-.24-.6-.61-1.16-1.1-1.65L123.67,13.32c-.9-.91-2.15-1.47-3.53-1.47H43.58c-7.17,0-13,5.83-13,13v150.31c0,7.16,5.83,13,13,13h112.85c7.17,0,13-5.84,13-13V60.95c-.01-.64-.14-1.25-.37-1.8Zm-43.93-30.25l27.21,27.14h-27.21v-27.14Zm34.3,146.26c0,1.65-1.34,3-3,3H43.58c-1.66,0-3-1.35-3-3V24.85c0-1.65,1.34-3,3-3h71.55v39.19c0,2.77,2.24,5,5,5h39.3v109.12Z"/>
  <path class="cls-1" d="m138.18,109.3c0,2.76-2.24,5-5,5h-28.65v28.65c0,2.76-2.24,5-5,5s-5-2.24-5-5v-28.65h-28.66c-2.76,0-5-2.24-5-5s2.24-5,5-5h28.66v-28.66c0-2.76,2.23-5,5-5s5,2.24,5,5v28.66h28.65c2.76,0,5,2.24,5,5Z"/>
</svg>