<?xml version="1.0" encoding="UTF-8"?>
<svg id="icons" xmlns="http://www.w3.org/2000/svg" viewBox="0 0 200 200">
  <defs>
    <style>
      .cls-1 {
        fill: #231f20;
      }
    </style>
  </defs>
  <path class="cls-1" d="m156.43,188.15H43.57c-7.17,0-13-5.83-13-13V24.85c0-7.17,5.83-13,13-13h76.57c1.38,0,2.63.56,3.53,1.47l44.29,44.19c.49.48.85,1.04,1.1,1.64.23.56.36,1.16.37,1.8,0,.04,0,.07,0,.11v114.1c0,7.17-5.83,13-13,13ZM43.57,21.85c-1.65,0-3,1.35-3,3v150.3c0,1.65,1.35,3,3,3h112.86c1.65,0,3-1.35,3-3v-109.11h-39.3c-2.76,0-5-2.24-5-5V21.85H43.57Zm81.56,34.19h27.21l-27.21-27.14v27.14Z"/>
</svg>