<?xml version="1.0" encoding="UTF-8"?>
<svg id="icons" xmlns="http://www.w3.org/2000/svg" viewBox="0 0 200 200">
  <defs>
    <style>
      .cls-1 {
        fill: #231f20;
      }
    </style>
  </defs>
  <path class="cls-1" d="m166,45.21h-72.01l-15.12-22.67c-.92-1.39-2.48-2.23-4.16-2.23h-41.49c-11.91,0-21.6,9.69-21.6,21.6v116.18c0,11.91,9.69,21.6,21.6,21.6h132.78c11.91,0,21.6-9.69,21.6-21.6v-91.28c0-11.91-9.69-21.6-21.6-21.6Zm11.6,112.88c0,6.4-5.21,11.6-11.6,11.6H33.22c-6.39,0-11.6-5.2-11.6-11.6V41.91c0-6.39,5.21-11.6,11.6-11.6h38.82l15.11,22.67c.93,1.39,2.49,2.23,4.16,2.23h74.69c6.39,0,11.6,5.2,11.6,11.6v91.28Z"/>
  <path class="cls-1" d="m142.7,112.31c0,2.76-2.24,5-5,5h-33.09v33.08c0,2.77-2.24,5-5,5s-5-2.23-5-5v-33.08h-33.09c-2.76,0-5-2.24-5-5s2.24-5,5-5h33.09v-33.09c0-2.76,2.24-5,5-5s5,2.24,5,5v33.09h33.09c2.76,0,5,2.24,5,5Z"/>
</svg>