<?xml version="1.0" encoding="UTF-8"?>
<svg id="icons" xmlns="http://www.w3.org/2000/svg" viewBox="0 0 200 200">
  <defs>
    <style>
      .cls-1 {
        fill: #231f20;
      }
    </style>
  </defs>
  <path class="cls-1" d="m158.05,180.52H41.17c-12.17,0-22.08-9.9-22.08-22.08V41.56c0-12.17,9.9-22.08,22.08-22.08h116.88c12.17,0,22.08,9.9,22.08,22.08v116.88c0,12.17-9.9,22.08-22.08,22.08ZM41.17,29.48c-6.66,0-12.08,5.42-12.08,12.08v116.88c0,6.66,5.42,12.08,12.08,12.08h116.88c6.66,0,12.08-5.42,12.08-12.08V41.56c0-6.66-5.42-12.08-12.08-12.08H41.17Z"/>
  <path class="cls-1" d="m150.26,105H48.95c-2.76,0-5-2.24-5-5s2.24-5,5-5h101.3c2.76,0,5,2.24,5,5s-2.24,5-5,5Z"/>
</svg>