<?xml version="1.0" encoding="UTF-8"?>
<svg id="icons" xmlns="http://www.w3.org/2000/svg" viewBox="0 0 200 200">
  <defs>
    <style>
      .cls-1 {
        fill: #231f20;
      }
    </style>
  </defs>
  <path class="cls-1" d="m173.75,100c0,.28-.02.55-.07.82-.01.05-.02.11-.03.16-.01.07-.02.14-.04.2-.06.25-.14.49-.23.72-.02.05-.04.11-.07.16-.05.11-.11.22-.16.32-.07.14-.16.28-.26.42-.15.22-.31.41-.49.6-.04.04-.07.09-.11.14l-68.75,68.75c-.98.97-2.26,1.46-3.54,1.46s-2.56-.49-3.53-1.46c-1.96-1.96-1.96-5.12,0-7.08l60.21-60.21H31.25c-2.76,0-5-2.24-5-5s2.24-5,5-5h125.43l-60.21-60.21c-1.96-1.96-1.96-5.12,0-7.08s5.12-1.95,7.07,0l68.74,68.75c.23.23.43.48.61.74.1.14.19.28.26.42.05.1.11.21.16.32.03.05.05.11.07.16.09.24.17.48.23.73.02.06.03.12.04.19.01.05.02.11.03.16.05.27.07.54.07.82Z"/>
  <path class="cls-1" d="m172.29,96.46c.23.23.43.48.6.74-.18-.26-.38-.51-.61-.74h.01Z"/>
</svg>