<?xml version="1.0" encoding="UTF-8"?>
<svg id="icons" xmlns="http://www.w3.org/2000/svg" viewBox="0 0 200 200">
  <defs>
    <style>
      .cls-1 {
        fill: #231f20;
      }
    </style>
  </defs>
  <path class="cls-1" d="m184.14,177.44l-36.17-36.17c12.09-13.72,19.42-31.71,19.42-51.37,0-42.94-34.94-77.87-77.87-77.87S11.65,46.96,11.65,89.9s34.93,77.86,77.87,77.86c19.67,0,37.66-7.33,51.38-19.42l36.17,36.17c.97.98,2.25,1.47,3.53,1.47s2.56-.49,3.54-1.47c1.95-1.95,1.95-5.11,0-7.07ZM21.65,89.9c0-37.43,30.45-67.87,67.87-67.87s67.87,30.44,67.87,67.87c0,18.47-7.41,35.24-19.43,47.48-.3.32-.61.63-.93.93-12.25,12.03-29.03,19.45-47.51,19.45-37.42,0-67.87-30.44-67.87-67.86Z"/>
  <path class="cls-1" d="m137.96,137.38c-.3.32-.61.63-.93.93.12-.17.26-.33.42-.49.16-.16.33-.31.51-.44Z"/>
</svg>