<?xml version="1.0" encoding="UTF-8"?>
<svg id="icons" xmlns="http://www.w3.org/2000/svg" viewBox="0 0 200 200">
  <defs>
    <style>
      .cls-1 {
        fill: #231f20;
      }
    </style>
  </defs>
  <path class="cls-1" d="m153.62,51.39v97.22c0,2.77-2.24,5-5,5s-5-2.23-5-5V63.45l-88.7,88.7c-.97.98-2.25,1.46-3.53,1.46s-2.56-.48-3.54-1.46c-1.95-1.95-1.95-5.12,0-7.07l88.69-88.69H51.39c-2.76,0-5-2.24-5-5s2.24-5,5-5h97.23c.17,0,.34,0,.51.03.17.01.33.04.5.07.29.06.59.15.87.27.14.05.29.12.42.19.46.23.87.54,1.23.9.11.11.22.23.33.36.01,0,.01.01.01.02.11.13.21.26.3.4.36.55.61,1.16.73,1.79.04.16.06.32.07.48.02.16.03.32.03.49Z"/>
  <path class="cls-1" d="m153.52,50.42c-.12-.63-.37-1.24-.73-1.79.36.53.61,1.14.73,1.79Z"/>
</svg>