<?xml version="1.0" encoding="UTF-8"?>
<svg id="icons" xmlns="http://www.w3.org/2000/svg" viewBox="0 0 200 200">
  <defs>
    <style>
      .cls-1 {
        fill: #231f20;
      }
    </style>
  </defs>
  <path class="cls-1" d="m163.41,21.27c-20.24,0-36.7,16.54-36.7,36.88v18.97H50.08c-7.24,0-13.12,5.88-13.12,13.12v66.03c0,7.23,5.88,13.12,13.12,13.12h99.85c7.23,0,13.12-5.89,13.12-13.12v-66.03c0-7.24-5.89-13.12-13.12-13.12h-13.22v-18.97c0-14.82,11.97-26.88,26.7-26.88s26.7,12.06,26.7,26.88v23.97c0,2.76,2.24,5,5,5s5-2.24,5-5v-23.97c0-20.34-16.46-36.88-36.7-36.88Zm-13.48,65.85c1.72,0,3.12,1.4,3.12,3.12v66.03c0,1.72-1.4,3.12-3.12,3.12H50.08c-1.72,0-3.12-1.4-3.12-3.12v-66.03c0-1.72,1.4-3.12,3.12-3.12h99.85Z"/>
  <path class="cls-1" d="m100,149.46c-2.76,0-5-2.24-5-5v-16.46c0-2.76,2.24-5,5-5s5,2.24,5,5v16.46c0,2.76-2.24,5-5,5Z"/>
</svg>