<?xml version="1.0" encoding="UTF-8"?>
<svg id="icons" xmlns="http://www.w3.org/2000/svg" viewBox="0 0 200 200">
  <defs>
    <style>
      .cls-1 {
        fill: #231f20;
      }
    </style>
  </defs>
  <path class="cls-1" d="m149.53,86.82h-76.62v-18.97c0-14.82,11.98-26.88,26.7-26.88,8.38,0,16.11,3.84,21.22,10.55,1.67,2.2,4.81,2.63,7,.96,2.2-1.67,2.63-4.81.96-7.01-7.01-9.22-17.65-14.5-29.18-14.5-20.24,0-36.7,16.54-36.7,36.88v18.97h-13.22c-7.24,0-13.12,5.88-13.12,13.12v55.12c0,7.23,5.88,13.12,13.12,13.12h99.84c7.24,0,13.12-5.89,13.12-13.12v-55.12c0-7.24-5.88-13.12-13.12-13.12Zm3.12,68.24c0,1.72-1.4,3.12-3.12,3.12H49.69c-1.72,0-3.12-1.4-3.12-3.12v-55.12c0-1.72,1.4-3.12,3.12-3.12h99.84c1.72,0,3.12,1.4,3.12,3.12v55.12Z"/>
  <path class="cls-1" d="m99.61,148.96c-2.76,0-5-2.24-5-5v-16.46c0-2.76,2.24-5,5-5s5,2.24,5,5v16.46c0,2.76-2.24,5-5,5Z"/>
</svg>