<?xml version="1.0" encoding="UTF-8"?>
<svg id="icons" xmlns="http://www.w3.org/2000/svg" viewBox="0 0 200 200">
  <defs>
    <style>
      .cls-1 {
        fill: #231f20;
      }
    </style>
  </defs>
  <path class="cls-1" d="m174.75,172H25.25c-7.38,0-13.38-6-13.38-13.38v-36.28c0-2.76,2.24-5,5-5s5,2.24,5,5v36.28c0,1.86,1.52,3.38,3.38,3.38h149.5c1.86,0,3.38-1.52,3.38-3.38v-36.28c0-2.76,2.24-5,5-5s5,2.24,5,5v36.28c0,7.38-6,13.38-13.38,13.38Z"/>
  <path class="cls-1" d="m152.19,77.82c-1.8,2.1-4.96,2.34-7.05.54l-40.14-34.48v97.47c0,2.76-2.24,5-5,5s-5-2.24-5-5V43.89l-40.13,34.47c-.94.81-2.1,1.21-3.26,1.21-1.4,0-2.8-.6-3.79-1.75-1.8-2.09-1.56-5.25.53-7.05l48.39-41.56c.12-.1.24-.19.36-.28.11-.08.22-.15.33-.21.16-.1.32-.19.49-.27.11-.05.22-.1.34-.14.02,0,.03-.01.05-.02.13-.04.26-.08.4-.12.13-.04.27-.07.41-.09.13-.02.25-.04.38-.05.16-.02.33-.03.5-.03s.34.01.5.03c.13.01.26.03.38.05.14.02.28.05.41.09.14.04.27.08.4.12.02.01.04.02.05.02.12.04.23.09.34.14.17.08.33.17.49.27.11.06.22.13.33.21.12.09.24.18.36.28l48.39,41.56c2.1,1.8,2.34,4.96.54,7.05Z"/>
</svg>