<?xml version="1.0" encoding="UTF-8"?>
<svg id="icons" xmlns="http://www.w3.org/2000/svg" viewBox="0 0 200 200">
  <defs>
    <style>
      .cls-1 {
        fill: #231f20;
      }
    </style>
  </defs>
  <path class="cls-1" d="m100.03,85.22c-20.24,0-36.71-16.47-36.71-36.71S79.79,11.81,100.03,11.81s36.71,16.47,36.71,36.71-16.47,36.71-36.71,36.71Zm0-63.42c-14.73,0-26.71,11.98-26.71,26.71s11.98,26.71,26.71,26.71,26.71-11.98,26.71-26.71-11.98-26.71-26.71-26.71Z"/>
  <path class="cls-1" d="m131.62,188.19c-3.16,0-6.84-.07-11.22-.15-5.68-.1-12.75-.23-21.51-.27-7.99-.04-14.56.02-19.84.06-19.05.15-24.8.19-32.04-4.49-10.64-6.88-16.06-19.33-15.26-35.07l.02-.38c1.07-27.05,28.76-56.02,68.28-56.02s68.28,25.22,68.28,56.21c0,.13,0,.32.02.57.65,20.44-8.22,30.43-15.78,35.21-5.64,3.57-10.36,4.33-20.94,4.33Zm-38.24-10.43c1.77,0,3.61,0,5.55.01,8.83.04,15.94.17,21.65.28,18.38.34,21.99.31,26.63-2.63,7.79-4.93,11.53-13.82,11.13-26.44-.01-.38-.02-.68-.02-.89,0-25.48-26.15-46.21-58.28-46.21-36.84,0-57.52,26.95-58.29,46.41l-.02.5c-.62,12.19,3.08,21.23,10.7,26.16,4.58,2.96,8.18,3.03,26.54,2.89,4.03-.03,8.82-.07,14.42-.07Z"/>
</svg>