<?xml version="1.0" encoding="UTF-8"?>
<svg id="icons" xmlns="http://www.w3.org/2000/svg" viewBox="0 0 200 200">
  <defs>
    <style>
      .cls-1 {
        fill: #231f20;
      }
    </style>
  </defs>
  <path class="cls-1" d="m185.7,51.24c-1.4-.93-3.17-1.09-4.71-.44l-44.51,18.77v-6.39c0-7.17-5.83-13-13-13H24.38c-7.17,0-13,5.83-13,13v73.65c0,7.17,5.83,13,13,13h99.1c7.17,0,13-5.83,13-13v-6.39l44.51,18.77c.62.26,1.28.39,1.94.39.97,0,1.94-.28,2.77-.83,1.39-.93,2.23-2.49,2.23-4.17V55.41c0-1.68-.84-3.24-2.23-4.17Zm-59.22,85.59c0,1.65-1.34,3-3,3H24.38c-1.65,0-3-1.35-3-3V63.18c0-1.66,1.35-3,3-3h99.1c1.66,0,3,1.34,3,3v73.65Zm51.45.23l-41.45-17.48v-39.16l41.45-17.48v74.12Z"/>
</svg>