<?xml version="1.0" encoding="UTF-8"?>
<svg id="icons" xmlns="http://www.w3.org/2000/svg" viewBox="0 0 200 200">
  <defs>
    <style>
      .cls-1 {
        fill: #231f20;
      }
    </style>
  </defs>
  <path class="cls-1" d="m156.37,11.94H43.75c-7.17,0-13,5.74-13,12.79v158.18c0,.19.01.39.04.59.01.1.02.19.04.28.01.09.03.19.06.28.02.11.05.23.09.34.03.09.06.19.1.29.02.05.03.09.05.13.05.11.1.22.15.33.01.02.02.03.03.05.04.08.09.17.14.25.05.09.11.18.18.27.06.1.13.2.22.3.03.05.07.1.11.14.08.1.17.19.26.28.23.23.47.44.74.61.08.06.16.11.25.16.08.05.17.1.25.15.06.02.12.05.18.08.11.05.23.1.34.14.22.09.45.16.67.2.11.03.23.05.34.07.08,0,.17.03.25.03.17.02.35.03.52.03.18,0,.37-.01.55-.04.12,0,.23-.02.34-.04.07-.02.15-.03.22-.05.15-.03.31-.08.46-.13.24-.08.48-.18.71-.3.09-.04.18-.1.27-.16.08-.04.17-.09.25-.16.06-.03.11-.07.17-.11l61.33-45.58,61.33,45.58c.06.04.11.08.17.11.08.07.17.12.25.16.09.06.18.12.27.16.23.12.47.22.71.3.16.05.31.1.46.13.08.02.15.03.22.05.11.02.22.04.33.04.19.03.38.04.57.04.17,0,.34-.01.51-.03.1-.01.19-.02.28-.04.1,0,.21-.03.31-.06.23-.04.45-.11.67-.2.11-.04.23-.09.34-.14.06-.03.12-.06.18-.08.09-.05.17-.1.25-.15.09-.05.17-.1.25-.16.27-.17.51-.38.74-.61.09-.09.18-.18.26-.28.04-.04.08-.09.11-.14.09-.1.16-.2.22-.3.07-.09.13-.18.18-.27.05-.08.1-.17.14-.25,0-.02.02-.03.03-.05.05-.11.1-.22.15-.33.02-.04.03-.08.05-.13.04-.1.07-.2.1-.29.04-.11.07-.23.09-.34.03-.09.05-.19.06-.28.02-.09.03-.18.04-.28.03-.2.04-.4.04-.59V24.73c0-7.05-5.83-12.79-13-12.79Zm-56.71,118.2c-.1,0-.19.01-.29.03-.17.02-.35.06-.52.1-.15.04-.3.08-.44.13-.03.01-.06.02-.08.03-.17.06-.33.13-.48.21-.15.07-.29.15-.43.24-.19.11-.37.24-.55.39l-56.12,41.69V24.73c0-1.54,1.35-2.79,3-2.79h112.62c1.65,0,3,1.25,3,2.79v148.23l-56.12-41.69-.21-.16c-.11-.08-.23-.16-.34-.23-.14-.09-.28-.17-.43-.24-.17-.09-.35-.16-.53-.23-.16-.06-.33-.11-.51-.15-.04-.01-.08-.02-.11-.02-.12-.03-.25-.06-.38-.07-.09-.02-.19-.03-.28-.03-.27-.03-.53-.02-.8,0Z"/>
  <path class="cls-1" d="m31.63,185.72c.06.1.13.2.22.3-.04-.04-.08-.08-.11-.13-.04-.06-.08-.11-.11-.17Z"/>
  <path class="cls-1" d="m168.27,186.02c.09-.1.16-.2.22-.3-.03.06-.07.11-.11.17-.03.05-.07.09-.11.13Z"/>
</svg>