<?xml version="1.0" encoding="UTF-8"?>
<svg id="icons" xmlns="http://www.w3.org/2000/svg" viewBox="0 0 200 200">
  <defs>
    <style>
      .cls-1 {
        fill: #231f20;
      }
    </style>
  </defs>
  <path class="cls-1" d="m47.05,151.09c.22.39.49.74.81,1.06h-.01c-.32-.32-.59-.68-.8-1.06Z"/>
  <path class="cls-1" d="m153.62,148.61c0,2.77-2.24,5-5,5H51.39c-.17,0-.34-.01-.51-.03-1.18-.11-2.23-.64-3.02-1.43-.32-.32-.59-.67-.81-1.06-.27-.46-.46-.97-.57-1.51-.06-.31-.09-.63-.09-.96V51.39c0-2.77,2.24-5,5-5s5,2.23,5,5v85.15l88.69-88.69c1.95-1.95,5.12-1.95,7.07,0,1.95,1.95,1.95,5.12,0,7.07l-88.69,88.69h85.16c2.76,0,5,2.24,5,5Z"/>
</svg>