<?xml version="1.0" encoding="UTF-8"?>
<svg id="icons" xmlns="http://www.w3.org/2000/svg" viewBox="0 0 200 200">
  <defs>
    <style>
      .cls-1 {
        fill: #231f20;
      }
    </style>
  </defs>
  <path class="cls-1" d="m152.14,152.15c.32-.32.59-.67.81-1.06-.21.38-.48.74-.8,1.06h-.01Z"/>
  <path class="cls-1" d="m153.61,51.39v97.23c0,.33-.03.65-.09.96-.11.54-.3,1.05-.57,1.51-.22.39-.49.74-.81,1.06-.79.79-1.84,1.32-3.02,1.43-.17.02-.34.03-.51.03H51.38c-2.76,0-5-2.23-5-5s2.24-5,5-5h85.16L47.85,54.92c-1.96-1.95-1.96-5.12,0-7.07,1.95-1.95,5.12-1.95,7.07,0l88.69,88.69V51.39c0-2.77,2.24-5,5-5s5,2.23,5,5Z"/>
</svg>