<?xml version="1.0" encoding="UTF-8"?>
<svg id="icons" xmlns="http://www.w3.org/2000/svg" viewBox="0 0 200 200">
  <defs>
    <style>
      .cls-1 {
        fill: #231f20;
      }
    </style>
  </defs>
  <path class="cls-1" d="m175.06,21.17h-28.49v-8.67c0-2.76-2.24-5-5-5s-5,2.24-5,5v8.67H63.44v-8.67c0-2.76-2.24-5-5-5s-5,2.24-5,5v8.67h-28.5c-7.2,0-13.07,5.87-13.07,13.07v131.52c0,7.2,5.87,13.07,13.07,13.07h150.12c7.21,0,13.07-5.87,13.07-13.07V34.24c0-7.2-5.86-13.07-13.07-13.07Zm3.07,144.59c0,1.69-1.37,3.07-3.07,3.07H24.94c-1.69,0-3.07-1.38-3.07-3.07v-96.19h156.26v96.19Zm0-106.19H21.87v-25.33c0-1.69,1.38-3.07,3.07-3.07h28.5v8.68c0,2.76,2.24,5,5,5s5-2.24,5-5v-8.68h73.13v8.68c0,2.76,2.24,5,5,5s5-2.24,5-5v-8.68h28.49c1.7,0,3.07,1.38,3.07,3.07v25.33Z"/>
  <rect class="cls-1" x="37.95" y="88.14" width="22.36" height="22.36" rx="4.5" ry="4.5"/>
  <rect class="cls-1" x="37.95" y="128.24" width="22.36" height="22.36" rx="4.5" ry="4.5"/>
  <rect class="cls-1" x="72.19" y="88.14" width="22.36" height="22.36" rx="4.5" ry="4.5"/>
  <rect class="cls-1" x="105.52" y="88.14" width="22.36" height="22.36" rx="4.5" ry="4.5"/>
  <rect class="cls-1" x="139.69" y="88.14" width="22.36" height="22.36" rx="4.5" ry="4.5"/>
  <rect class="cls-1" x="72.19" y="128.24" width="22.36" height="22.36" rx="4.5" ry="4.5"/>
  <rect class="cls-1" x="105.52" y="128.24" width="22.36" height="22.36" rx="4.5" ry="4.5"/>
  <rect class="cls-1" x="139.69" y="128.24" width="22.36" height="22.36" rx="4.5" ry="4.5"/>
</svg>