<?xml version="1.0" encoding="UTF-8"?>
<svg id="icons" xmlns="http://www.w3.org/2000/svg" viewBox="0 0 200 200">
  <defs>
    <style>
      .cls-1 {
        fill: #231f20;
      }
    </style>
  </defs>
  <path class="cls-1" d="m175.06,21.17h-28.5v-8.91c0-2.76-2.23-5-5-5s-5,2.24-5,5v8.91H63.43v-8.91c0-2.76-2.23-5-5-5s-5,2.24-5,5v8.91h-28.49c-7.21,0-13.07,5.87-13.07,13.07v131.52c0,7.2,5.86,13.07,13.07,13.07h150.12c7.21,0,13.07-5.87,13.07-13.07V34.24c0-7.2-5.86-13.07-13.07-13.07Zm3.07,144.59c0,1.69-1.38,3.07-3.07,3.07H24.94c-1.69,0-3.07-1.38-3.07-3.07v-96.19h156.26v96.19Zm0-106.19H21.87v-25.33c0-1.69,1.38-3.07,3.07-3.07h28.49v8.92c0,2.76,2.24,5,5,5s5-2.24,5-5v-8.92h73.13v8.92c0,2.76,2.24,5,5,5s5-2.24,5-5v-8.92h28.5c1.69,0,3.07,1.38,3.07,3.07v25.33Z"/>
  <rect class="cls-1" x="38.81" y="84.67" width="27.3" height="27.3" rx="6" ry="6"/>
  <rect class="cls-1" x="86.35" y="84.67" width="27.3" height="27.3" rx="6" ry="6"/>
  <rect class="cls-1" x="133.89" y="84.67" width="27.3" height="27.3" rx="6" ry="6"/>
  <rect class="cls-1" x="38.81" y="126.78" width="27.3" height="27.3" rx="6" ry="6"/>
  <rect class="cls-1" x="86.35" y="126.78" width="27.3" height="27.3" rx="6" ry="6"/>
  <rect class="cls-1" x="133.89" y="126.78" width="27.3" height="27.3" rx="6" ry="6"/>
</svg>