<?xml version="1.0" encoding="UTF-8"?>
<svg id="icons" xmlns="http://www.w3.org/2000/svg" viewBox="0 0 200 200">
  <defs>
    <style>
      .cls-1 {
        fill: #231f20;
      }
    </style>
  </defs>
  <path class="cls-1" d="m175.06,21.17h-28.5v-8.91c0-2.76-2.23-5-5-5s-5,2.24-5,5v8.91H63.43v-8.91c0-2.76-2.23-5-5-5s-5,2.24-5,5v8.91h-28.49c-7.21,0-13.07,5.87-13.07,13.07v131.52c0,7.2,5.86,13.07,13.07,13.07h150.12c7.21,0,13.07-5.87,13.07-13.07V34.24c0-7.2-5.86-13.07-13.07-13.07ZM53.43,168.83h-28.49c-1.69,0-3.07-1.38-3.07-3.07v-23.33h31.56v26.4Zm0-36.4h-31.56v-26.43h31.56v26.43Zm0-36.43h-31.56v-26.43h31.56v26.43Zm41.57,72.83h-31.57v-26.4h31.57v26.4Zm0-36.4h-31.57v-26.43h31.57v26.43Zm0-36.43h-31.57v-26.43h31.57v26.43Zm10,72.83v-26.4h31.56v26.4h-31.56Zm31.56-72.83h-31.56v-26.43h31.56v26.43Zm0,10v26.43h-31.56v-26.43h31.56Zm41.57,59.76c0,1.69-1.38,3.07-3.07,3.07h-28.5v-26.4h31.57v23.33Zm0-33.33h-31.57v-26.43h31.57v26.43Zm0-36.43h-31.57v-26.43h31.57v26.43Zm0-36.43H21.87v-25.33c0-1.69,1.38-3.07,3.07-3.07h28.49v8.92c0,2.76,2.24,5,5,5s5-2.24,5-5v-8.92h73.13v8.92c0,2.76,2.24,5,5,5s5-2.24,5-5v-8.92h28.5c1.69,0,3.07,1.38,3.07,3.07v25.33Z"/>
</svg>