<?xml version="1.0" encoding="UTF-8"?>
<svg id="icons" xmlns="http://www.w3.org/2000/svg" viewBox="0 0 200 200">
  <defs>
    <style>
      .cls-1 {
        fill: #231f20;
      }
    </style>
  </defs>
  <path class="cls-1" d="m165.2,60.62h-28.22l-8.69-23.11c-.73-1.95-2.59-3.24-4.68-3.24h-48.01c-2.08,0-3.95,1.29-4.68,3.24l-6.07,16.14,7.77,7.77,6.44-17.15h41.09l8.69,23.11c.73,1.95,2.6,3.24,4.68,3.24h31.68c1.72,0,3.12,1.4,3.12,3.12v76.01c0,1.72-1.4,3.12-3.12,3.12h-1.12l8.03,8.03c3.72-2.32,6.21-6.45,6.21-11.15v-76.01c0-7.24-5.89-13.12-13.12-13.12Z"/>
  <path class="cls-1" d="m99.61,80.88c-2.33,0-4.6.26-6.78.75l9.43,9.42c9.4,1.19,16.86,8.65,18.04,18.05l9.43,9.42c.49-2.18.75-4.44.75-6.77,0-17.03-13.85-30.87-30.87-30.87Z"/>
  <path class="cls-1" d="m173.75,176.68l-13.81-13.81-69.74-69.74-7.32-7.31h0s-15.49-15.5-15.49-15.5h-.01l-9.69-9.7h-.01l-24.88-24.88s-.03-.03-.04-.05c-1.95-1.91-5.09-1.9-7.03.04-1.95,1.96-1.95,5.12,0,7.07l17.82,17.82h-9.53c-7.23,0-13.12,5.88-13.12,13.12v76.01c0,7.24,5.89,13.12,13.12,13.12h111.78l20.88,20.88c.98.98,2.26,1.47,3.54,1.47s2.55-.49,3.53-1.47c1.95-1.95,1.95-5.12,0-7.07Zm-91.15-77.01l29.08,29.08c-3.41,2.43-7.58,3.86-12.07,3.86-11.51,0-20.87-9.36-20.87-20.86,0-4.5,1.43-8.67,3.86-12.08Zm-48.58,53.2c-1.72,0-3.12-1.4-3.12-3.12v-76.01c0-1.72,1.4-3.12,3.12-3.12h19.53l21.91,21.91c-4.2,5.28-6.72,11.96-6.72,19.22,0,17.02,13.85,30.86,30.87,30.86,7.25,0,13.93-2.51,19.21-6.72l16.98,16.98H34.02Z"/>
</svg>