<?xml version="1.0" encoding="UTF-8"?>
<svg id="icons" xmlns="http://www.w3.org/2000/svg" viewBox="0 0 200 200">
  <defs>
    <style>
      .cls-1 {
        fill: #231f20;
      }
    </style>
  </defs>
  <path class="cls-1" d="m165.59,162.87H34.42c-7.23,0-13.12-5.88-13.12-13.12v-76.02c0-7.23,5.88-13.12,13.12-13.12h28.21l8.69-23.11c.73-1.95,2.6-3.24,4.68-3.24h48.01c2.08,0,3.95,1.29,4.68,3.24l8.69,23.11h28.21c7.23,0,13.12,5.88,13.12,13.12v76.02c0,7.23-5.89,13.12-13.12,13.12ZM34.42,70.61c-1.72,0-3.12,1.4-3.12,3.12v76.02c0,1.72,1.4,3.12,3.12,3.12h131.17c1.72,0,3.12-1.4,3.12-3.12v-76.02c0-1.72-1.4-3.12-3.12-3.12h-31.68c-2.08,0-3.95-1.29-4.68-3.24l-8.69-23.11h-41.09l-8.69,23.11c-.73,1.95-2.6,3.24-4.68,3.24h-31.67Z"/>
  <path class="cls-1" d="m100,142.61c-17.02,0-30.87-13.85-30.87-30.87s13.85-30.87,30.87-30.87,30.87,13.85,30.87,30.87-13.85,30.87-30.87,30.87Zm0-51.73c-11.51,0-20.87,9.36-20.87,20.87s9.36,20.87,20.87,20.87,20.87-9.36,20.87-20.87-9.36-20.87-20.87-20.87Z"/>
</svg>