<?xml version="1.0" encoding="UTF-8"?>
<svg id="icons" xmlns="http://www.w3.org/2000/svg" viewBox="0 0 200 200">
  <defs>
    <style>
      .cls-1 {
        fill: #231f20;
      }
    </style>
  </defs>
  <path class="cls-1" d="m20.62,185.91c-1.41,0-2.77-.53-3.83-1.5-1.26-1.16-1.92-2.8-1.81-4.5l3.07-50.19c-4.1-9.76-6.18-20.21-6.18-31.07C11.87,52.02,51.4,14.09,100,14.09s88.13,37.94,88.13,84.57-39.54,84.57-88.13,84.57c-9.74,0-19.32-1.54-28.48-4.59l-50.08,7.22c-.27.04-.54.06-.81.06Zm49.87-7.63s.04.01.05.02c-.02,0-.04-.01-.05-.02ZM100,24.09c-43.08,0-78.13,33.45-78.13,74.57,0,9.88,1.96,19.36,5.82,28.16l.42.96v1.48s-2.82,45.94-2.82,45.94l45.84-6.61c.9-.13,1.82-.04,2.66.26,8.39,2.9,17.21,4.38,26.21,4.38,43.08,0,78.13-33.45,78.13-74.57S143.08,24.09,100,24.09Z"/>
  <circle class="cls-1" cx="55.6" cy="100" r="9.78"/>
  <circle class="cls-1" cx="100" cy="100" r="9.78"/>
  <circle class="cls-1" cx="141.79" cy="100" r="9.78"/>
</svg>