<?xml version="1.0" encoding="UTF-8"?>
<svg id="icons" xmlns="http://www.w3.org/2000/svg" viewBox="0 0 200 200">
  <defs>
    <style>
      .cls-1 {
        fill: #231f20;
      }
    </style>
  </defs>
  <path class="cls-1" d="m100.39,121.87c-1.28,0-2.56-.49-3.54-1.46l-25.3-25.3c-1.95-1.95-1.95-5.12,0-7.07,1.95-1.95,5.12-1.95,7.07,0l21.77,21.77L181.2,28.99c1.95-1.95,5.12-1.95,7.07,0,1.95,1.95,1.95,5.12,0,7.07l-84.35,84.35c-.98.98-2.26,1.46-3.54,1.46Z"/>
  <path class="cls-1" d="m159.44,180.91H41.35c-12.06,0-21.87-9.81-21.87-21.87V40.96c0-12.06,9.81-21.87,21.87-21.87h92.78c2.76,0,5,2.24,5,5s-2.24,5-5,5H41.35c-6.54,0-11.87,5.32-11.87,11.87v118.08c0,6.54,5.32,11.87,11.87,11.87h118.08c6.54,0,11.87-5.32,11.87-11.87v-59.04c0-2.76,2.24-5,5-5s5,2.24,5,5v59.04c0,12.06-9.81,21.87-21.87,21.87Z"/>
</svg>