<?xml version="1.0" encoding="UTF-8"?>
<svg id="icons" xmlns="http://www.w3.org/2000/svg" viewBox="0 0 200 200">
  <defs>
    <style>
      .cls-1 {
        fill: #231f20;
      }
    </style>
  </defs>
  <path class="cls-1" d="m100,188.26h-.05c-23.58-.01-45.73-9.21-62.4-25.89s-25.83-38.85-25.82-62.42,9.21-45.73,25.89-62.39c16.67-16.65,38.82-25.82,62.37-25.82h.05c12.44,0,24.51,2.58,35.87,7.64,2.52,1.12,3.66,4.08,2.53,6.6-1.12,2.52-4.08,3.65-6.6,2.53-10.07-4.49-20.78-6.77-31.81-6.78h-.05c-20.89,0-40.53,8.13-55.31,22.89-14.79,14.77-22.94,34.42-22.95,55.33s8.12,40.56,22.89,55.35c14.77,14.79,34.42,22.94,55.33,22.95h.05c20.89,0,40.53-8.13,55.31-22.89,14.79-14.77,22.94-34.42,22.95-55.33v-7.66c0-2.76,2.24-5,5-5s5,2.24,5,5v7.66c-.01,23.58-9.21,45.74-25.89,62.4-16.67,16.65-38.82,25.82-62.37,25.82Z"/>
  <path class="cls-1" d="m100,121.78c-1.33,0-2.6-.53-3.54-1.46l-24.98-24.98c-1.95-1.95-1.95-5.12,0-7.07,1.95-1.95,5.12-1.95,7.07,0l21.44,21.44L179.72,29.9c1.95-1.95,5.12-1.95,7.07,0s1.96,5.12,0,7.07l-83.26,83.34c-.94.94-2.21,1.47-3.54,1.47h0Z"/>
</svg>