<?xml version="1.0" encoding="UTF-8"?>
<svg id="icons" xmlns="http://www.w3.org/2000/svg" viewBox="0 0 200 200">
  <defs>
    <style>
      .cls-1 {
        fill: #231f20;
      }
    </style>
  </defs>
  <path class="cls-1" d="m100,188.16c-48.61,0-88.16-39.55-88.16-88.16S51.39,11.84,100,11.84s88.16,39.55,88.16,88.16-39.55,88.16-88.16,88.16Zm0-166.31c-43.1,0-78.16,35.06-78.16,78.16s35.06,78.16,78.16,78.16,78.16-35.06,78.16-78.16S143.1,21.84,100,21.84Z"/>
  <path class="cls-1" d="m81.77,138.42c-1.28,0-2.56-.49-3.54-1.46l-30.38-30.38c-1.95-1.95-1.95-5.12,0-7.07,1.95-1.95,5.12-1.95,7.07,0l26.85,26.85,63.31-63.31c1.95-1.95,5.12-1.95,7.07,0,1.95,1.95,1.95,5.12,0,7.07l-66.84,66.84c-.98.98-2.26,1.46-3.54,1.46Z"/>
</svg>