<?xml version="1.0" encoding="UTF-8"?>
<svg id="icons" xmlns="http://www.w3.org/2000/svg" viewBox="0 0 200 200">
  <defs>
    <style>
      .cls-1 {
        fill: #231f20;
      }
    </style>
  </defs>
  <path class="cls-1" d="m100,11.87C51.41,11.87,11.87,51.4,11.87,100s39.54,88.13,88.13,88.13,88.13-39.53,88.13-88.13S148.6,11.87,100,11.87Zm0,166.26c-43.08,0-78.13-35.05-78.13-78.13S56.92,21.87,100,21.87s78.13,35.05,78.13,78.13-35.05,78.13-78.13,78.13Z"/>
  <path class="cls-1" d="m151.31,122.96c-.84,1.85-2.66,2.95-4.57,2.95-.68,0-1.38-.14-2.04-.43l-36.32-16.26c-2.21,2.01-5.16,3.24-8.38,3.24-6.88,0-12.45-5.58-12.45-12.46,0-5.1,3.06-9.49,7.45-11.41v-52.46c0-2.76,2.24-5,5-5s5,2.24,5,5v52.46c4.39,1.92,7.46,6.31,7.46,11.41v.1l36.32,16.25c2.52,1.13,3.65,4.08,2.53,6.61Z"/>
  <path class="cls-1" d="m97,103.99c.29.22.61.41.96.57-.34-.15-.67-.34-.96-.57Z"/>
</svg>