<?xml version="1.0" encoding="UTF-8"?>
<svg id="icons" xmlns="http://www.w3.org/2000/svg" viewBox="0 0 200 200">
  <defs>
    <style>
      .cls-1 {
        fill: #231f20;
      }
    </style>
  </defs>
  <path class="cls-1" d="m100.4,11.84C51.79,11.84,12.24,51.39,12.24,100s39.55,88.16,88.16,88.16,88.15-39.55,88.15-88.16S149.01,11.84,100.4,11.84Zm0,166.32c-43.1,0-78.16-35.06-78.16-78.16S57.3,21.84,100.4,21.84s78.15,35.06,78.15,78.16-35.06,78.16-78.15,78.16Z"/>
  <path class="cls-1" d="m140.8,133.73c1.95,1.95,1.95,5.11,0,7.07-.98.97-2.26,1.46-3.54,1.46s-2.56-.49-3.53-1.46l-33.72-33.73-33.73,33.73c-.98.97-2.26,1.46-3.54,1.46s-2.56-.49-3.53-1.46c-1.96-1.96-1.96-5.12,0-7.07l33.73-33.73-33.73-33.73c-1.96-1.95-1.96-5.11,0-7.07s5.12-1.95,7.07,0l33.73,33.73,33.72-33.73c1.95-1.95,5.12-1.95,7.07,0,1.95,1.96,1.95,5.12,0,7.07l-33.73,33.73,33.73,33.73Z"/>
</svg>