<?xml version="1.0" encoding="UTF-8"?>
<svg id="icons" xmlns="http://www.w3.org/2000/svg" viewBox="0 0 200 200">
  <defs>
    <style>
      .cls-1 {
        fill: #231f20;
      }
    </style>
  </defs>
  <path class="cls-1" d="m132.26,146.91l-29,24.9c-.12.1-.24.2-.36.28-.11.08-.22.15-.33.22-.16.1-.32.18-.49.26-.11.05-.22.1-.34.14-.01,0-.03.01-.05.02-.13.04-.26.08-.4.12-.13.04-.27.07-.41.09-.29.05-.59.08-.88.08s-.59-.03-.88-.08c-.14-.02-.28-.05-.41-.09-.14-.04-.27-.08-.4-.12-.02-.01-.04-.02-.05-.02-.12-.04-.23-.09-.34-.14-.17-.08-.33-.16-.49-.26-.11-.07-.22-.14-.33-.22-.12-.08-.24-.18-.36-.28l-29-24.9c-2.09-1.8-2.33-4.96-.53-7.06,1.8-2.09,4.96-2.33,7.05-.53l20.74,17.82v-54.05c0-2.76,2.24-5,5-5s5,2.24,5,5v54.05l20.74-17.82c2.1-1.8,5.26-1.56,7.06.53,1.79,2.1,1.55,5.26-.54,7.06Z"/>
  <path class="cls-1" d="m173.91,143.59c-1.12,0-2.24-.37-3.17-1.14-2.13-1.75-2.44-4.9-.69-7.04,5.19-6.32,8.05-14.32,8.05-22.53,0-19.52-15.8-35.41-35.21-35.41-2.85,0-5.68.34-8.41,1.02-2.53.63-5.13-.81-5.94-3.29-7.43-22.53-28.3-37.67-51.93-37.67-30.16,0-54.7,24.67-54.7,54.99,0,14.37,5.48,27.97,15.44,38.29,1.92,1.99,1.86,5.15-.12,7.07-1.99,1.92-5.15,1.86-7.07-.13-11.76-12.19-18.24-28.25-18.24-45.23,0-35.83,29.03-64.99,64.7-64.99,26.48,0,50.03,16.06,59.91,40.39,2.11-.3,4.24-.45,6.38-.45,24.93,0,45.21,20.37,45.21,45.41,0,10.52-3.67,20.77-10.32,28.88-.99,1.2-2.42,1.83-3.87,1.83Z"/>
</svg>