<?xml version="1.0" encoding="UTF-8"?>
<svg id="icons" xmlns="http://www.w3.org/2000/svg" viewBox="0 0 200 200">
  <defs>
    <style>
      .cls-1 {
        fill: #231f20;
      }
    </style>
  </defs>
  <path class="cls-1" d="m172.29,103.54l-68.75,68.75s-.09.07-.14.11c-.19.18-.39.34-.6.49-.44.3-.92.52-1.43.66-.13.05-.26.08-.39.1-.05.01-.11.02-.16.03-.27.05-.54.07-.82.07s-.54-.02-.8-.07c-.06,0-.12-.02-.18-.03-.16-.03-.32-.07-.47-.12-.16-.04-.31-.1-.46-.16s-.3-.13-.44-.21c-.17-.09-.34-.19-.5-.3-.24-.17-.47-.36-.68-.57L27.72,103.54c-1.96-1.96-1.96-5.12,0-7.08s5.12-1.95,7.07,0l60.21,60.22V31.25c0-2.76,2.24-5,5-5s5,2.24,5,5v125.43l60.22-60.22c1.95-1.95,5.12-1.95,7.07,0,1.95,1.96,1.95,5.12,0,7.08Z"/>
</svg>