<?xml version="1.0" encoding="UTF-8"?>
<svg id="icons" xmlns="http://www.w3.org/2000/svg" viewBox="0 0 200 200">
  <defs>
    <style>
      .cls-1 {
        fill: #231f20;
      }
    </style>
  </defs>
  <path class="cls-1" d="m188.03,99.03c-.02-.11-.04-.21-.07-.32-.05-.19-.11-.37-.18-.55-.01-.03-.02-.05-.03-.08-.05-.1-.09-.19-.14-.29-.03-.07-.07-.15-.11-.22-.01-.02-.03-.05-.04-.07-18.01-32.39-51.52-52.5-87.46-52.5S30.56,65.11,12.55,97.5c-.01.02-.03.05-.04.07-.04.07-.08.15-.11.22-.05.09-.09.19-.14.29-.04.1-.08.21-.11.31-.04.11-.07.21-.1.32-.03.1-.05.21-.07.31-.13.65-.13,1.32,0,1.96.02.1.04.21.07.31.03.11.06.21.1.32.1.31.24.61.4.89,18.01,32.38,51.52,52.5,87.45,52.5s69.44-20.12,87.46-52.5c.12-.21.23-.43.32-.66.07-.18.13-.36.18-.55.03-.11.05-.21.07-.32.13-.63.13-1.29,0-1.94Zm-88.03,45.97c-31.42,0-60.82-17.17-77.35-45,16.53-27.83,45.93-45,77.35-45s60.82,17.17,77.35,45c-16.53,27.83-45.92,45-77.35,45Z"/>
  <path class="cls-1" d="m100,131.24c-17.23,0-31.24-14.01-31.24-31.24s14.01-31.24,31.24-31.24,31.24,14.01,31.24,31.24-14.01,31.24-31.24,31.24Zm0-52.48c-11.71,0-21.24,9.53-21.24,21.24s9.53,21.24,21.24,21.24,21.24-9.53,21.24-21.24-9.53-21.24-21.24-21.24Z"/>
</svg>