<?xml version="1.0" encoding="UTF-8"?>
<svg id="icons" xmlns="http://www.w3.org/2000/svg" viewBox="0 0 200 200">
  <defs>
    <style>
      .cls-1 {
        fill: #231f20;
      }
    </style>
  </defs>
  <path class="cls-1" d="m156.43,188.15H43.57c-7.17,0-13-5.83-13-13V24.85c0-7.17,5.83-13,13-13h76.57c1.34,0,2.55.53,3.45,1.38h0s0,0,0,0c0,0,0,0,0,0,.02.02.05.05.07.07l44.3,44.19c.48.48.84,1.03,1.09,1.62.25.59.38,1.24.38,1.92v114.11c0,7.17-5.83,13-13,13ZM43.57,21.85c-1.65,0-3,1.35-3,3v150.3c0,1.65,1.35,3,3,3h112.86c1.65,0,3-1.35,3-3v-109.11h-39.3c-2.76,0-5-2.24-5-5V21.85H43.57Zm81.56,34.19h27.21l-27.21-27.14v27.14Z"/>
  <path class="cls-1" d="m95.35,70.02h-33.91c-2.76,0-5-2.24-5-5s2.24-5,5-5h33.91c2.76,0,5,2.24,5,5s-2.24,5-5,5Z"/>
  <path class="cls-1" d="m137.61,104.92H61.44c-2.76,0-5-2.24-5-5s2.24-5,5-5h76.17c2.76,0,5,2.24,5,5s-2.24,5-5,5Z"/>
  <path class="cls-1" d="m137.61,139.82H61.44c-2.76,0-5-2.24-5-5s2.24-5,5-5h76.17c2.76,0,5,2.24,5,5s-2.24,5-5,5Z"/>
</svg>