<?xml version="1.0" encoding="UTF-8"?>
<svg id="icons" xmlns="http://www.w3.org/2000/svg" viewBox="0 0 200 200">
  <defs>
    <style>
      .cls-1 {
        fill: #231f20;
      }
    </style>
  </defs>
  <path class="cls-1" d="m166,179.69H33.22c-11.91,0-21.6-9.69-21.6-21.6V41.91c0-11.91,9.69-21.6,21.6-21.6h41.49c1.67,0,3.23.84,4.16,2.23l15.11,22.67h72.01c11.91,0,21.6,9.69,21.6,21.6v91.29c0,11.91-9.69,21.6-21.6,21.6ZM33.22,30.31c-6.39,0-11.6,5.2-11.6,11.6v116.18c0,6.39,5.2,11.6,11.6,11.6h132.78c6.39,0,11.6-5.2,11.6-11.6v-91.29c0-6.39-5.2-11.6-11.6-11.6h-74.69c-1.67,0-3.23-.84-4.16-2.23l-15.11-22.67h-38.82Z"/>
  <path class="cls-1" d="m137.69,117.3H61.52c-2.76,0-5-2.24-5-5s2.24-5,5-5h76.17c2.76,0,5,2.24,5,5s-2.24,5-5,5Z"/>
</svg>