<?xml version="1.0" encoding="UTF-8"?>
<svg id="icons" xmlns="http://www.w3.org/2000/svg" viewBox="0 0 200 200">
  <defs>
    <style>
      .cls-1 {
        fill: #231f20;
      }
    </style>
  </defs>
  <path class="cls-1" d="m187.24,88.93c-.93-1.4-2.5-2.25-4.18-2.25H46.92c-1.99,0-3.8,1.18-4.59,3.01l-20.38,47.15V52.09c0-4.75,3.86-8.61,8.61-8.61h31.36l12.13,18.19c.93,1.4,2.49,2.23,4.16,2.23h61.26c4.75,0,8.62,3.86,8.62,8.61v1.66c0,2.76,2.23,5,5,5s5-2.24,5-5v-1.66c0-10.26-8.35-18.61-18.62-18.61h-58.58l-12.13-18.19c-.93-1.39-2.49-2.23-4.16-2.23H30.56c-10.26,0-18.61,8.35-18.61,18.61v108.91c0,.17.01.34.03.51.01.13.03.25.05.37.01.07.02.13.04.19.03.16.08.32.13.48.03.11.07.23.12.34.01.03.03.07.05.11.04.1.09.2.14.3.02.04.04.09.07.13.07.13.15.25.23.37.09.14.18.26.29.38.07.09.14.17.23.25.03.06.08.11.15.16.07.07.14.14.21.2.09.08.18.15.28.22.04.03.08.06.12.09.15.11.31.21.48.3h.01c.17.1.35.18.53.25.02.01.04.02.06.02.16.06.32.11.48.16.04.01.09.02.14.03.13.04.27.06.41.08.24.04.5.06.75.06h136.14c1.99,0,3.79-1.18,4.59-3.01l29.97-69.33c.67-1.54.51-3.32-.41-4.73Zm-37.44,67.07H24.56l25.65-59.32h125.24l-25.65,59.32Z"/>
  <path class="cls-1" d="m12.77,163.75s.02.04.04.05c-.08-.12-.16-.24-.23-.37.06.11.12.22.19.32Z"/>
</svg>