<?xml version="1.0" encoding="UTF-8"?>
<svg id="icons" xmlns="http://www.w3.org/2000/svg" viewBox="0 0 200 200">
  <defs>
    <style>
      .cls-1 {
        fill: #231f20;
      }
    </style>
  </defs>
  <path class="cls-1" d="m159.38,171.8H40.62c-10.94,0-19.85-8.9-19.85-19.84V48.04c0-10.94,8.9-19.84,19.85-19.84h37.11c1.67,0,3.23.84,4.16,2.23l13.36,20.04h64.13c10.94,0,19.84,8.9,19.84,19.84v81.65c0,10.94-8.9,19.84-19.84,19.84ZM40.62,38.2c-5.43,0-9.85,4.42-9.85,9.84v103.92c0,5.43,4.42,9.84,9.85,9.84h118.76c5.43,0,9.84-4.42,9.84-9.84v-81.65c0-5.43-4.42-9.84-9.84-9.84h-66.8c-1.67,0-3.23-.84-4.16-2.23l-13.36-20.04h-34.44Z"/>
</svg>