<?xml version="1.0" encoding="UTF-8"?>
<svg id="icons" xmlns="http://www.w3.org/2000/svg" viewBox="0 0 200 200">
  <defs>
    <style>
      .cls-1 {
        fill: #231f20;
      }
    </style>
  </defs>
  <path class="cls-1" d="m100,177.69c-1.33,0-2.6-.53-3.54-1.46L26.15,105.91c-19.01-19.01-19.01-49.94,0-68.95s49.94-19.01,68.95,0l4.9,4.9,4.9-4.9s.03-.03.04-.04c19.02-18.97,49.92-18.96,68.91.04h.01c19,19.02,19,49.95-.01,68.95l-70.31,70.31c-.94.94-2.21,1.46-3.54,1.46ZM60.63,32.69c-9.93,0-19.85,3.78-27.41,11.33-15.11,15.11-15.11,39.7,0,54.81l66.78,66.78,66.78-66.78c15.11-15.1,15.12-39.69.01-54.8h-.01c-15.1-15.13-39.69-15.13-54.79-.03-.01.01-.03.03-.04.04l-8.41,8.41c-.94.94-2.21,1.46-3.54,1.46h0c-1.33,0-2.6-.53-3.54-1.46l-8.43-8.43c-7.55-7.55-17.48-11.33-27.41-11.33Z"/>
</svg>