<?xml version="1.0" encoding="UTF-8"?>
<svg id="icons" xmlns="http://www.w3.org/2000/svg" viewBox="0 0 200 200">
  <defs>
    <style>
      .cls-1 {
        fill: #231f20;
      }
    </style>
  </defs>
  <path class="cls-1" d="m152.52,181.86h-22.36c-6.73,0-12.2-5.36-12.2-11.95v-20.41c-.02-.17-.03-.34-.03-.52,0-9.89-8.04-17.93-17.93-17.93s-17.39,7.52-17.9,16.95v21.9c0,6.59-5.47,11.95-12.19,11.95h-22.32c-6.72,0-12.19-5.36-12.19-11.95v-66.73h-7.61c-7.01,0-12.96-4.31-15.15-10.97-2.19-6.66.05-13.66,5.7-17.81L90.55,21.24c5.65-4.16,13.25-4.16,18.9,0l72.21,53.16c5.65,4.16,7.88,11.15,5.7,17.81-2.19,6.66-8.13,10.97-15.15,10.97h-7.48v66.73c0,6.59-5.48,11.95-12.21,11.95Zm-24.69-35.2c.08.35.12.72.12,1.1v22.14c0,1.08.99,1.95,2.2,1.95h22.36c1.22,0,2.21-.88,2.21-1.95v-71.73c0-2.76,2.24-5,5-5h12.48c3.99,0,5.33-3.13,5.65-4.09.32-.96,1.09-4.27-2.12-6.64L103.52,29.3c-2.11-1.55-4.94-1.55-7.05,0L24.27,82.45c-3.22,2.37-2.44,5.68-2.12,6.64.31.96,1.65,4.09,5.65,4.09h12.61c2.76,0,5,2.24,5,5v71.73c0,1.08.98,1.95,2.19,1.95h22.32c1.21,0,2.19-.88,2.19-1.95v-20.41c-.02-.17-.03-.34-.03-.52,0-.39,0-.78.02-1.17v-.16c0-.14.01-.28.03-.42.91-14.59,13.06-26.18,27.88-26.18s26.65,11.29,27.84,25.61Z"/>
</svg>