<?xml version="1.0" encoding="UTF-8"?>
<svg id="icons" xmlns="http://www.w3.org/2000/svg" viewBox="0 0 200 200">
  <defs>
    <style>
      .cls-1 {
        fill: #231f20;
      }
    </style>
  </defs>
  <path class="cls-1" d="m183.64,131.66c-.17-.02-.34-.03-.51-.03h-9.36V52.29c0-8.09-6.09-14.66-13.58-14.66H39.84c-7.48,0-13.57,6.57-13.57,14.66v79.34h-9.34c-.17,0-.34.01-.51.03-2.56.21-4.56,2.36-4.56,4.97,0,14.19,11.55,25.74,25.74,25.74h124.84c14.19,0,25.74-11.55,25.74-25.74,0-2.6-1.99-4.75-4.54-4.97ZM36.27,52.29c0-2.53,1.64-4.66,3.57-4.66h120.35c1.94,0,3.58,2.13,3.58,4.66v79.34H36.27V52.29Zm126.17,100.08H37.6c-6.93,0-12.83-4.5-14.92-10.74h154.68c-2.09,6.24-7.99,10.74-14.92,10.74Z"/>
</svg>