<?xml version="1.0" encoding="UTF-8"?>
<svg id="icons" xmlns="http://www.w3.org/2000/svg" viewBox="0 0 200 200">
  <defs>
    <style>
      .cls-1 {
        fill: #231f20;
      }
    </style>
  </defs>
  <path class="cls-1" d="m61.36,178.55c-10.25,0-20.49-3.9-28.29-11.7-7.56-7.56-11.72-17.61-11.72-28.29,0-10.69,4.16-20.74,11.72-28.29l24.65-24.65c7.56-7.56,17.61-11.72,28.29-11.72s20.74,4.16,28.29,11.72c3.6,3.6,6.44,7.77,8.44,12.41,1.1,2.53-.07,5.48-2.61,6.57-2.53,1.1-5.48-.07-6.57-2.61-1.5-3.47-3.63-6.6-6.33-9.3-5.67-5.67-13.21-8.79-21.22-8.79s-15.55,3.12-21.22,8.79l-24.65,24.65c-11.7,11.7-11.7,30.74,0,42.45,11.7,11.7,30.75,11.7,42.45,0l24.65-24.65c1.95-1.95,5.12-1.95,7.07,0,1.95,1.95,1.95,5.12,0,7.07l-24.65,24.65c-7.8,7.8-18.05,11.7-28.29,11.7Z"/>
  <path class="cls-1" d="m113.89,126.03c-10.25,0-20.49-3.9-28.29-11.7-3.79-3.79-6.73-8.2-8.74-13.13-1.04-2.56.18-5.48,2.73-6.52,2.56-1.04,5.48.18,6.52,2.73,1.51,3.69,3.71,7,6.56,9.84,11.7,11.7,30.74,11.7,42.45,0l24.75-24.75c11.7-11.7,11.7-30.75,0-42.45-11.7-11.7-30.74-11.7-42.45,0l-24.75,24.75c-1.95,1.95-5.12,1.95-7.07,0-1.95-1.95-1.95-5.12,0-7.07l24.75-24.75c15.6-15.6,40.99-15.6,56.59,0,15.6,15.6,15.6,40.99,0,56.59l-24.75,24.75c-7.8,7.8-18.05,11.7-28.29,11.7Z"/>
</svg>