<?xml version="1.0" encoding="UTF-8"?>
<svg id="icons" xmlns="http://www.w3.org/2000/svg" viewBox="0 0 200 200">
  <defs>
    <style>
      .cls-1 {
        fill: #231f20;
      }
    </style>
  </defs>
  <path class="cls-1" d="m137.69,103.89H61.52c-2.76,0-5-2.24-5-5s2.24-5,5-5h76.17c2.76,0,5,2.24,5,5s-2.24,5-5,5Z"/>
  <path class="cls-1" d="m145.2,141.28h-28.92c-2.76,0-5-2.24-5-5s2.24-5,5-5h28.92c17.86,0,32.39-14.53,32.39-32.39s-14.53-32.39-32.39-32.39h-28.92c-2.76,0-5-2.24-5-5s2.24-5,5-5h28.92c23.37,0,42.39,19.02,42.39,42.39s-19.02,42.39-42.39,42.39Z"/>
  <path class="cls-1" d="m82.93,141.28h-28.92c-23.38,0-42.39-19.02-42.39-42.39s19.02-42.39,42.39-42.39h28.92c2.76,0,5,2.24,5,5s-2.24,5-5,5h-28.92c-17.86,0-32.39,14.53-32.39,32.39s14.53,32.39,32.39,32.39h28.92c2.76,0,5,2.24,5,5s-2.24,5-5,5Z"/>
</svg>