<?xml version="1.0" encoding="UTF-8"?>
<svg id="icons" xmlns="http://www.w3.org/2000/svg" viewBox="0 0 200 200">
  <defs>
    <style>
      .cls-1 {
        fill: #231f20;
      }
    </style>
  </defs>
  <path class="cls-1" d="m149.93,77h-13.22v-18.97c0-20.34-16.47-36.89-36.7-36.89s-36.71,16.55-36.71,36.89v18.97h-13.22c-7.23,0-13.12,5.88-13.12,13.12v66.03c0,7.23,5.89,13.12,13.12,13.12h99.85c7.23,0,13.12-5.89,13.12-13.12v-66.03c0-7.24-5.89-13.12-13.12-13.12Zm-76.63-18.97c0-14.83,11.98-26.89,26.71-26.89s26.7,12.06,26.7,26.89v18.97h-53.41v-18.97Zm79.75,98.12c0,1.72-1.4,3.12-3.12,3.12H50.08c-1.72,0-3.12-1.4-3.12-3.12v-66.03c0-1.72,1.4-3.12,3.12-3.12h99.85c1.72,0,3.12,1.4,3.12,3.12v66.03Z"/>
  <path class="cls-1" d="m100,147.36c-2.76,0-5-2.24-5-5v-16.46c0-2.76,2.24-5,5-5s5,2.24,5,5v16.46c0,2.76-2.24,5-5,5Z"/>
</svg>