<?xml version="1.0" encoding="UTF-8"?>
<svg id="icons" xmlns="http://www.w3.org/2000/svg" viewBox="0 0 200 200">
  <defs>
    <style>
      .cls-1 {
        fill: #231f20;
      }
    </style>
  </defs>
  <path class="cls-1" d="m175.06,35.39H24.94c-7.2,0-13.07,5.86-13.07,13.07v103.08c0,7.21,5.87,13.07,13.07,13.07h150.12c7.21,0,13.07-5.86,13.07-13.07V48.46c0-7.21-5.86-13.07-13.07-13.07ZM21.87,48.46c0-1.69,1.38-3.07,3.07-3.07h150.12c1.7,0,3.07,1.38,3.07,3.07v16.17l-69.62,48.97c-5.09,3.58-11.92,3.58-17.01,0L21.87,64.62v-16.16Zm156.26,103.08c0,1.69-1.37,3.07-3.07,3.07H24.94c-1.69,0-3.07-1.38-3.07-3.07v-74.69l63.88,44.93c4.26,3,9.26,4.5,14.25,4.5s10-1.5,14.26-4.5l63.87-44.93v74.69Z"/>
</svg>