<?xml version="1.0" encoding="UTF-8"?>
<svg id="icons" xmlns="http://www.w3.org/2000/svg" viewBox="0 0 200 200">
  <defs>
    <style>
      .cls-1 {
        fill: #231f20;
      }
    </style>
  </defs>
  <path class="cls-1" d="m99.61,188.16c-48.61,0-88.16-39.55-88.16-88.16S51,11.84,99.61,11.84s88.16,39.55,88.16,88.16-39.55,88.16-88.16,88.16Zm0-166.31c-43.1,0-78.16,35.06-78.16,78.16s35.06,78.16,78.16,78.16,78.16-35.06,78.16-78.16S142.7,21.84,99.61,21.84Z"/>
  <path class="cls-1" d="m150.26,105H48.95c-2.76,0-5-2.24-5-5s2.24-5,5-5h101.3c2.76,0,5,2.24,5,5s-2.24,5-5,5Z"/>
</svg>