<?xml version="1.0" encoding="UTF-8"?>
<svg id="icons" xmlns="http://www.w3.org/2000/svg" viewBox="0 0 200 200">
  <defs>
    <style>
      .cls-1 {
        fill: #231f20;
      }
    </style>
  </defs>
  <path class="cls-1" d="m138.48,178.52H60.56c-7.17,0-13-5.83-13-13V34.48c0-7.17,5.83-13,13-13h77.91c7.17,0,13,5.83,13,13v131.04c0,7.17-5.83,13-13,13ZM60.56,31.48c-1.65,0-3,1.35-3,3v131.04c0,1.65,1.35,3,3,3h77.91c1.65,0,3-1.35,3-3V34.48c0-1.65-1.35-3-3-3H60.56Z"/>
  <circle class="cls-1" cx="100" cy="145.74" r="9.35"/>
</svg>