<?xml version="1.0" encoding="UTF-8"?>
<svg id="icons" xmlns="http://www.w3.org/2000/svg" viewBox="0 0 200 200">
  <defs>
    <style>
      .cls-1 {
        fill: #231f20;
      }
    </style>
  </defs>
  <path class="cls-1" d="m174.83,21.34H25.18c-7.17,0-13,5.84-13,13v94.48c0,7.17,5.83,13,13,13h69.82v26.93h-26.17c-2.76,0-5,2.24-5,5s2.24,5,5,5h62.35c2.76,0,5-2.24,5-5s-2.24-5-5-5h-26.18v-26.93h69.83c7.17,0,13-5.83,13-13V34.34c0-7.16-5.83-13-13-13Zm3,107.48c0,1.66-1.34,3-3,3H25.18c-1.66,0-3-1.34-3-3V34.34c0-1.65,1.34-3,3-3h149.65c1.66,0,3,1.35,3,3v94.48Z"/>
</svg>