<?xml version="1.0" encoding="UTF-8"?>
<svg id="icons" xmlns="http://www.w3.org/2000/svg" viewBox="0 0 200 200">
  <defs>
    <style>
      .cls-1 {
        fill: #231f20;
      }
    </style>
  </defs>
  <path class="cls-1" d="m100,11.84C51.39,11.84,11.84,51.39,11.84,100s39.55,88.16,88.16,88.16,88.16-39.55,88.16-88.16S148.61,11.84,100,11.84Zm0,166.32c-43.09,0-78.16-35.06-78.16-78.16S56.91,21.84,100,21.84s78.16,35.06,78.16,78.16-35.06,78.16-78.16,78.16Z"/>
  <path class="cls-1" d="m155.65,100c0,2.76-2.23,5-5,5h-45.65v45.65c0,2.76-2.24,5-5,5s-5-2.24-5-5v-45.65h-45.65c-2.76,0-5-2.24-5-5s2.24-5,5-5h45.65v-45.65c0-2.76,2.24-5,5-5s5,2.24,5,5v45.65h45.65c2.77,0,5,2.24,5,5Z"/>
</svg>