<?xml version="1.0" encoding="UTF-8"?>
<svg id="icons" xmlns="http://www.w3.org/2000/svg" viewBox="0 0 200 200">
  <defs>
    <style>
      .cls-1 {
        fill: #231f20;
      }
    </style>
  </defs>
  <path class="cls-1" d="m165.87,82.04c-2.6.92-5.46-.45-6.38-3.05-5.62-15.88-17.09-28.62-32.29-35.87s-32.31-8.16-48.19-2.54c-8.81,3.12-16.96,8.26-23.57,14.87-.03.04-.07.07-.11.11l-25.89,24.33h32.75c2.76,0,5,2.23,5,5s-2.24,5-5,5H16.82c-.3,0-.59-.03-.87-.08-.11-.02-.22-.04-.33-.07-.1-.02-.19-.05-.29-.08-.06-.02-.12-.04-.18-.06-.24-.08-.48-.19-.71-.31-.28-.15-.55-.34-.8-.55-.07-.05-.14-.11-.21-.19-.09-.07-.17-.15-.25-.24-.1-.11-.2-.22-.3-.34,0-.03-.04-.06-.05-.08-.09-.11-.17-.23-.24-.35-.09-.12-.16-.26-.23-.39-.01-.02-.01-.04-.03-.05-.06-.13-.11-.26-.17-.4-.11-.29-.19-.59-.25-.89-.02-.15-.05-.31-.06-.46-.02-.15-.03-.3-.03-.46v-45.38c0-2.76,2.24-5,5-5s5,2.24,5,5v33.82l26.61-25.01c7.64-7.63,17.06-13.56,27.24-17.17,18.4-6.51,38.23-5.46,55.84,2.94,17.61,8.41,30.9,23.17,37.41,41.57.92,2.6-.45,5.46-3.05,6.38Z"/>
  <path class="cls-1" d="m11.91,85.81c.06.3.14.6.25.89-.11-.29-.2-.58-.25-.89Z"/>
  <path class="cls-1" d="m188.18,115.13v45.37c0,2.77-2.23,5-5,5s-5-2.23-5-5v-33.8l-26.6,24.99c-13.79,13.77-32.11,21.35-51.6,21.36h-.02c-19.51,0-37.85-7.59-51.65-21.39-7.65-7.65-13.61-17.09-17.22-27.3-.92-2.6.44-5.46,3.04-6.38,2.61-.92,5.46.44,6.39,3.05,3.11,8.81,8.25,16.96,14.86,23.56,11.91,11.9,27.74,18.46,44.58,18.46h.02c16.84-.01,32.67-6.57,44.58-18.48.04-.04.08-.07.11-.11l25.89-24.33h-32.75c-2.76,0-5-2.24-5-5s2.24-5,5-5h45.37c.16,0,.33.01.5.03h.01c.33.04.65.1.97.2h.01c.16.05.31.11.47.17.15.07.3.14.45.22.45.25.87.57,1.24.96.06.06.12.13.18.2.01.02.03.04.04.06.08.1.16.2.23.3.02.03.05.06.07.1.08.11.15.23.22.36.01.01.01.03.02.04.06.12.12.25.18.37.01.02.02.05.03.07.04.09.07.18.1.27.04.09.07.19.09.28.04.13.07.26.09.38.03.16.06.32.07.48.02.17.03.34.03.51Z"/>
  <path class="cls-1" d="m183.69,110.16c.33.03.66.1.97.2-.32-.1-.64-.16-.97-.2Z"/>
</svg>