<?xml version="1.0" encoding="UTF-8"?>
<svg id="icons" xmlns="http://www.w3.org/2000/svg" viewBox="0 0 200 200">
  <defs>
    <style>
      .cls-1 {
        fill: #231f20;
      }
    </style>
  </defs>
  <path class="cls-1" d="m188.18,39.51v45.38c0,.17-.01.34-.03.51-.01.16-.04.32-.07.48-.02.12-.05.25-.09.38-.02.09-.05.19-.09.28-.03.09-.06.18-.1.27-.01.02-.02.05-.03.07-.06.12-.12.25-.18.37-.09.17-.19.34-.31.5-.07.1-.15.2-.23.3-.06.09-.14.18-.22.26-.37.39-.79.71-1.24.96-.24.13-.49.24-.74.33-.06.02-.12.04-.18.06-.1.03-.19.06-.29.08-.11.03-.22.05-.33.07-.28.05-.57.08-.87.08h-45.37c-2.76,0-5-2.24-5-5s2.24-5,5-5h32.75l-25.89-24.33s-.07-.07-.11-.11c-6.61-6.61-14.76-11.75-23.56-14.87-15.88-5.62-33-4.72-48.2,2.54-15.2,7.25-26.67,19.99-32.28,35.87-.93,2.6-3.78,3.97-6.39,3.05-2.6-.92-3.96-3.78-3.04-6.38,6.51-18.4,19.79-33.16,37.4-41.57,17.62-8.4,37.45-9.45,55.84-2.94,10.18,3.61,19.6,9.54,27.25,17.17l26.6,25v-33.81c0-2.76,2.24-5,5-5s5,2.24,5,5Z"/>
  <path class="cls-1" d="m168.92,124.36c-3.62,10.21-9.57,19.65-17.23,27.3-13.8,13.79-32.14,21.39-51.65,21.39h-.01c-19.49-.01-37.81-7.59-51.6-21.36l-26.61-25v33.81c0,2.77-2.24,5-5,5s-5-2.23-5-5v-45.37c0-.16.01-.31.03-.46.01-.07.01-.15.03-.23.01-.08.02-.16.03-.23.06-.3.14-.6.25-.89.04-.12.1-.23.15-.35,0-.01,0-.03.02-.04.01-.02.02-.04.03-.06.07-.13.14-.27.23-.39.07-.12.15-.24.24-.35.01-.02.04-.05.05-.08.1-.12.2-.23.3-.34.08-.09.16-.17.25-.24.07-.08.14-.14.21-.19.25-.21.52-.39.8-.55.29-.15.59-.27.89-.37h.01c.32-.1.64-.16.97-.2h0c.17-.02.34-.03.5-.03h45.37c2.76,0,5,2.24,5,5s-2.24,5-5,5H29.44l25.89,24.33s.08.07.11.11c11.91,11.91,27.74,18.47,44.59,18.48h.01c16.84,0,32.67-6.56,44.58-18.46,6.61-6.6,11.75-14.75,14.87-23.56.92-2.61,3.78-3.97,6.38-3.05s3.97,3.78,3.05,6.38Z"/>
  <path class="cls-1" d="m11.91,114.21c.05-.31.14-.6.25-.89-.11.29-.19.59-.25.89Z"/>
  <path class="cls-1" d="m14.44,110.73c.28-.15.58-.28.89-.37-.3.1-.6.22-.89.37Z"/>
  <path class="cls-1" d="m16.31,110.16c-.33.04-.65.1-.97.2.31-.1.64-.17.97-.2Z"/>
</svg>