<?xml version="1.0" encoding="UTF-8"?>
<svg id="icons" xmlns="http://www.w3.org/2000/svg" viewBox="0 0 200 200">
  <defs>
    <style>
      .cls-1 {
        fill: #231f20;
      }
    </style>
  </defs>
  <path class="cls-1" d="m185.51,177.44l-46.12-46.12c10.96-12.72,17.59-29.25,17.59-47.32,0-40.03-32.57-72.59-72.6-72.59S11.79,43.97,11.79,84s32.56,72.6,72.59,72.6c18.38,0,35.18-6.86,47.98-18.17l46.08,46.08c.98.98,2.26,1.47,3.54,1.47s2.56-.49,3.53-1.47c1.96-1.95,1.96-5.11,0-7.07ZM21.79,84c0-34.51,28.08-62.59,62.59-62.59s62.6,28.08,62.6,62.59c0,16.71-6.58,31.9-17.28,43.14-.52.55-1.05,1.08-1.59,1.6-11.29,11.05-26.73,17.86-43.73,17.86-34.51,0-62.59-28.08-62.59-62.6Z"/>
  <path class="cls-1" d="m129.7,127.14c-.52.55-1.05,1.08-1.59,1.6.2-.33.44-.63.72-.91.27-.27.56-.5.87-.69Z"/>
</svg>