<?xml version="1.0" encoding="UTF-8"?>
<svg id="icons" xmlns="http://www.w3.org/2000/svg" viewBox="0 0 200 200">
  <defs>
    <style>
      .cls-1 {
        fill: #231f20;
      }
    </style>
  </defs>
  <path class="cls-1" d="m100,131.94c-17.6,0-31.93-14.25-31.93-31.77s14.32-31.77,31.93-31.77,31.93,14.25,31.93,31.77-14.32,31.77-31.93,31.77Zm0-53.53c-12.09,0-21.93,9.76-21.93,21.77s9.84,21.77,21.93,21.77,21.93-9.76,21.93-21.77-9.84-21.77-21.93-21.77Z"/>
  <path class="cls-1" d="m100.6,188.13c-5.37,0-10.42-2.09-14.22-5.89-3.8-3.8-5.89-8.85-5.89-14.22v-.62c-.04-1.48-.52-2.91-1.39-4.12-.88-1.22-2.08-2.14-3.5-2.66-.1-.04-.2-.08-.29-.12-1.37-.61-2.87-.78-4.35-.52-1.47.27-2.82.96-3.89,2.01l-.41.41c-1.88,1.88-4.07,3.35-6.53,4.37-4.9,2.04-10.5,2.04-15.41,0-2.45-1.02-4.65-2.48-6.53-4.36-1.88-1.87-3.35-4.07-4.36-6.53-1.02-2.45-1.53-5.04-1.53-7.7s.52-5.25,1.53-7.7c1.02-2.45,2.49-4.65,4.37-6.53l.45-.45c1.01-1.03,1.71-2.38,1.97-3.85.27-1.47.09-2.98-.52-4.35-.6-1.39-1.54-2.53-2.76-3.33-1.22-.81-2.63-1.23-4.09-1.24h-1.26c-5.37,0-10.42-2.09-14.22-5.89-3.8-3.8-5.89-8.85-5.89-14.22s2.09-10.42,5.89-14.22,8.85-5.89,14.22-5.89h.62c1.49-.04,2.91-.52,4.12-1.39,1.22-.88,2.15-2.08,2.66-3.5.04-.1.08-.2.12-.29.61-1.37.78-2.88.52-4.35-.27-1.48-.96-2.82-2.01-3.89l-.42-.42c-1.88-1.87-3.35-4.07-4.36-6.52-1.02-2.46-1.53-5.05-1.53-7.7s.52-5.25,1.53-7.7c1.02-2.46,2.49-4.65,4.37-6.53,1.87-1.88,4.07-3.34,6.52-4.36,4.91-2.04,10.5-2.03,15.41,0,2.46,1.02,4.65,2.49,6.53,4.37l.45.45c1.03,1.01,2.38,1.71,3.85,1.97,1.47.27,2.98.09,4.35-.52.44-.2.91-.33,1.39-.39,1.02-.58,1.89-1.39,2.55-2.38.81-1.22,1.24-2.63,1.24-4.09v-1.26c0-5.37,2.09-10.42,5.89-14.22,3.8-3.8,8.85-5.89,14.22-5.89s10.42,2.09,14.22,5.89c3.8,3.8,5.89,8.85,5.89,14.22v.68c0,1.44.43,2.86,1.24,4.07.81,1.22,1.94,2.17,3.28,2.74,1.42.63,2.92.81,4.4.54,1.47-.27,2.82-.96,3.89-2.01l.41-.41c1.88-1.88,4.07-3.35,6.53-4.37,4.91-2.04,10.5-2.03,15.41,0,2.46,1.02,4.65,2.49,6.53,4.37,1.88,1.88,3.35,4.07,4.36,6.53,1.02,2.45,1.53,5.04,1.53,7.7s-.52,5.25-1.53,7.7c-1.02,2.45-2.48,4.65-4.37,6.53l-.46.45c-1.01,1.03-1.7,2.38-1.97,3.85-.27,1.47-.09,2.98.52,4.35.2.44.33.91.39,1.39.58,1.02,1.39,1.89,2.38,2.55,1.22.81,2.63,1.24,4.1,1.24h1.26c5.37,0,10.42,2.09,14.22,5.89,3.8,3.8,5.89,8.85,5.89,14.22s-2.09,10.42-5.89,14.22c-3.8,3.8-8.85,5.89-14.22,5.89h-.68c-1.44,0-2.86.44-4.08,1.24-1.22.81-2.16,1.94-2.74,3.29,0,.02-.01.03-.02.05-.61,1.37-.78,2.88-.52,4.35.27,1.47.96,2.82,2.01,3.89l.41.41c1.88,1.88,3.35,4.08,4.37,6.53,1.02,2.45,1.53,5.04,1.53,7.7s-.52,5.25-1.53,7.7c-1.02,2.45-2.48,4.65-4.37,6.53-1.87,1.88-4.07,3.34-6.52,4.36-4.91,2.04-10.5,2.04-15.41,0-2.45-1.02-4.65-2.49-6.53-4.37l-.45-.45c-1.03-1.01-2.38-1.7-3.85-1.97-1.47-.27-2.98-.09-4.35.52-1.39.6-2.53,1.54-3.33,2.76-.81,1.22-1.24,2.63-1.24,4.09v1.26c0,5.37-2.09,10.42-5.89,14.22-3.8,3.8-8.85,5.89-14.22,5.89Zm-21.4-36.84c3.24,1.22,6.01,3.36,8.03,6.18,2.05,2.87,3.17,6.24,3.26,9.76,0,.04,0,.08,0,.12v.68c0,2.7,1.05,5.24,2.96,7.15,1.91,1.91,4.45,2.96,7.15,2.96s5.24-1.05,7.15-2.96c1.91-1.91,2.96-4.45,2.96-7.15v-1.28c.01-3.44,1.02-6.75,2.91-9.6,1.88-2.85,4.54-5.06,7.68-6.41,3.16-1.39,6.67-1.81,10.12-1.19,3.45.62,6.59,2.25,9.1,4.7l.49.49c.94.94,2.05,1.68,3.28,2.2,2.47,1.02,5.28,1.02,7.75,0,1.24-.51,2.34-1.25,3.28-2.2.95-.95,1.69-2.05,2.2-3.29.51-1.24.77-2.54.77-3.88s-.26-2.64-.77-3.87c-.51-1.23-1.25-2.34-2.19-3.28l-.45-.45c-2.49-2.55-4.12-5.69-4.74-9.14-.62-3.44-.21-6.95,1.2-10.15,1.35-3.13,3.56-5.78,6.4-7.66,2.85-1.89,6.16-2.89,9.58-2.9h.7c2.7,0,5.24-1.05,7.15-2.96,1.91-1.91,2.96-4.45,2.96-7.15s-1.05-5.24-2.96-7.15c-1.91-1.91-4.45-2.96-7.15-2.96h-1.29c-3.44-.01-6.75-1.02-9.6-2.9s-5.07-4.54-6.41-7.68c-.21-.5-.34-1.03-.39-1.57-1.08-2.93-1.36-6.07-.8-9.16.62-3.45,2.25-6.59,4.7-9.1l.5-.5c.95-.94,1.68-2.05,2.19-3.28.51-1.24.77-2.54.77-3.88s-.26-2.64-.77-3.87c-.51-1.23-1.25-2.34-2.2-3.28-.95-.95-2.05-1.69-3.29-2.2-2.47-1.02-5.28-1.02-7.75,0-1.23.51-2.34,1.25-3.28,2.2l-.45.45c-2.55,2.49-5.69,4.12-9.14,4.74-3.45.62-6.96.21-10.17-1.21-3.09-1.32-5.75-3.54-7.63-6.39-1.89-2.85-2.89-6.16-2.9-9.58v-.7c0-2.7-1.05-5.24-2.96-7.15s-4.45-2.96-7.15-2.96-5.24,1.05-7.15,2.96c-1.91,1.91-2.96,4.45-2.96,7.15v1.28c-.01,3.44-1.02,6.75-2.9,9.6-1.89,2.85-4.54,5.07-7.68,6.41-.5.21-1.03.34-1.57.39-2.93,1.08-6.07,1.36-9.16.8-3.45-.62-6.59-2.25-9.1-4.7l-.49-.49c-.95-.95-2.05-1.69-3.29-2.2-2.47-1.02-5.28-1.02-7.75,0-1.23.51-2.34,1.25-3.28,2.19-.95.95-1.69,2.05-2.2,3.29-.51,1.23-.77,2.54-.77,3.87s.26,2.64.77,3.88c.51,1.23,1.25,2.34,2.2,3.28l.46.46c2.49,2.54,4.11,5.69,4.74,9.14.62,3.39.22,6.86-1.14,10.02-1.22,3.24-3.36,6.01-6.18,8.03-2.86,2.05-6.24,3.17-9.75,3.26-.04,0-.08,0-.12,0h-.68c-2.7,0-5.24,1.05-7.15,2.96-1.91,1.91-2.96,4.45-2.96,7.15s1.05,5.24,2.96,7.15c1.91,1.91,4.45,2.96,7.15,2.96h1.29c3.44.01,6.75,1.02,9.6,2.9,2.85,1.89,5.07,4.54,6.41,7.68,1.39,3.16,1.81,6.68,1.19,10.12-.62,3.45-2.25,6.59-4.7,9.1l-.49.49c-.95.95-1.69,2.05-2.2,3.28-.51,1.24-.77,2.54-.77,3.88s.26,2.64.77,3.87c.51,1.24,1.25,2.34,2.19,3.28.95.95,2.05,1.69,3.29,2.2,2.47,1.03,5.28,1.02,7.75,0,1.24-.51,2.34-1.25,3.29-2.2l.45-.45c2.55-2.49,5.69-4.12,9.14-4.74,3.4-.62,6.86-.22,10.02,1.14Zm76.72-28.61h0,0Z"/>
</svg>