<?xml version="1.0" encoding="UTF-8"?>
<svg id="icons" xmlns="http://www.w3.org/2000/svg" viewBox="0 0 200 200">
  <defs>
    <style>
      .cls-1 {
        fill: #231f20;
      }
    </style>
  </defs>
  <path class="cls-1" d="m146.52,183.97c-2.64,0-5.28-.83-7.58-2.49l-31.39-22.64c-4.52-3.26-10.59-3.26-15.1,0l-31.39,22.64c-4.64,3.34-10.61,3.32-15.23-.05-4.58-3.34-6.4-8.98-4.64-14.35l11.99-36.63c1.71-5.24-.15-10.93-4.65-14.17l-31.39-22.64c-4.61-3.33-6.46-8.96-4.72-14.35,1.75-5.42,6.58-8.93,12.3-8.93h38.8c5.58,0,10.48-3.53,12.2-8.78l11.99-36.63c1.76-5.39,6.59-8.88,12.29-8.88s10.52,3.49,12.29,8.88l11.99,36.63c1.72,5.25,6.62,8.78,12.2,8.78h38.8c5.72,0,10.55,3.5,12.3,8.93,1.74,5.4-.11,11.03-4.72,14.35l-31.39,22.64c-4.49,3.24-6.36,8.94-4.65,14.17l11.99,36.63c1.76,5.38-.06,11.01-4.64,14.35-2.32,1.69-4.98,2.54-7.65,2.54Zm-46.52-37.58c4.7,0,9.39,1.44,13.4,4.34l31.39,22.64c1.57,1.13,2.96.37,3.48-.01.5-.37,1.61-1.41,1.03-3.17l-11.99-36.63c-3.07-9.39.26-19.59,8.3-25.39l31.39-22.64c1.52-1.1,1.25-2.58,1.05-3.17-.19-.6-.85-2-2.79-2h-38.8c-9.92,0-18.64-6.3-21.7-15.67l-11.99-36.63c-.59-1.8-2.14-1.99-2.78-1.99s-2.19.19-2.78,1.99l-11.99,36.63c-3.07,9.37-11.79,15.67-21.7,15.67H24.73c-1.93,0-2.59,1.4-2.79,2-.19.59-.47,2.07,1.05,3.17l31.39,22.64c8.04,5.8,11.38,16,8.3,25.39l-11.99,36.63c-.58,1.76.53,2.8,1.03,3.17.52.38,1.91,1.15,3.48.01l31.39-22.64c4.01-2.89,8.7-4.34,13.4-4.34Z"/>
</svg>