<?xml version="1.0" encoding="UTF-8"?>
<svg id="icons" xmlns="http://www.w3.org/2000/svg" viewBox="0 0 200 200">
  <defs>
    <style>
      .cls-1 {
        fill: #231f20;
      }
    </style>
  </defs>
  <path class="cls-1" d="m48.52,184.4c-1.03,0-2.06-.32-2.94-.96-1.75-1.27-2.49-3.53-1.82-5.59l18.54-57.07L13.76,85.52c-1.75-1.27-2.49-3.53-1.82-5.59.67-2.06,2.59-3.46,4.75-3.46h60l18.54-57.07c.67-2.06,2.59-3.46,4.75-3.46s4.09,1.39,4.75,3.46l18.54,57.07h60c2.17,0,4.09,1.4,4.75,3.46.67,2.06-.06,4.32-1.82,5.59l-48.54,35.27,18.54,57.07c.67,2.06-.06,4.32-1.82,5.59-1.75,1.27-4.12,1.27-5.88,0l-48.54-35.27-48.54,35.27c-.88.64-1.91.96-2.94.96Zm51.48-47.4c1.03,0,2.06.32,2.94.96l39.03,28.36-14.91-45.89c-.67-2.06.06-4.32,1.82-5.59l39.03-28.36h-48.25c-2.17,0-4.09-1.4-4.75-3.46l-14.91-45.89-14.91,45.89c-.67,2.06-2.59,3.46-4.75,3.46h-48.25l39.03,28.36c1.75,1.27,2.49,3.53,1.82,5.59l-14.91,45.89,39.03-28.36c.88-.64,1.91-.96,2.94-.96Z"/>
</svg>