<?xml version="1.0" encoding="UTF-8"?>
<svg id="icons" xmlns="http://www.w3.org/2000/svg" viewBox="0 0 200 200">
  <defs>
    <style>
      .cls-1 {
        fill: #231f20;
      }
    </style>
  </defs>
  <path class="cls-1" d="m155.96,188.04H44.04c-7.17,0-13-5.83-13-13V24.96c0-7.17,5.83-13,13-13h111.91c7.17,0,13,5.83,13,13v150.09c0,7.17-5.83,13-13,13ZM44.04,21.96c-1.65,0-3,1.35-3,3v150.09c0,1.65,1.35,3,3,3h111.91c1.65,0,3-1.35,3-3V24.96c0-1.65-1.35-3-3-3H44.04Z"/>
  <circle class="cls-1" cx="100.06" cy="155.09" r="9.35"/>
</svg>