<?xml version="1.0" encoding="UTF-8"?>
<svg id="icons" xmlns="http://www.w3.org/2000/svg" viewBox="0 0 200 200">
  <defs>
    <style>
      .cls-1 {
        fill: #231f20;
      }
    </style>
  </defs>
  <path class="cls-1" d="m104.34,160.02c-5,0-9.71-1.94-13.26-5.46-.02-.02-.04-.04-.06-.06l-59.42-59.35c-.94-.94-1.47-2.21-1.47-3.54V22.43c0-2.76,2.24-5,5-5h69.18c1.33,0,2.6.53,3.54,1.46l59.42,59.43c7.29,7.33,7.29,19.25.01,26.57,0,0,0,0-.01,0l-49.6,49.6c-3.55,3.56-8.28,5.52-13.31,5.52h-.01Zm-6.3-12.64s.04.04.06.06c3.44,3.44,9.05,3.44,12.49,0l49.6-49.6c3.41-3.43,3.41-9.02,0-12.46l-57.95-57.95h-62.11v62.11l57.91,57.85Zm65.69-46.02h0,0Z"/>
  <path class="cls-1" d="m104.36,182.56c-6.14,0-12.28-2.33-16.95-7L22.79,111.01c-1.95-1.95-1.96-5.12,0-7.07,1.95-1.95,5.12-1.96,7.07,0l64.6,64.53c5.47,5.46,14.34,5.46,19.79,0l55.89-55.89c1.95-1.95,5.12-1.95,7.07,0,1.95,1.95,1.95,5.12,0,7.07l-55.88,55.88c-4.67,4.68-10.82,7.02-16.96,7.02Z"/>
  <circle class="cls-1" cx="73.63" cy="59.2" r="13.9"/>
</svg>