<?xml version="1.0" encoding="UTF-8"?>
<svg id="icons" xmlns="http://www.w3.org/2000/svg" viewBox="0 0 200 200">
  <defs>
    <style>
      .cls-1 {
        fill: #231f20;
      }
    </style>
  </defs>
  <path class="cls-1" d="m47.85,47.85h.01c-.32.32-.59.67-.81,1.06.21-.38.48-.74.8-1.06Z"/>
  <path class="cls-1" d="m152.15,145.08c1.95,1.95,1.95,5.12,0,7.07-.97.98-2.25,1.46-3.53,1.46s-2.56-.48-3.54-1.46L56.39,63.46v85.15c0,2.77-2.24,5-5,5s-5-2.23-5-5V51.38c0-.33.03-.65.09-.96.07-.32.16-.63.28-.92.05-.13.11-.26.17-.38.04-.07.08-.14.12-.21.22-.39.49-.74.81-1.06.22-.22.47-.43.74-.61.13-.09.27-.17.41-.25.07-.04.14-.08.22-.1.09-.06.18-.1.27-.13.15-.06.3-.12.46-.16.15-.05.31-.09.46-.12.31-.06.63-.09.96-.09h97.24c2.76,0,5,2.23,5,5s-2.24,5-5,5H63.46l88.69,88.69Z"/>
</svg>