<?xml version="1.0" encoding="UTF-8"?>
<svg id="icons" xmlns="http://www.w3.org/2000/svg" viewBox="0 0 200 200">
  <defs>
    <style>
      .cls-1 {
        fill: #231f20;
      }
    </style>
  </defs>
  <path class="cls-1" d="m149.53,77.11h-76.62v-18.97c0-14.83,11.98-26.89,26.7-26.89,8.38,0,16.12,3.85,21.22,10.56,1.67,2.2,4.81,2.63,7,.95,2.2-1.67,2.63-4.81.96-7-7.01-9.22-17.65-14.51-29.18-14.51-20.23,0-36.7,16.55-36.7,36.89v18.97h-13.22c-7.24,0-13.12,5.88-13.12,13.12v65.92c0,7.23,5.88,13.12,13.12,13.12h99.84c7.24,0,13.13-5.89,13.13-13.12v-65.92c0-7.24-5.89-13.12-13.13-13.12Zm3.13,79.04c0,1.72-1.4,3.12-3.13,3.12H49.69c-1.72,0-3.12-1.4-3.12-3.12v-65.92c0-1.72,1.4-3.12,3.12-3.12h99.84c1.73,0,3.13,1.4,3.13,3.12v65.92Z"/>
  <path class="cls-1" d="m99.61,147.36c-2.76,0-5-2.24-5-5v-16.46c0-2.76,2.24-5,5-5s5,2.24,5,5v16.46c0,2.76-2.24,5-5,5Z"/>
</svg>