<?xml version="1.0" encoding="UTF-8"?>
<svg id="icons" xmlns="http://www.w3.org/2000/svg" viewBox="0 0 200 200">
  <defs>
    <style>
      .cls-1 {
        fill: #231f20;
      }
    </style>
  </defs>
  <path class="cls-1" d="m172.29,103.54c-.98.97-2.26,1.46-3.54,1.46s-2.56-.49-3.53-1.46l-60.22-60.22v125.43c0,2.76-2.24,5-5,5s-5-2.24-5-5V43.32l-60.21,60.22c-1.95,1.95-5.12,1.95-7.07,0-1.96-1.96-1.96-5.12,0-7.08L96.47,27.71c.21-.21.44-.4.68-.56.16-.12.33-.22.5-.31.14-.08.29-.15.44-.21s.3-.12.46-.16c.15-.05.31-.09.47-.12.06-.01.12-.03.18-.03.26-.05.53-.07.8-.07s.55.02.82.07c.05,0,.11.02.16.03.13.02.26.05.39.1.51.14.99.36,1.43.66.26.18.51.38.74.61l68.75,68.74c1.95,1.96,1.95,5.12,0,7.08Z"/>
  <path class="cls-1" d="m103.54,27.71h0c-.23-.22-.48-.42-.74-.6.26.17.51.37.74.6Z"/>
</svg>