<?xml version="1.0" encoding="UTF-8"?>
<svg id="icons" xmlns="http://www.w3.org/2000/svg" viewBox="0 0 200 200">
  <defs>
    <style>
      .cls-1 {
        fill: #231f20;
      }
    </style>
  </defs>
  <path class="cls-1" d="m132.8,130.98c-.99,1.15-2.39,1.74-3.8,1.74-1.15,0-2.31-.4-3.26-1.21l-20.74-17.82v54.05c0,2.76-2.24,5-5,5s-5-2.24-5-5v-54.05l-20.74,17.82c-2.09,1.8-5.25,1.56-7.05-.53-1.8-2.1-1.56-5.25.53-7.05l29-24.91s.05-.04.08-.06c.23-.19.47-.36.72-.5.11-.06.22-.12.34-.17.13-.07.27-.12.41-.17.11-.04.22-.08.33-.11.06-.02.13-.04.19-.05.1-.03.21-.05.31-.07.13-.02.25-.04.38-.05.16-.02.33-.03.5-.03s.34.01.5.03c.13.01.26.03.38.05.1.02.21.04.31.07.07.01.13.03.19.05.11.03.22.07.33.11.14.05.28.1.41.17.12.05.23.11.34.17.25.14.49.31.72.5.03.02.05.04.08.06l29,24.91c2.09,1.8,2.33,4.95.54,7.05Z"/>
  <path class="cls-1" d="m173.91,143.31c-1.12,0-2.24-.37-3.17-1.14-2.13-1.75-2.44-4.9-.69-7.04,5.19-6.32,8.05-14.32,8.05-22.53,0-19.52-15.8-35.41-35.21-35.41-2.85,0-5.68.34-8.41,1.02-2.53.62-5.13-.81-5.94-3.29-7.43-22.53-28.3-37.67-51.93-37.67-30.16,0-54.7,24.67-54.7,54.99,0,14.38,5.48,27.97,15.44,38.29,1.92,1.99,1.86,5.15-.12,7.07-1.99,1.92-5.15,1.86-7.07-.12-11.76-12.19-18.24-28.25-18.24-45.23,0-35.83,29.03-64.99,64.7-64.99,26.48,0,50.03,16.06,59.91,40.39,2.11-.3,4.24-.45,6.38-.45,24.93,0,45.21,20.37,45.21,45.41,0,10.52-3.67,20.77-10.32,28.88-.99,1.2-2.42,1.83-3.87,1.83Z"/>
</svg>