<?xml version="1.0" encoding="UTF-8"?>
<svg id="icons" xmlns="http://www.w3.org/2000/svg" viewBox="0 0 200 200">
  <defs>
    <style>
      .cls-1 {
        fill: #231f20;
      }
    </style>
  </defs>
  <circle class="cls-1" cx="155.39" cy="148.98" r="9"/>
  <path class="cls-1" d="m152.19,71.63c-1.8,2.09-4.96,2.33-7.05.53l-40.14-34.47v97.46c0,2.76-2.24,5-5,5s-5-2.24-5-5V37.69l-40.13,34.47c-.94.81-2.1,1.21-3.26,1.21-1.4,0-2.8-.59-3.79-1.74-1.8-2.1-1.56-5.25.53-7.05l48.39-41.57c.12-.1.24-.19.36-.28.11-.08.22-.15.33-.21.16-.1.32-.19.49-.27.11-.05.22-.1.34-.14.02,0,.03-.01.05-.02.13-.04.26-.08.4-.12.13-.04.27-.07.41-.09.13-.02.25-.04.38-.05.16-.02.33-.03.5-.03s.34.01.5.03c.13.01.26.03.38.05.14.02.28.05.41.09.14.04.27.08.4.12.02.01.04.02.05.02.12.04.23.09.34.14.17.08.33.17.49.27.11.06.22.13.33.21.12.09.24.18.36.28l48.39,41.57c2.1,1.8,2.34,4.95.54,7.05Z"/>
  <path class="cls-1" d="m174.71,178.2H25.29c-7.4,0-13.42-6.02-13.42-13.42v-31.6c0-7.4,6.02-13.42,13.42-13.42h56.34c2.76,0,5,2.24,5,5s-2.24,5-5,5H25.29c-1.88,0-3.42,1.53-3.42,3.42v31.6c0,1.88,1.53,3.42,3.42,3.42h149.42c1.88,0,3.42-1.53,3.42-3.42v-31.6c0-1.88-1.53-3.42-3.42-3.42h-56.59c-2.76,0-5-2.24-5-5s2.24-5,5-5h56.59c7.4,0,13.42,6.02,13.42,13.42v31.6c0,7.4-6.02,13.42-13.42,13.42Z"/>
</svg>