<?xml version="1.0" encoding="UTF-8"?>
<svg id="icons" xmlns="http://www.w3.org/2000/svg" viewBox="0 0 200 200">
  <defs>
    <style>
      .cls-1 {
        fill: #231f20;
      }
    </style>
  </defs>
  <path class="cls-1" d="m172.61,165.58c-.3-.19-.58-.41-.84-.67l-34.13-34.13-.81-.34v-.47l-10-10-59.79-59.79-10-10-22.77-22.77c-.26-.26-.48-.54-.68-.84-1.93-1.25-4.53-1.02-6.22.67-1.95,1.95-1.95,5.12,0,7.07l15.87,15.87h-18.51c-7.17,0-13,5.83-13,13v73.65c0,7.17,5.83,13,13,13h99.1c5.15,0,9.6-3,11.71-7.35l29.33,29.33c.98.98,2.26,1.47,3.54,1.47s2.56-.49,3.53-1.47c1.69-1.69,1.92-4.3.67-6.23Zm-45.78-28.75c0,1.65-1.34,3-3,3H24.73c-1.66,0-3-1.35-3-3V63.18c0-1.66,1.34-3,3-3h28.51l73.59,73.59v3.06Z"/>
  <path class="cls-1" d="m172.61,165.58c-.3-.19-.58-.41-.84-.67l-34.13-34.13-.81-.34v-.47l-10-10-59.79-59.79-10-10-22.77-22.77c-.26-.26-.48-.54-.68-.84.3.18.59.41.85.67l137.5,137.5c.26.26.48.54.67.84Z"/>
  <path class="cls-1" d="m172.61,165.58c-.3-.19-.58-.41-.84-.67l-44.94-44.94-59.79-59.79-10-10-22.77-22.77c-.26-.26-.48-.54-.68-.84.3.18.59.41.85.67l137.5,137.5c.26.26.48.54.67.84Z"/>
  <path class="cls-1" d="m126.83,119.63v.34l10,10v-.34l-10-10ZM57.38,50.18h-.34l10,10h.34l-10-10Z"/>
  <path class="cls-1" d="m188.28,55.41v89.19c0,1.68-.84,3.24-2.23,4.17-.84.55-1.8.83-2.77.83-.66,0-1.32-.13-1.94-.39l-19.25-8.12-18.77-18.77,34.96,14.74V62.94l-41.45,17.48v35.41l-10-10v-42.65c0-1.66-1.34-3-3-3h-42.65l-10-10h52.65c7.17,0,13,5.83,13,13v6.39l44.51-18.77c1.54-.65,3.31-.49,4.71.44,1.39.93,2.23,2.49,2.23,4.17Z"/>
  <path class="cls-1" d="m138.23,131.03l-.59-.25-.81-.34v-.47l-8.37-8.37s.03-.07.04-.1c.02-.05.04-.1.06-.14l9.67,9.67Z"/>
</svg>