<?xml version="1.0" encoding="UTF-8"?>
<svg id="icons" xmlns="http://www.w3.org/2000/svg" viewBox="0 0 200 200">
  <defs>
    <style>
      .cls-1 {
        fill: #231f20;
      }
    </style>
  </defs>
  <path class="cls-1" d="m156.37,9.94s-112.62,0-112.62,0c-8.27,0-15,6.63-15,14.78.06,1.04-.09,158.03.04,158.9.24,2.7,2.23,5.14,4.8,5.94,3.29,5.16,63.22-44.88,66.47-45.72.13.09,60.13,44.7,60.26,44.77,3.92,2.97,10.13.49,10.92-4.37.4-1.68-.01-157.85.13-159.52,0-8.15-6.73-14.78-15-14.78Zm-52.14,119.56c-2.4-1.83-5.95-1.83-8.35,0,0,0-53.13,39.48-53.13,39.48V24.72c.05-2.26,112.67-.01,113.62-.78,2.89-.51.02,144.25,1,145.04-.32-.24-52.87-39.27-53.14-39.48Z"/>
</svg>