<?xml version="1.0" encoding="UTF-8"?>
<svg id="icons" xmlns="http://www.w3.org/2000/svg" viewBox="0 0 200 200">
  <defs>
    <style>
      .cls-1 {
        fill: #231f20;
      }
    </style>
  </defs>
  <path class="cls-1" d="m44.39,148.39c0,.15,0,.3.01.45-.01-.13-.01-.32-.01-.45Z"/>
  <path class="cls-1" d="m44.53,150.02c-.05-.24-.08-.48-.1-.72.02.24.06.48.1.72Z"/>
  <path class="cls-1" d="m44.42,149.3c-.02-.15-.02-.31-.02-.46,0,.15,0,.31.02.46Z"/>
  <path class="cls-1" d="m155.61,148.61c0,3.87-3.13,7-7,7-1.16-1.1-106.93,2.7-102.79-2.76-.93-1.2-1.43-2.72-1.43-4.24,0,0,0-97.23,0-97.23,0-3.86,3.13-7,7-7s7,3.14,7,7v80.33l85.28-85.28c2.73-2.73,7.16-2.73,9.89,0,2.74,2.74,2.74,7.17,0,9.9l-85.27,85.28h80.32c3.87,0,7,3.13,7,7Z"/>
</svg>