<?xml version="1.0" encoding="UTF-8"?>
<svg id="icons" xmlns="http://www.w3.org/2000/svg" viewBox="0 0 200 200">
  <defs>
    <style>
      .cls-1 {
        fill: #231f20;
      }
    </style>
  </defs>
  <path class="cls-1" d="m163.55,49.13h-22.52c.81-12.07-.25-25.13-15.56-25.83,0,0-50.91,0-50.91,0-15.28.68-16.39,13.77-15.56,25.83-14.38.46-38.83-4.59-39.52,17,0,0,0,87.74,0,87.74,0,9.37,7.63,17,17,17h127.07c9.37,0,17-7.63,17-17,0,0,0-87.74,0-87.74,0-9.37-7.63-17-17-17Zm-90.55-10.66c0-.55.64-1.17,1.56-1.17h50.91c.92,0,1.56.62,1.56,1.17v10.66h-54.03v-10.66Zm-39.52,27.66c0-1.65,1.34-3,3-3h127.07c1.65,0,3,1.35,3,3v27.87H33.48v-27.87Zm49.96,41.87h33.15c.16,2.13.07,6.9-2.52,6.78,0,0-28.12,0-28.12,0-2.55.12-2.7-4.66-2.51-6.78Zm83.11,45.87c0,1.65-1.35,3-3,3H36.48c-1.66,0-3-1.35-3-3v-45.87h35.96c-1.2,10.52,6.03,20.91,16.51,20.78,17.27-1.09,46.16,6.93,44.64-20.78h35.96v45.87Z"/>
</svg>