<?xml version="1.0" encoding="UTF-8"?>
<svg id="icons" xmlns="http://www.w3.org/2000/svg" viewBox="0 0 200 200">
  <defs>
    <style>
      .cls-1 {
        fill: #231f20;
      }
    </style>
  </defs>
  <path class="cls-1" d="m175.06,19.17h-26.49c.29-5.44.53-13.66-7-13.67-7.53.01-7.29,8.24-7,13.67h-69.13c.29-5.44.53-13.66-7-13.67-7.53.01-7.29,8.24-7,13.67-12.99,1.11-41.33-5.92-41.57,15.07,0,0,0,131.51,0,131.51,0,8.31,6.76,15.07,15.07,15.07,0,0,150.12,0,150.12,0,8.31,0,15.07-6.76,15.07-15.07V34.24c0-8.31-6.76-15.07-15.07-15.07Zm-110.1,147.65H24.94c-.59,0-1.07-.48-1.07-1.07v-21.33h41.09v22.4Zm0-36.4H23.87v-22.42h41.09v22.42Zm0-36.42H23.87v-22.43h41.09v22.43Zm55.91,72.82h-41.91v-22.4h41.91v22.4Zm0-36.4h-41.91v-22.42h41.91v22.42Zm0-36.42h-41.91v-22.43h41.91v22.43Zm55.26,71.75c-.55,2.67-39.61.31-41.26,1.07v-22.4h41.26v21.33Zm0-35.33h-41.26v-22.42h41.26v22.42Zm0-36.42h-41.26v-22.43h41.26v22.43Zm0-36.43H23.87c.53-.61-1.25-25.43,1.07-24.4,0,0,26.5,0,26.5,0-.29,5.44-.53,13.66,7,13.67,7.52-.01,7.29-8.24,7-13.67h69.13c-.29,5.44-.53,13.66,7,13.67,7.52-.01,7.29-8.24,7-13.67h26.49c2.32-1.12.55,23.9,1.07,24.4Z"/>
</svg>