<?xml version="1.0" encoding="UTF-8"?>
<svg id="icons" xmlns="http://www.w3.org/2000/svg" viewBox="0 0 200 200">
  <defs>
    <style>
      .cls-1 {
        fill: #231f20;
      }
    </style>
  </defs>
  <path class="cls-1" d="m175.06,19.17h-26.49c.29-5.44.53-13.66-7-13.67-7.53.01-7.29,8.24-7,13.67h-69.13c.29-5.44.53-13.66-7-13.67-7.53.01-7.29,8.24-7,13.67-12.99,1.11-41.33-5.92-41.57,15.07,0,0,0,131.51,0,131.51,0,8.31,6.76,15.07,15.07,15.07,0,0,150.12,0,150.12,0,8.31,0,15.07-6.76,15.07-15.07,0,0,0-131.51,0-131.51,0-8.31-6.76-15.07-15.07-15.07Zm1.07,146.58c.24,3.12-150.13,0-151.19,1.07-3.06.22-.04-94.18-1.07-95.25h152.26v94.18Zm0-108.18H23.87c.53-.61-1.25-25.43,1.07-24.4,0,0,26.5,0,26.5,0-.29,5.44-.53,13.66,7,13.67,7.52-.01,7.29-8.24,7-13.67h69.13c-.29,5.44-.53,13.66,7,13.67,7.52-.01,7.29-8.24,7-13.67h26.49c2.32-1.12.55,23.9,1.07,24.4Z"/>
  <path class="cls-1" d="m54.31,110.5c-4.97-.37-16.54,2.17-16.36-6,.37-4.97-2.17-16.54,6-16.36,4.97.37,16.54-2.17,16.36,6-.37,4.97,2.17,16.54-6,16.36Z"/>
  <path class="cls-1" d="m54.31,150.61c-4.97-.37-16.54,2.17-16.36-6,.37-4.97-2.17-16.54,6-16.36,4.97.37,16.54-2.17,16.36,6-.37,4.97,2.17,16.54-6,16.36Z"/>
  <path class="cls-1" d="m88.55,110.5c-4.97-.37-16.54,2.17-16.36-6,.37-4.97-2.17-16.54,6-16.36,4.97.37,16.54-2.17,16.36,6-.37,4.97,2.17,16.54-6,16.36Z"/>
  <path class="cls-1" d="m121.88,110.5c-4.97-.37-16.54,2.17-16.36-6,.37-4.97-2.17-16.54,6-16.36,4.97.37,16.54-2.17,16.36,6-.37,4.97,2.17,16.54-6,16.36Z"/>
  <path class="cls-1" d="m156.05,110.5c-4.97-.37-16.54,2.17-16.36-6,.37-4.97-2.17-16.54,6-16.36,4.97.37,16.54-2.17,16.36,6-.37,4.97,2.17,16.54-6,16.36Z"/>
  <path class="cls-1" d="m88.55,150.61c-4.97-.37-16.54,2.17-16.36-6,.37-4.97-2.17-16.54,6-16.36,4.97.37,16.54-2.17,16.36,6-.37,4.97,2.17,16.54-6,16.36Z"/>
  <path class="cls-1" d="m121.88,150.61c-4.97-.37-16.54,2.17-16.36-6,.37-4.97-2.17-16.54,6-16.36,4.97.37,16.54-2.17,16.36,6-.37,4.97,2.17,16.54-6,16.36Z"/>
  <path class="cls-1" d="m156.05,150.61c-4.97-.37-16.54,2.17-16.36-6,.37-4.97-2.17-16.54,6-16.36,4.97.37,16.54-2.17,16.36,6-.37,4.97,2.17,16.54-6,16.36Z"/>
</svg>