<?xml version="1.0" encoding="UTF-8"?>
<svg id="icons" xmlns="http://www.w3.org/2000/svg" viewBox="0 0 200 200">
  <defs>
    <style>
      .cls-1 {
        fill: #231f20;
      }
    </style>
  </defs>
  <path class="cls-1" d="m165.19,48.61h-26.83l-8.2-21.81c-1.02-2.73-3.63-4.54-6.55-4.54h-48.01c-6.62-.51-7.98,9.34-9.99,13.69l10.87,10.87,3.97-10.56h38.32c13.27,36.58,6.37,24.28,46.42,26.35,3.15-.22.08,72.91,1.12,74.04l11.47,11.47c4.91-1,1.65-79.96,2.53-84.39,0-8.34-6.78-15.12-15.12-15.12Zm-106.68,0h-.04l12.06,12.06s0-.02.02-.02l-12.04-12.04Zm92.26,92.26h-.04l14,14h.04l-14-14Z"/>
  <path class="cls-1" d="m99.61,68.87c-.35,0-.71.01-1.06.02l33.91,33.91c.64-18.48-14.36-33.97-32.85-33.93Zm-16.43,4.41s-.02.01-.03.01l10.54,10.54s.02-.01.03-.01l-10.54-10.54Zm34.35,34.35s0,.02,0,.03l10.54,10.54s0-.02.01-.03l-10.54-10.54Z"/>
  <path class="cls-1" d="m173.89,164.01C148.17,138.38,60.23,50.34,36.18,26.32c-6.24-6.54-16.42,3.54-9.88,9.88,0,0,12.41,12.41,12.41,12.41-9.74-1.36-19.92,4.46-19.81,15.12,0,0,0,76.02,0,76.02,0,8.33,6.78,15.12,15.12,15.12h110.95c3.32,2.29,19.21,21.91,23.78,20.88,5.86.21,9.34-7.53,5.14-11.74Zm-90.93-71.15l25.52,25.52c-15.71,9.06-34.55-9.83-25.52-25.52Zm-48.94,48.01c-3.18.23-.06-76.02-1.12-77.14-1.08-2.38,19.23-.6,19.81-1.12l20.11,20.11c-21.44,29.32,16.5,67.24,45.81,45.81l12.34,12.34H34.02Z"/>
  <path class="cls-1" d="m173.89,164.01C148.14,138.3,60.09,50.25,35.99,26.11c45.09,45.05,92.83,92.79,137.9,137.9Z"/>
  <path class="cls-1" d="m173.89,164.01C148.14,138.3,60.09,50.25,35.99,26.11c45.09,45.05,92.83,92.79,137.9,137.9Z"/>
</svg>