<?xml version="1.0" encoding="UTF-8"?>
<svg id="icons" xmlns="http://www.w3.org/2000/svg" viewBox="0 0 200 200">
  <defs>
    <style>
      .cls-1 {
        fill: #231f20;
      }
    </style>
  </defs>
  <path class="cls-1" d="m165.59,48.61h-26.83l-8.2-21.81c-1.03-2.73-3.64-4.54-6.55-4.54h-48.02c-2.91,0-5.52,1.81-6.55,4.54l-8.2,21.81c-13.06,1.14-41.71-5.99-41.94,15.12,0,0,0,76.02,0,76.02,0,8.33,6.78,15.12,15.12,15.12h131.17c8.34,0,15.12-6.79,15.12-15.12V63.73c0-8.34-6.78-15.12-15.12-15.12Zm1.12,91.14c.23,3.26-131.16,0-132.29,1.12-.62,0-1.12-.51-1.12-1.12,1.06-1.12-2.06-77.37,1.12-77.14,40-2.08,33.15,10.26,46.42-26.35h38.32c13.27,36.59,6.39,24.28,46.43,26.35,3.18-.23.06,76.02,1.12,77.14Z"/>
  <path class="cls-1" d="m100,68.87c-43.18.78-43.18,64.97,0,65.74,43.2-.77,43.19-64.97,0-65.74Zm0,51.74c-24.79-.45-24.78-37.3,0-37.74,24.8.45,24.8,37.3,0,37.74Z"/>
</svg>