<?xml version="1.0" encoding="UTF-8"?>
<svg id="icons" xmlns="http://www.w3.org/2000/svg" viewBox="0 0 200 200">
  <defs>
    <style>
      .cls-1 {
        fill: #231f20;
      }
    </style>
  </defs>
  <path class="cls-1" d="m100,12.08C38.3,11.04-7.59,74.16,16.03,130.06c.8,4.21-6.12,54.07-.59,55.82,1.93,5.45,51.85-5.73,55.9-5.21C203.02,218.04,238.94,18.08,100,12.08Zm0,159.14c-10.11.66-19.5-3.27-29.15-4.62,0,0-43.41,6.26-43.41,6.26l2.66-43.48v-2.03c-4.11-8.95-6.24-18.59-6.23-28.7,1.72-95.33,150.55-95.34,152.26,0,0,40.01-34.15,72.57-76.13,72.57Z"/>
  <path class="cls-1" d="m65.38,100c.19,12.69-19.75,12.69-19.57,0-.19-12.69,19.75-12.69,19.57,0Z"/>
  <path class="cls-1" d="m109.78,100c.19,12.69-19.75,12.69-19.57,0-.19-12.69,19.75-12.69,19.57,0Z"/>
  <path class="cls-1" d="m151.57,100c.19,12.69-19.75,12.69-19.57,0-.19-12.69,19.75-12.69,19.57,0Z"/>
</svg>