<?xml version="1.0" encoding="UTF-8"?>
<svg id="icons" xmlns="http://www.w3.org/2000/svg" viewBox="0 0 201.26 201.26">
  <defs>
    <style>
      .cls-1 {
        fill: #231f20;
      }
    </style>
  </defs>
  <path class="cls-1" d="m100.63,190.89c-48.53,1-91.3-41.78-90.26-90.31C8.43,37.28,80.36-9.33,137.37,18.19c8.34,3.61,2.55,16.57-5.7,12.79-9.82-4.37-20.25-6.6-30.99-6.6-40.99-.87-77.13,35.23-76.3,76.22-1.67,66.38,84.34,102.09,130.15,54,16.54-16.15,23.68-38.75,22.37-61.57-.17-9.08,14.17-9.08,14,0,4.51,51.15-38.51,99.03-90.26,97.87Z"/>
  <path class="cls-1" d="m100.63,124.41c-4.07,1.66-26.92-25.09-29.93-27.03-6.51-6.32,3.57-16.42,9.9-9.9,0,0,20.03,20.02,20.03,20.02L178.94,29.12c2.73-2.73,7.16-2.74,9.9,0,2.74,2.73,2.74,7.16,0,9.9l-83.26,83.34c-1.31,1.31-3.09,2.05-4.95,2.05Z"/>
</svg>