<?xml version="1.0" encoding="UTF-8"?>
<svg id="icons" xmlns="http://www.w3.org/2000/svg" viewBox="0 0 200 200">
  <defs>
    <style>
      .cls-1 {
        fill: #231f20;
      }
    </style>
  </defs>
  <path class="cls-1" d="m81.77,140.42c-3.52,2.23-32.61-30.8-35.33-32.43-6.51-6.32,3.57-16.42,9.9-9.9,0,0,25.43,25.43,25.43,25.43,0,0,61.89-61.9,61.89-61.9,6.32-6.5,16.43,3.56,9.9,9.9,0,0-66.84,66.84-66.84,66.84-1.31,1.31-3.09,2.05-4.95,2.05Z"/>
  <path class="cls-1" d="m158.44,17.08H41.56c-13.28,0-24.08,10.81-24.08,24.08v116.88c0,13.28,10.8,24.08,24.08,24.08h116.88c13.28,0,24.08-10.8,24.08-24.08V41.16c0-13.27-10.8-24.08-24.08-24.08Zm10.08,140.96c0,5.56-4.52,10.08-10.08,10.08H41.56c-5.56,0-10.08-4.52-10.08-10.08V41.16c0-5.55,4.52-10.08,10.08-10.08h116.88c5.56,0,10.08,4.53,10.08,10.08v116.88Z"/>
</svg>