<?xml version="1.0" encoding="UTF-8"?>
<svg id="icons" xmlns="http://www.w3.org/2000/svg" viewBox="0 0 200 200">
  <defs>
    <style>
      .cls-1 {
        fill: #231f20;
      }
    </style>
  </defs>
  <path class="cls-1" d="m100.39,123.87c-4.3,1.49-27.21-25.42-30.42-27.53-6.42-6.75,4.45-16.02,10.07-9.72.4.4,20.35,20.35,20.35,20.35L179.79,27.57c2.73-2.73,7.17-2.73,9.9,0,2.73,2.73,2.73,7.17,0,9.9l-84.35,84.35c-1.31,1.31-3.09,2.05-4.95,2.05Z"/>
  <path class="cls-1" d="m159.44,182.91H41.35c-13.16,0-23.87-10.71-23.87-23.87V40.96c0-13.16,10.71-23.87,23.87-23.87h92.78c9.06-.09,9.09,14.1,0,14,0,0-92.78,0-92.78,0-5.44,0-9.87,4.43-9.87,9.87v118.08c0,5.44,4.43,9.87,9.87,9.87h118.08c5.44,0,9.87-4.43,9.87-9.87v-59.04c-.17-9.08,14.16-9.08,14,0,0,0,0,59.04,0,59.04,0,13.16-10.71,23.87-23.87,23.87Z"/>
</svg>