<?xml version="1.0" encoding="UTF-8"?>
<svg id="icons" xmlns="http://www.w3.org/2000/svg" viewBox="0 0 200 200">
  <defs>
    <style>
      .cls-1 {
        fill: #231f20;
      }
    </style>
  </defs>
  <path class="cls-1" d="m100,9.84c-118.48,2.12-118.47,178.2,0,180.31,118.49-2.13,118.46-178.2,0-180.31Zm0,166.31C-.1,174.36-.07,25.62,100,23.84c100.08,1.79,100.08,150.53,0,152.31Z"/>
  <path class="cls-1" d="m81.77,140.42c-3.52,2.23-32.61-30.8-35.33-32.43-6.51-6.32,3.57-16.42,9.9-9.9,0,0,25.43,25.43,25.43,25.43,0,0,61.89-61.9,61.89-61.9,6.32-6.5,16.43,3.56,9.9,9.9,0,0-66.84,66.84-66.84,66.84-1.31,1.31-3.09,2.05-4.95,2.05Z"/>
</svg>