<?xml version="1.0" encoding="UTF-8"?>
<svg id="icons" xmlns="http://www.w3.org/2000/svg" viewBox="0 0 200 200">
  <defs>
    <style>
      .cls-1 {
        fill: #231f20;
      }
    </style>
  </defs>
  <path class="cls-1" d="m155.21,22.32h-16.58c-.51-6.99-6.36-12.51-13.47-12.51h-50.32c-7.11,0-12.96,5.52-13.47,12.51-12.49-.06-31.27-2.69-31.93,15.1,0,0,0,137.59,0,137.59,0,8.33,6.89,15.1,15.36,15.1h110.41c8.47,0,15.36-6.77,15.36-15.1,0,0,0-137.59,0-137.59,0-8.33-6.89-15.1-15.36-15.1Zm-79.88,1.49h49.34v11.02h-49.34v-11.02Zm81.24,151.2c-.05,3.14-110.46.05-111.77,1.1-.74,0-1.36-.5-1.36-1.1,1.34-1.15-2.57-139.28,1.36-138.69,0,0,16.57,0,16.57,0,.51,6.98,6.36,12.51,13.47,12.51h50.32c7.11,0,12.96-5.53,13.47-12.51h16.58c3.93-.59.02,137.55,1.36,138.69Z"/>
</svg>