<?xml version="1.0" encoding="UTF-8"?>
<svg id="icons" xmlns="http://www.w3.org/2000/svg" viewBox="0 0 200 200">
  <defs>
    <style>
      .cls-1 {
        fill: #231f20;
      }
    </style>
  </defs>
  <path class="cls-1" d="m100,9.87c-118.45,2.12-118.43,178.15,0,180.26,118.45-2.13,118.43-178.16,0-180.26Zm0,166.26C-.05,174.34-.04,25.65,100,23.87c100.05,1.79,100.03,150.48,0,152.26Z"/>
  <path class="cls-1" d="m153.13,123.77c-1.58,3.57-5.81,5.09-9.25,3.53,0,0-37.34-16.7-37.34-16.7-13.64,8.36-26.68-12-13.54-20.91v-53.56c0-3.87,3.14-7,7-7s7,3.13,7,7v53.56c2.72,1.85,4.67,4.76,5.27,8.13l37.33,16.7c3.53,1.58,5.11,5.72,3.53,9.25Z"/>
</svg>