<?xml version="1.0" encoding="UTF-8"?>
<svg id="icons" xmlns="http://www.w3.org/2000/svg" viewBox="0 0 200 200">
  <defs>
    <style>
      .cls-1 {
        fill: #231f20;
      }
    </style>
  </defs>
  <path class="cls-1" d="m158.44,17.48H41.56c-13.28,0-24.08,10.8-24.08,24.08v116.88c0,13.27,10.8,24.07,24.08,24.07h116.88c13.28,0,24.08-10.8,24.08-24.07V41.56c0-13.28-10.8-24.08-24.08-24.08Zm10.08,140.96c0,5.55-4.52,10.07-10.08,10.07H41.56c-5.56,0-10.08-4.52-10.08-10.07V41.56c0-5.56,4.52-10.08,10.08-10.08h116.88c5.56,0,10.08,4.52,10.08,10.08v116.88Z"/>
  <path class="cls-1" d="m142.21,132.31c4.47,4.15,1.04,12.16-4.95,11.95-3.37,2.39-34.61-32.79-37.26-34.36l-32.31,32.31c-2.74,2.73-7.16,2.73-9.9,0-2.73-2.74-2.73-7.17,0-9.9l32.31-32.31-32.31-32.31c-2.73-2.74-2.73-7.17,0-9.9,2.73-2.74,7.17-2.74,9.9,0l32.31,32.31,32.31-32.31c2.74-2.74,7.17-2.74,9.9,0,2.74,2.73,2.74,7.16,0,9.9l-32.31,32.31,32.31,32.31Z"/>
</svg>