<?xml version="1.0" encoding="UTF-8"?>
<svg id="icons" xmlns="http://www.w3.org/2000/svg" viewBox="0 0 200 200">
  <defs>
    <style>
      .cls-1 {
        fill: #231f20;
      }
    </style>
  </defs>
  <path class="cls-1" d="m159.25,149.35c4.47,4.15,1.05,12.16-4.94,11.95-.21,4.96-53.46-51.27-54.31-51.41l-49.35,49.36c-2.73,2.73-7.18,2.74-9.9,0-2.74-2.73-2.74-7.17,0-9.9l49.36-49.35-49.36-49.36c-2.74-2.73-2.74-7.16,0-9.9,2.73-2.73,7.16-2.73,9.9,0l49.35,49.36,49.36-49.36c2.73-2.73,7.16-2.73,9.89,0,2.74,2.74,2.74,7.17,0,9.9l-49.35,49.36,49.35,49.35Z"/>
</svg>