<?xml version="1.0" encoding="UTF-8"?>
<svg id="icons" xmlns="http://www.w3.org/2000/svg" viewBox="0 0 200 200">
  <defs>
    <style>
      .cls-1 {
        fill: #231f20;
      }
    </style>
  </defs>
  <path class="cls-1" d="m100.39,9.84c-118.47,2.12-118.46,178.2,0,180.31,118.49-2.12,118.46-178.21,0-180.31Zm0,166.31c-100.08-1.79-100.06-150.53,0-152.31,100.08,1.79,100.08,150.53,0,152.31Z"/>
  <path class="cls-1" d="m142.21,132.31c4.47,4.15,1.04,12.16-4.95,11.95-3.37,2.39-34.61-32.79-37.26-34.36l-32.31,32.31c-2.74,2.73-7.16,2.73-9.9,0-2.73-2.74-2.73-7.17,0-9.9l32.31-32.31-32.31-32.31c-2.73-2.74-2.73-7.17,0-9.9,2.73-2.74,7.17-2.74,9.9,0l32.31,32.31,32.31-32.31c2.74-2.74,7.17-2.74,9.9,0,2.74,2.73,2.74,7.16,0,9.9l-32.31,32.31,32.31,32.31Z"/>
</svg>