<?xml version="1.0" encoding="UTF-8"?>
<svg id="icons" xmlns="http://www.w3.org/2000/svg" viewBox="0 0 200 200">
  <defs>
    <style>
      .cls-1 {
        fill: #231f20;
      }
    </style>
  </defs>
  <path class="cls-1" d="m174.75,173.54H25.25c-8.48,0-15.38-6.9-15.38-15.38,0,0,0-36.28,0-36.28,0-3.87,3.13-7,7-7s7,3.13,7,7c.65.74-1.65,39.02,1.38,37.66,1.39-1.33,151.17,2.58,150.88-1.38,0,0,0-36.29,0-36.29-.18-9.07,14.17-9.09,14,0,0,0,0,36.28,0,36.28,0,8.48-6.9,15.38-15.38,15.38Z"/>
  <path class="cls-1" d="m152.95,104.63l-48.39,41.57c-1.76,1.51-4.29,2.09-6.51,1.4-.96-.26-1.85-.76-2.61-1.4,0,0-48.39-41.57-48.39-41.57-6.95-5.8,2.3-16.65,9.12-10.62,0,0,36.83,31.64,36.83,31.64V32.54c0-3.87,3.14-7,7-7s7,3.13,7,7v93.11l36.83-31.64c6.79-6.01,16.11,4.8,9.12,10.62Z"/>
</svg>