<?xml version="1.0" encoding="UTF-8"?>
<svg id="icons" xmlns="http://www.w3.org/2000/svg" viewBox="0 0 200 200">
  <defs>
    <style>
      .cls-1 {
        fill: #231f20;
      }
    </style>
  </defs>
  <path class="cls-1" d="m174.75,180.17H25.25c-8.48,0-15.38-6.9-15.38-15.38,1.69-13.9-7.3-46.69,15.38-47.05,0,0,32.9,0,32.9,0,3.87,0,7,3.13,7,7s-3.13,7-7,7c-.2.74-35.97-1.68-34.28,1.38.82.58-1.72,34.69,1.38,33.06,1.39-1.33,151.17,2.58,150.88-1.38-.82-.66,1.73-34.65-1.38-33.06,0,0-30.95,0-30.95,0-3.87,0-7-3.13-7-7s3.13-7,7-7c0,0,30.95,0,30.95,0,8.48,0,15.38,6.9,15.38,15.38-1.69,13.87,7.3,46.7-15.38,47.05Z"/>
  <path class="cls-1" d="m146.39,148.96c-.17-11.68,18.17-11.68,18,0,.17,11.68-18.17,11.68-18,0Z"/>
  <path class="cls-1" d="m152.95,98.87l-48.39,41.57c-1.76,1.51-4.29,2.09-6.51,1.4-.96-.26-1.85-.76-2.61-1.4,0,0-48.39-41.57-48.39-41.57-6.95-5.8,2.3-16.65,9.12-10.62,0,0,36.83,31.64,36.83,31.64V26.78c0-3.87,3.14-7,7-7s7,3.13,7,7v93.11l36.83-31.64c6.79-6.01,16.11,4.8,9.12,10.62Z"/>
</svg>