<?xml version="1.0" encoding="UTF-8"?>
<svg id="icons" xmlns="http://www.w3.org/2000/svg" viewBox="0 0 200 200">
  <defs>
    <style>
      .cls-1 {
        fill: #231f20;
      }
    </style>
  </defs>
  <path class="cls-1" d="m133.56,148.42l-29,24.91c-.32.27-.68.53-1.05.74-2.3,1.38-5.4,1.24-7.56-.35-.67-.42-28.89-24.83-29.51-25.3-6.96-5.8,2.31-16.65,9.12-10.62,0,0,17.44,14.98,17.44,14.98v-49.69c0-3.87,3.14-7,7-7s7,3.13,7,7v49.69l17.44-14.98c6.8-6.02,16.1,4.8,9.12,10.62Z"/>
  <path class="cls-1" d="m173.91,145.59c-5.71.17-9.2-7.09-5.41-11.44,4.9-5.96,7.59-13.51,7.59-21.26,0-18.42-14.9-33.41-33.21-33.41-5.67-.16-13.75,3.9-16.26-3.65C108.77,19.58,23.25,33.47,23.89,92.53c0,13.85,5.28,26.96,14.88,36.89,6.44,6.42-3.89,16.37-10.07,9.72C-39.83,60.3,91.16-27.91,137.76,65.76c27.68-3.18,52.51,19.16,52.34,47.13-.27,10.52-4.68,29.97-16.19,32.7Z"/>
</svg>