<?xml version="1.0" encoding="UTF-8"?>
<svg id="icons" xmlns="http://www.w3.org/2000/svg" viewBox="0 0 200 200">
  <defs>
    <style>
      .cls-1 {
        fill: #231f20;
      }
    </style>
  </defs>
  <path class="cls-1" d="m175.06,33.39C-23.04,41.64,12.97-9.27,9.87,151.53c0,8.31,6.76,15.08,15.07,15.08,198.09-8.25,162.09,42.67,165.19-118.15,0-8.31-6.76-15.07-15.07-15.07Zm1.07,118.14c-.81,2.08-151.42,2.06-152.26,0,0,0,0-70.84,0-70.84,90.06,62.67,62.4,62.42,152.26,0v70.83Zm0-87.95c-98.35,65.88-54.09,65.63-152.26,0,.54-.75-1.2-16.98,1.07-16.19,1.13,1.07,151.38-2.05,151.19,1.07,0,0,0,15.12,0,15.12Z"/>
</svg>