<?xml version="1.0" encoding="UTF-8"?>
<svg id="icons" xmlns="http://www.w3.org/2000/svg" viewBox="0 0 200 200">
  <defs>
    <style>
      .cls-1 {
        fill: #231f20;
      }
    </style>
  </defs>
  <path class="cls-1" d="m145.05,154.95c-49.97,29.41-115.12,2.39-135.05-53.61,3.91-19.73,19.09-36.59,33.1-48.34l9.99,9.99c-12.13,9.13-22.11,21.78-28.64,37.01,18.34,44.41,68.82,66.18,110.26,44.61l10.34,10.34Z"/>
  <path class="cls-1" d="m189.99,101.37c-4.99,13.91-13.2,26.23-22.7,36.22l-9.91-9.91c7.43-7.77,13.63-17.1,18.17-27.68-16.58-39.14-56.93-61.25-96.02-50.17l-11.11-11.11c48.22-18.77,107.3,10.38,121.57,62.65Z"/>
  <path class="cls-1" d="m100,63c-2.28,0-4.52.21-6.69.61l14.92,14.92c6.07,2.33,10.91,7.17,13.24,13.24l14.92,14.92c4.33-22.36-13.58-43.93-36.39-43.69Z"/>
  <path class="cls-1" d="m173.7,163.8C128.94,119.04,80.92,71.02,36.2,26.3c-6.3-6.49-16.43,3.54-9.9,9.9,12.62,12.61,30.46,30.47,43.07,43.07-22.91,32.74,18.64,74.26,51.36,51.36,12.47,12.48,30.53,30.53,43.07,43.07,6.33,6.51,16.41-3.57,9.9-9.9Zm-73.7-40.8c-16.82.43-28.48-18.89-20.43-33.53l30.96,30.96c-3.16,1.65-6.74,2.57-10.53,2.57Z"/>
</svg>