<?xml version="1.0" encoding="UTF-8"?>
<svg id="icons" xmlns="http://www.w3.org/2000/svg" viewBox="0 0 200 200">
  <defs>
    <style>
      .cls-1 {
        fill: #231f20;
      }
    </style>
  </defs>
  <path class="cls-1" d="m190,98.65c-29.45-86.1-150.56-86.1-180,0,24.88,89.77,155.13,89.76,180,0Zm-90,54.35c-32.32,0-61.69-20.71-75.55-53,27.37-69.58,123.73-69.57,151.1,0-13.86,32.29-43.23,53-75.55,53Z"/>
  <path class="cls-1" d="m100,63c-48.63.87-48.62,73.13,0,74,48.62-.87,48.62-73.14,0-74Zm0,60c-30.23-.54-30.22-45.47,0-46,30.23.54,30.22,45.46,0,46Z"/>
</svg>