<?xml version="1.0" encoding="UTF-8"?>
<svg id="icons" xmlns="http://www.w3.org/2000/svg" viewBox="0 0 200 200">
  <defs>
    <style>
      .cls-1 {
        fill: #231f20;
      }
    </style>
  </defs>
  <path class="cls-1" d="m190.06,99.08C156.61,25.21,41.93,25.3,9.88,100.01c31.44,75.04,150.39,74.99,180.18-.92Zm-90.06,43.92c-30.34,0-58.73-16.38-75.01-43,32.36-56.56,117.68-56.55,150.02,0-16.27,26.62-44.67,43-75.01,43Z"/>
  <path class="cls-1" d="m100,66.76c-43.68.78-43.68,65.7,0,66.48,43.68-.78,43.68-65.7,0-66.48Zm0,52.48c-25.29-.45-25.28-38.03,0-38.48,25.29.45,25.28,38.03,0,38.48Z"/>
</svg>