<?xml version="1.0" encoding="UTF-8"?>
<svg id="icons" xmlns="http://www.w3.org/2000/svg" viewBox="0 0 200 200">
  <defs>
    <style>
      .cls-1 {
        fill: #231f20;
      }
    </style>
  </defs>
  <path class="cls-1" d="m170.48,58.37c-.34-.83-.85-1.61-1.53-2.29L124.66,11.9c-1.26-1.26-3-2.05-4.93-2.05H43.15c-8.27,0-15,6.73-15,15v150.3c0,8.27,6.73,15,15,15h112.86c8.27,0,15-6.73,15-15V60.99h0v-.02c-.01-.92-.2-1.8-.53-2.6Zm-43.77-24.65l20.37,20.32h-20.37v-20.32Zm30.3,141.43c0,.55-.45,1-1,1H43.15c-.55,0-1-.45-1-1V24.85c0-.55.45-1,1-1h69.56v37.19c0,3.87,3.14,7,7,7h37.3v107.11Z"/>
  <path class="cls-1" d="m139.76,109.29c0,3.87-3.14,7-7,7h-67.31c-3.87,0-7-3.13-7-7s3.13-7,7-7h67.31c3.86,0,7,3.14,7,7Z"/>
</svg>