<?xml version="1.0" encoding="UTF-8"?>
<svg id="icons" xmlns="http://www.w3.org/2000/svg" viewBox="0 0 200 200">
  <defs>
    <style>
      .cls-1 {
        fill: #231f20;
      }
    </style>
  </defs>
  <path class="cls-1" d="m170.9,58.36c-.34-.83-.85-1.6-1.53-2.28-.27-.26-44.23-44.14-44.46-44.35,0,0,0,0,0-.01,1.03-4.26-79.37-.78-81.33-1.87-8.27,0-15,6.73-15,15v150.3c0,8.27,6.73,15,15,15,0,0,112.86,0,112.86,0,8.27,0,15-6.73,15-15,0,0,0-114.13,0-114.14,0-.94-.19-1.83-.53-2.65Zm-43.77-24.64l20.37,20.32h-20.37v-20.32Zm30.3,141.43c.25,2.87-112.88.04-113.86,1-.55,0-1-.45-1-1,.97-1.02-1.87-151.51,1-151.3,0,0,69.56,0,69.56,0,.61,53.48-8.86,43.44,44.3,44.19v107.11Z"/>
  <path class="cls-1" d="m140.17,109.29c0,3.87-3.13,7-7,7h-26.65v26.66c0,3.86-3.13,7-7,7s-7-3.14-7-7v-26.66h-26.65c-3.87,0-7-3.13-7-7s3.13-7,7-7h26.65v-26.65c0-3.86,3.14-7,7-7s7,3.14,7,7v26.65h26.65c3.87,0,7,3.14,7,7Z"/>
</svg>