<?xml version="1.0" encoding="UTF-8"?>
<svg id="icons" xmlns="http://www.w3.org/2000/svg" viewBox="0 0 200 200">
  <defs>
    <style>
      .cls-1 {
        fill: #231f20;
      }
    </style>
  </defs>
  <path class="cls-1" d="m170.9,58.32c-2.56-2.97-46.26-49.85-50.77-48.51,0,0-76.56,0-76.56,0-8.27,0-15,6.72-15,15v150.3c0,8.27,6.73,15,15,15,162.88-4.16,122.82,32.46,127.86-129.13,0-.94-.19-1.84-.53-2.66Zm-43.77-24.64l20.37,20.32h-20.37v-20.32Zm30.3,141.43c.25,2.87-112.88.04-113.86,1-.55,0-1-.45-1-1,.98-1.03-1.88-151.51,1-151.3,0,0,69.56,0,69.56,0,.61,53.48-8.86,43.44,44.3,44.19v107.11Z"/>
</svg>