<?xml version="1.0" encoding="UTF-8"?>
<svg id="icons" xmlns="http://www.w3.org/2000/svg" viewBox="0 0 200 200">
  <defs>
    <style>
      .cls-1 {
        fill: #231f20;
      }
    </style>
  </defs>
  <path class="cls-1" d="m166,43.2h-70.94c-3.31-3.19-14.2-26.19-20.35-24.89-20.63,1.81-64.46-9.42-65.09,23.6,0,0,0,116.18,0,116.18,0,13.01,10.59,23.6,23.6,23.6h132.78c13.01,0,23.59-10.59,23.59-23.6,0,0,0-91.29,0-91.29,0-13.01-10.58-23.6-23.59-23.6Zm9.59,114.89c0,5.29-4.3,9.6-9.59,9.6H33.22c-5.29,0-9.6-4.31-9.6-9.6V41.91c0-5.3,4.31-9.6,9.6-9.6h37.75s14.51,21.78,14.51,21.78c-.25,6.44,77.18,1.78,80.52,3.11,5.29,0,9.59,4.31,9.59,9.6v91.29Z"/>
  <path class="cls-1" d="m144.69,112.3c0,3.87-3.13,7-7,7h-31.08v31.09c0,3.86-3.14,7-7,7s-7-3.14-7-7v-31.09h-31.09c-3.87,0-7-3.13-7-7s3.13-7,7-7h31.09v-31.09c0-3.86,3.13-7,7-7s7,3.14,7,7v31.09h31.08c3.87,0,7,3.14,7,7Z"/>
</svg>