<?xml version="1.0" encoding="UTF-8"?>
<svg id="icons" xmlns="http://www.w3.org/2000/svg" viewBox="0 0 200 200">
  <defs>
    <style>
      .cls-1 {
        fill: #231f20;
      }
    </style>
  </defs>
  <path class="cls-1" d="m159.38,48.46h-63.05c-3.26-3.24-12.48-23.41-18.59-22.27-19.04,1.54-58.33-8.39-58.96,21.85,0,0,0,103.92,0,103.92,0,12.04,9.8,21.84,21.84,21.84,0,0,118.76,0,118.76,0,12.05,0,21.85-9.8,21.85-21.84,0,0,0-81.65,0-81.65,0-12.05-9.8-21.85-21.85-21.85Zm7.85,103.5c0,4.32-3.52,7.84-7.85,7.84H40.62c-4.32,0-7.84-3.52-7.84-7.84V48.04c0-4.33,3.52-7.85,7.84-7.85h33.37s12.77,19.15,12.77,19.15c-1.15,6.18,69.72,1.96,72.62,3.12,4.33,0,7.85,3.52,7.85,7.85v81.65Z"/>
</svg>