<?xml version="1.0" encoding="UTF-8"?>
<svg id="icons" xmlns="http://www.w3.org/2000/svg" viewBox="0 0 200 200">
  <defs>
    <style>
      .cls-1 {
        fill: #231f20;
      }
    </style>
  </defs>
  <path class="cls-1" d="m166,43.21h-70.94c-3.31-3.19-14.19-26.2-20.35-24.9-20.63,1.81-64.46-9.42-65.09,23.6,0,0,0,116.18,0,116.18,0,13.01,10.59,23.6,23.6,23.6h132.78c13.01,0,23.59-10.59,23.59-23.6,0,0,0-91.29,0-91.29,0-13.01-10.58-23.59-23.59-23.59Zm9.59,114.88c0,5.29-4.3,9.6-9.59,9.6H33.22c-5.29,0-9.6-4.31-9.6-9.6V41.91c0-5.29,4.31-9.6,9.6-9.6h37.75l14.51,21.78c-.25,6.47,77.17,1.79,80.52,3.12,5.29,0,9.59,4.3,9.59,9.59,0,0,0,91.29,0,91.29Z"/>
  <path class="cls-1" d="m137.69,119.3H61.52c-9.06.13-9.1-14.13,0-14,0,0,76.17,0,76.17,0,9.06-.13,9.1,14.13,0,14Z"/>
</svg>