<?xml version="1.0" encoding="UTF-8"?>
<svg id="icons" xmlns="http://www.w3.org/2000/svg" viewBox="0 0 200 200">
  <defs>
    <style>
      .cls-1 {
        fill: #231f20;
      }
    </style>
  </defs>
  <path class="cls-1" d="m188.91,87.83c-1.3-1.97-3.5-3.15-5.85-3.15H46.92c-2.79,0-5.32,1.66-6.43,4.22l-16.54,38.26V52.09c0-3.65,2.96-6.61,6.61-6.61h30.29l11.53,17.3c-.39,6.23,63.79,1.93,67.09,3.12,11.07.55,2.16,14.76,13.61,15.27,4.65.04,7.58-4.28,7-8.66,0-11.37-9.25-20.61-20.61-20.61h-57.52s-11.53-17.31-11.53-17.31c-1.99-6.16-35.38-1.93-39.86-3.11-11.37,0-20.61,9.24-20.61,20.61,1.43,2.19-3.45,117.07,3.01,114.67,1.03.68,2.23,1.15,3.47,1.21.29.13,136.26-.03,136.65.03,2.79,0,5.32-1.66,6.43-4.22-.1-3.58,35.64-73.57,29.4-75.95Zm-40.43,66.17H27.6l23.92-55.32h120.88l-23.92,55.32Z"/>
</svg>