<?xml version="1.0" encoding="UTF-8"?>
<svg id="icons" xmlns="http://www.w3.org/2000/svg" viewBox="0 0 200 200">
  <defs>
    <style>
      .cls-1 {
        fill: #231f20;
      }
    </style>
  </defs>
  <path class="cls-1" d="m175.3,35.58c-21.09-21.36-56-19.17-75.3,3.44C71.08,2.82,8.63,24.95,9.87,71.44c0,13.56,5.28,26.3,14.87,35.89l70.31,70.31c2.6,2.7,7.3,2.71,9.9,0,0,0,70.31-70.31,70.31-70.31,19.68-18.86,19.7-52.85.04-71.74Zm-9.94,61.84l-65.36,65.36S34.64,97.42,34.64,97.42c-6.95-6.94-10.77-16.17-10.77-25.99-.66-32.06,40.49-49.14,62.75-25.99,0,0,8.43,8.43,8.43,8.43,2.73,2.73,7.17,2.73,9.9,0,35.7-46.62,96.08,1.69,60.41,43.55Z"/>
</svg>