<?xml version="1.0" encoding="UTF-8"?>
<svg id="icons" xmlns="http://www.w3.org/2000/svg" viewBox="0 0 200 200">
  <defs>
    <style>
      .cls-1 {
        fill: #231f20;
      }
    </style>
  </defs>
  <path class="cls-1" d="m182.85,72.78L110.64,19.63c-6.36-4.69-14.91-4.69-21.28,0,0,0-72.21,53.15-72.21,53.15-6.35,4.68-8.87,12.55-6.41,20.05,2.98,9.96,13.14,13.38,22.66,12.35,0,0,0,64.73,0,64.73,0,7.69,6.36,13.95,14.19,13.95,36.33.76,37.54.97,36.51-35.8,1.18-20.17,31.79-19.36,31.83.92-1.1,36.88,1.33,35.36,36.59,34.88,7.83,0,14.21-6.26,14.21-13.95,0,0,0-64.73,0-64.73,19.68,3.4,32.34-19.44,16.12-32.4Zm-6.89,15.68c-.27.82-1.17,2.72-3.75,2.72h-12.48c-3.87,0-7,3.13-7,7v71.63c-.44.1-22.32.1-22.77,0,1.29-23.74.13-48.91-29.96-50.76-30.41,2.14-31.05,26.72-29.9,50.76-.4.1-22.3.1-22.7,0v-71.63c0-3.87-3.14-7-7-7h-12.61c-2.58,0-3.48-1.9-3.75-2.72-.26-.81-.66-2.87,1.41-4.4L97.66,30.9c1.4-1.03,3.28-1.03,4.68,0l72.21,53.16c2.07,1.53,1.67,3.59,1.41,4.4Z"/>
</svg>