<?xml version="1.0" encoding="UTF-8"?>
<svg id="icons" xmlns="http://www.w3.org/2000/svg" viewBox="0 0 201.26 201.26">
  <defs>
    <style>
      .cls-1 {
        fill: #231f20;
      }
    </style>
  </defs>
  <path class="cls-1" d="m24.97,101.7c.04.33.11.65.21.96-.09-.31-.17-.63-.21-.96Z"/>
  <path class="cls-1" d="m26.47,105.06c-.43-.51-.78-1.09-1.04-1.71.26.62.61,1.19,1.04,1.71Z"/>
  <path class="cls-1" d="m26.06,96.74c-.25.37-.45.76-.63,1.16.17-.41.38-.8.63-1.16Z"/>
  <path class="cls-1" d="m176.38,100.63c0,3.86-3.13,7-7,7H48.78l56.8,56.8c6.48,6.29-3.55,16.44-9.9,9.9,0,0-68.75-68.75-68.75-68.75-1.3-1.31-2.05-3.1-2.05-4.95,0-1.84.74-3.65,2.05-4.95,0,0,68.75-68.75,68.75-68.75,6.3-6.48,16.43,3.53,9.9,9.9,0,0-56.8,56.8-56.8,56.8h120.6c3.87,0,7,3.13,7,7Z"/>
</svg>