<?xml version="1.0" encoding="UTF-8"?>
<svg id="icons" xmlns="http://www.w3.org/2000/svg" viewBox="0 0 200 200">
  <defs>
    <style>
      .cls-1 {
        fill: #231f20;
      }
    </style>
  </defs>
  <path class="cls-1" d="m179.54,27.52v62.85c.13,9.08-14.14,9.09-14,0,0,0,0-45.71,0-45.71l-76.71,76.7c-2.74,2.74-7.16,2.73-9.9,0-2.73-2.73-2.73-7.16,0-9.9l76.95-76.94h-46.19c-3.87,0-7-3.14-7-7s3.13-7,7-7h62.85c3.86,0,7,3.13,7,7Z"/>
  <path class="cls-1" d="m141.36,180.99H34.46c-8.36,0-15.15-6.8-15.15-15.15C24.83,32.5-8.08,43.01,92.02,43.78c9.08-.1,9.09,14.11,0,14,0,0-57.56,0-57.56,0-3.3-.24-.05,106.9-1.16,108.06-.24,3.3,106.9.04,108.06,1.15.63,0,1.15-.52,1.15-1.16v-57.56c0-3.87,3.13-7,7-7s7,3.13,7,7v57.56c0,8.36-6.8,15.15-15.15,15.15Z"/>
</svg>