<?xml version="1.0" encoding="UTF-8"?>
<svg id="icons" xmlns="http://www.w3.org/2000/svg" viewBox="0 0 200 200">
  <defs>
    <style>
      .cls-1 {
        fill: #231f20;
      }
    </style>
  </defs>
  <path class="cls-1" d="m61.36,180.55c-36.53.74-56.3-46.04-29.71-71.7,14.16-12.98,32.39-38.98,54.36-36.96,11.22,0,21.77,4.37,29.71,12.31,4.95,5.37,15.02,16.93,5.21,22.23-8.79,3.47-9.9-8.17-15.11-12.33-10.43-10.87-29.19-10.87-39.62,0-16.58,17.76-48.36,37.73-24.65,64.27,25.42,23.71,47.25-8.27,64.27-24.65,6.31-6.52,16.43,3.58,9.9,9.9-13.86,12.87-32.99,39.21-54.36,36.94Z"/>
  <path class="cls-1" d="m113.89,128.02c-10.76,0-21.52-4.09-29.71-12.29-5.03-5.5-15.46-17.59-5.35-22.91,3.58-1.47,7.67.25,9.13,3.83,7.08,18.21,32.16,23.33,45.74,9.18,0,0,24.75-24.74,24.75-24.74,25.56-26.48-13.11-65.19-39.62-39.62,0,0-24.74,24.74-24.74,24.74-6.31,6.52-16.43-3.58-9.9-9.9,0,0,24.74-24.74,24.74-24.74,39.73-38.34,97.77,19.68,59.42,59.42-13.91,12.9-33.04,39.29-54.45,37.03Z"/>
</svg>