<?xml version="1.0" encoding="UTF-8"?>
<svg id="icons" xmlns="http://www.w3.org/2000/svg" viewBox="0 0 200 200">
  <defs>
    <style>
      .cls-1 {
        fill: #231f20;
      }
    </style>
  </defs>
  <path class="cls-1" d="m137.69,105.89H61.52c-9.06.13-9.1-14.13,0-14,0,0,76.17,0,76.17,0,9.06-.13,9.1,14.13,0,14Z"/>
  <path class="cls-1" d="m145.2,143.28h-28.92c-3.87,0-7-3.13-7-7s3.13-7,7-7h28.92c39.94-.71,39.94-60.07,0-60.78,0,0-28.92,0-28.92,0-9.07.15-9.09-14.15,0-14,0,0,28.92,0,28.92,0,58.33,1.04,58.33,87.74,0,88.78Z"/>
  <path class="cls-1" d="m82.93,143.28c-34.57,2.39-71.16-1.54-73.31-44.39,2.17-42.85,38.73-46.78,73.31-44.39,9.07-.11,9.09,14.12,0,14,0,0-28.92,0-28.92,0-39.94.71-39.94,60.07,0,60.78,0,0,28.92,0,28.92,0,9.07-.15,9.09,14.15,0,14Z"/>
</svg>