<?xml version="1.0" encoding="UTF-8"?>
<svg id="icons" xmlns="http://www.w3.org/2000/svg" viewBox="0 0 200 200">
  <defs>
    <style>
      .cls-1 {
        fill: #231f20;
      }
    </style>
  </defs>
  <path class="cls-1" d="m178.12,107H59.52c-3.87,0-7-3.13-7-7s3.13-7,7-7h118.6c9.05-.13,9.11,14.13,0,14Z"/>
  <path class="cls-1" d="m178.12,54.92H59.52c-3.87,0-7-3.13-7-7s3.13-7,7-7h118.6c9.05-.13,9.11,14.13,0,14Z"/>
  <path class="cls-1" d="m178.12,159.08H59.52c-3.87,0-7-3.13-7-7s3.13-7,7-7h118.6c9.05-.13,9.11,14.13,0,14Z"/>
  <path class="cls-1" d="m17.5,47.92c-.18-12.16,18.93-12.16,18.75,0,.18,12.16-18.93,12.16-18.75,0Z"/>
  <path class="cls-1" d="m17.5,100c-.18-12.16,18.93-12.16,18.75,0,.18,12.16-18.93,12.16-18.75,0Z"/>
  <path class="cls-1" d="m17.5,152.08c-.18-12.16,18.93-12.16,18.75,0,.18,12.16-18.93,12.16-18.75,0Z"/>
</svg>