<?xml version="1.0" encoding="UTF-8"?>
<svg id="icons" xmlns="http://www.w3.org/2000/svg" viewBox="0 0 200 200">
  <defs>
    <style>
      .cls-1 {
        fill: #231f20;
      }
    </style>
  </defs>
  <path class="cls-1" d="m149.92,74.99h-11.21c2.99-27.63-7.23-54.99-38.71-55.85-31.48.87-41.69,28.23-38.7,55.85-11.9-.7-25.65-.19-26.34,15.12,0,0,0,66.03,0,66.03,0,8.34,6.78,15.12,15.12,15.12,127.73-5.76,115.32,29.37,114.96-81.15,0-8.33-6.78-15.12-15.12-15.12Zm-74.62-16.96c.59-32.72,48.83-32.7,49.41,0,0,0,0,16.96,0,16.96h-49.41v-16.96Zm75.74,98.11c.26,3.16-99.86.07-100.96,1.12-3.12-.13-.1-65.78-1.12-67.15,0-.61.5-1.12,1.12-1.12h99.84c.62,0,1.12.51,1.12,1.12v66.03Z"/>
  <path class="cls-1" d="m100,149.36c-3.87,0-7-3.13-7-7,.89-6.13-3.6-23.65,7-23.46,3.87,0,7,3.13,7,7-.89,6.13,3.6,23.65-7,23.46Z"/>
</svg>