<?xml version="1.0" encoding="UTF-8"?>
<svg id="icons" xmlns="http://www.w3.org/2000/svg" viewBox="0 0 200 200">
  <defs>
    <style>
      .cls-1 {
        fill: #231f20;
      }
    </style>
  </defs>
  <path class="cls-1" d="m178.12,107H21.88c-3.87,0-7-3.13-7-7,0-3.87,3.13-7,7-7h156.25c9.04-.13,9.11,14.13,0,14Z"/>
  <path class="cls-1" d="m178.12,54.92H21.88c-3.87,0-7-3.13-7-7,0-3.87,3.13-7,7-7h156.25c9.04-.13,9.11,14.13,0,14Z"/>
  <path class="cls-1" d="m178.12,159.08H21.88c-3.87,0-7-3.13-7-7,0-3.87,3.13-7,7-7h156.25c9.04-.13,9.11,14.13,0,14Z"/>
</svg>