<?xml version="1.0" encoding="UTF-8"?>
<svg id="icons" xmlns="http://www.w3.org/2000/svg" viewBox="0 0 200 200">
  <defs>
    <style>
      .cls-1 {
        fill: #231f20;
      }
    </style>
  </defs>
  <path class="cls-1" d="m138.48,19.48H60.57c-8.27,0-15,6.73-15,15v131.04c0,8.27,6.73,15,15,15h77.91c8.27,0,15-6.73,15-15V34.48c0-8.27-6.73-15-15-15Zm1,146.04c.23,2.82-77.92.07-78.91,1-2.94.23.02-131.05-1-132.04-.22-2.81,77.92-.07,78.91-1,2.94-.23-.02,131.05,1,132.04Z"/>
  <path class="cls-1" d="m90.65,145.74c-.18-12.13,18.87-12.13,18.7,0,.18,12.13-18.87,12.13-18.7,0Z"/>
</svg>