<?xml version="1.0" encoding="UTF-8"?>
<svg id="icons" xmlns="http://www.w3.org/2000/svg" viewBox="0 0 200 200">
  <defs>
    <style>
      .cls-1 {
        fill: #231f20;
      }
    </style>
  </defs>
  <path class="cls-1" d="m174.83,19.35H25.17c-8.27,0-15,6.73-15,15,5.72,121.97-29.47,109.79,82.83,109.48v22.93h-24.17c-3.87,0-7,3.13-7,7s3.13,7,7,7h62.34c9.07.13,9.1-14.14,0-14,0,0-24.17,0-24.17,0v-22.93h67.83c8.27,0,15-6.73,15-15V34.35c0-8.27-6.73-15-15-15Zm1,109.48c.25,2.86-149.69.04-150.66,1-2.82.24-.06-94.5-1-95.48,0-.55.45-1,1-1h149.66c2.82-.24.07,94.5,1,95.48Z"/>
</svg>