<?xml version="1.0" encoding="UTF-8"?>
<svg id="icons" xmlns="http://www.w3.org/2000/svg" viewBox="0 0 200 200">
  <defs>
    <style>
      .cls-1 {
        fill: #231f20;
      }
    </style>
  </defs>
  <path class="cls-1" d="m100,9.84c-118.48,2.12-118.47,178.2,0,180.31,118.49-2.13,118.46-178.2,0-180.31Zm0,166.31C-.1,174.36-.07,25.62,100,23.84c100.08,1.79,100.08,150.53,0,152.31Z"/>
  <path class="cls-1" d="m157.65,100c0,3.86-3.13,7-7,7h-43.65v43.65c0,3.86-3.13,7-7,7s-7-3.14-7-7v-43.65h-43.65c-3.87,0-7-3.14-7-7s3.13-7,7-7h43.65v-43.66c0-3.86,3.14-7,7-7s7,3.14,7,7v43.66h43.65c3.87,0,7,3.13,7,7Z"/>
</svg>