<?xml version="1.0" encoding="UTF-8"?>
<svg id="icons" xmlns="http://www.w3.org/2000/svg" viewBox="0 0 200 200">
  <defs>
    <style>
      .cls-1 {
        fill: #231f20;
      }
    </style>
  </defs>
  <path class="cls-1" d="m158.44,17.48H41.56c-13.28,0-24.08,10.8-24.08,24.08v116.88c0,13.27,10.8,24.07,24.08,24.07h116.88c13.28,0,24.08-10.8,24.08-24.07V41.56c0-13.28-10.8-24.08-24.08-24.08Zm10.08,140.96c0,5.55-4.52,10.07-10.08,10.07H41.56c-5.56,0-10.08-4.52-10.08-10.07V41.56c0-5.56,4.52-10.08,10.08-10.08h116.88c5.56,0,10.08,4.52,10.08,10.08v116.88Z"/>
  <path class="cls-1" d="m157.65,100c0,3.86-3.13,7-7,7h-43.65v43.65c0,3.86-3.13,7-7,7s-7-3.14-7-7v-43.65h-43.65c-3.87,0-7-3.14-7-7s3.13-7,7-7h43.65v-43.66c0-3.86,3.14-7,7-7s7,3.14,7,7v43.66h43.65c3.87,0,7,3.13,7,7Z"/>
</svg>