<?xml version="1.0" encoding="UTF-8"?>
<svg id="icons" xmlns="http://www.w3.org/2000/svg" viewBox="0 0 200 200">
  <defs>
    <style>
      .cls-1 {
        fill: #231f20;
      }

      .cls-2 {
        fill: #010101;
      }
    </style>
  </defs>
  <path class="cls-1" d="m190.18,39.51v45.37c0,.24,0,.48-.04.71-.02.2-.04.39-.08.58-.04.21-.09.42-.15.63-.04.15-.09.31-.15.46-.02.08-.05.16-.08.23-.08.18-.15.35-.24.51h0c-.1.21-.21.4-.33.59-.08.14-.17.27-.27.39-.06.1-.14.2-.22.3-.11.13-.22.26-.34.39,0,.01-.03.03-.04.04-.12.12-.24.24-.36.34-.11.12-.23.22-.35.31-.14.12-.29.22-.44.33-.83.56-1.76.92-2.72,1.08-.38.08-.78.11-1.19.11h-45.37c-3.87,0-7-3.13-7-7s3.13-7,7-7h27.7l-22.21-20.87c-.05-.05-.1-.1-.16-.15-6.39-6.4-14.28-11.38-22.81-14.4-15.38-5.44-31.95-4.56-46.67,2.46-14.72,7.02-25.82,19.36-31.26,34.74-1.29,3.64-5.29,5.55-8.94,4.26-3.64-1.29-5.55-5.29-4.26-8.93,6.69-18.91,20.34-34.07,38.43-42.7,18.09-8.64,38.47-9.71,57.37-3.02,10.45,3.69,20.12,9.79,27.97,17.61l23.21,21.81v-29.18c0-3.87,3.14-7,7-7s7,3.13,7,7Z"/>
  <path class="cls-1" d="m170.8,125.03c-3.71,10.48-9.83,20.18-17.7,28.05-14.17,14.16-33.02,21.96-53.06,21.97,0,0,0,0-.02-.01-20.01,0-38.82-7.78-52.98-21.91l-23.22-21.82v29.19c0,3.87-3.13,7-7,7s-7-3.13-7-7v-45.38c0-.24,0-.47.04-.71.02-.2.05-.4.09-.6.01-.08.03-.16.05-.24.02-.12.05-.24.09-.36.04-.14.09-.3.14-.44,0-.01,0-.01,0-.02.03-.08.05-.16.09-.23.04-.11.08-.21.13-.31,0-.03.02-.05.03-.07.03-.07.06-.13.1-.2.09-.18.19-.35.3-.52.09-.16.19-.3.3-.45.05-.08.11-.15.18-.23.11-.14.23-.27.35-.4.02-.02.03-.03.05-.04.05-.06.11-.12.17-.18.06-.06.12-.11.18-.16.13-.12.26-.23.39-.33.26-.21.54-.4.83-.57.14-.08.29-.16.44-.23.15-.07.3-.14.45-.2.45-.18.92-.31,1.4-.39.38-.08.78-.11,1.19-.11h45.37c3.87,0,7,3.13,7,7s-3.13,7-7,7h-27.7l22.21,20.87c.05.05.11.1.16.15,11.53,11.54,26.86,17.89,43.17,17.89h0c16.31.01,31.63-6.34,43.17-17.87,6.4-6.39,11.37-14.28,14.39-22.81,1.29-3.65,5.29-5.56,8.94-4.27,3.64,1.29,5.55,5.29,4.26,8.94Z"/>
  <path class="cls-2" d="m15.63,108.24c-.48.08-.95.21-1.4.39.44-.18.91-.32,1.4-.39Z"/>
</svg>