<?xml version="1.0" encoding="UTF-8"?>
<svg id="icons" xmlns="http://www.w3.org/2000/svg" viewBox="0 0 200 200">
  <defs>
    <style>
      .cls-1 {
        fill: #231f20;
      }
    </style>
  </defs>
  <path class="cls-1" d="m190.18,39.51c-.53,2.79,1.1,46.77-.74,48.5-1.15,2.34-3.66,3.89-6.26,3.87,0,0-45.37,0-45.37,0-9.06.14-9.1-14.13,0-14,0,0,27.7,0,27.7,0-12.51-10.88-28.82-30.62-45.18-35.42-30.72-11.58-67.62,6.02-77.93,37.2-2.87,8.58-16.38,3.86-13.2-4.67,12.68-38.32,58.04-59.96,95.8-45.72,18.98,5.54,36.87,26.67,51.18,39.42v-29.18c-.13-9.08,14.14-9.08,14,0Z"/>
  <path class="cls-1" d="m170.8,125.03c-10.15,29.49-39.54,50.44-70.78,50.01-31.42,1.92-55.59-23.58-76.2-43.73v29.19c.14,9.06-14.14,9.1-14,0,0,0,0-45.38,0-45.38-.07-3.75,3.25-7.05,7-6.99,0,0,45.37,0,45.37,0,9.06-.14,9.1,14.14,0,14,0,0-27.7,0-27.7,0,17.83,16.88,38.51,40.7,65.54,38.91h0c25.41.33,49.3-16.68,57.56-40.68,2.9-8.61,16.36-3.86,13.2,4.67Z"/>
  <path class="cls-1" d="m15.63,108.24c-.48.08-.95.21-1.4.39.44-.18.91-.32,1.4-.39Z"/>
</svg>