<?xml version="1.0" encoding="UTF-8"?>
<svg id="icons" xmlns="http://www.w3.org/2000/svg" viewBox="0 0 200 200">
  <defs>
    <style>
      .cls-1 {
        fill: #231f20;
      }
    </style>
  </defs>
  <path class="cls-1" d="m166.54,83.92c-3.65,1.29-7.65-.62-8.94-4.26-10.31-31.18-47.21-48.78-77.93-37.2-16.28,4.74-32.79,24.61-45.18,35.42h27.7c9.06-.13,9.1,14.14,0,14,0,0-45.37,0-45.37,0-3.71.09-7.08-3.24-7-6.99,0,0,0-45.38,0-45.38-.14-9.06,14.14-9.1,14,0,0,0,0,29.19,0,29.19,31.63-32.31,61.46-57.24,108.55-36.41,12.12,2.95,51.48,42.22,34.17,51.63Z"/>
  <path class="cls-1" d="m190.18,115.13v45.37c.14,9.08-14.13,9.09-14,0,0,0,0-29.18,0-29.18-20.31,20.17-45.92,45.92-76.22,43.69-30.1.73-60.97-20.47-70.76-49.98-3.12-8.52,10.27-13.29,13.2-4.67,13.79,41.58,70.36,54.54,100.74,22.79.15-.14,22.21-20.87,22.37-21.02h-27.7c-9.06.13-9.1-14.14,0-14,0,0,45.37,0,45.37,0,2.61-.02,5.11,1.53,6.26,3.87.28.56.5,1.19.61,1.81.1.43.12.88.13,1.32Z"/>
</svg>