<?xml version="1.0" encoding="UTF-8"?>
<svg id="icons" xmlns="http://www.w3.org/2000/svg" viewBox="0 0 200 200">
  <defs>
    <style>
      .cls-1 {
        fill: #231f20;
      }
    </style>
  </defs>
  <path class="cls-1" d="m174.16,104.43c.43-.52.78-1.09,1.04-1.71-.26.62-.61,1.2-1.04,1.71Z"/>
  <path class="cls-1" d="m174.57,96.11c.25.36.46.75.63,1.16-.18-.4-.38-.79-.63-1.16Z"/>
  <path class="cls-1" d="m175.45,102.03c.1-.31.17-.63.21-.96-.04.33-.12.65-.21.96Z"/>
  <path class="cls-1" d="m175.75,100c0,1.85-.75,3.64-2.05,4.95,0,0-68.75,68.75-68.75,68.75-2.74,2.73-7.16,2.73-9.9,0-2.73-2.74-2.73-7.17,0-9.9l56.8-56.8H31.25c-3.87,0-7-3.14-7-7s3.13-7,7-7h120.6l-56.8-56.8c-2.73-2.74-2.73-7.17,0-9.9,2.73-2.74,7.17-2.74,9.9,0l68.75,68.75c1.31,1.3,2.05,3.11,2.05,4.95Z"/>
</svg>