<?xml version="1.0" encoding="UTF-8"?>
<svg id="icons" xmlns="http://www.w3.org/2000/svg" viewBox="0 0 200 200">
  <defs>
    <style>
      .cls-1 {
        fill: #231f20;
      }
    </style>
  </defs>
  <path class="cls-1" d="m186.93,176.02l-44.83-44.82C217.86,19.13,22.44-51.03,9.78,84.01c-2.03,61.81,77.1,97.91,122.48,57.15,2.36,1.21,47,49.98,49.72,46.82,5.98.21,9.41-7.78,4.95-11.95Zm-58.49-50.46c-.63.67-1.27,1.32-1.93,1.95,0,.01-.01.01-.01.02-35.68,37.08-104.5,8.72-102.72-43.53,0-33.41,27.19-60.6,60.6-60.6,51.88-1.76,80.44,66.25,44.06,102.16Z"/>
  <path class="cls-1" d="m128.44,125.56c-.63.67-1.27,1.32-1.93,1.95.5-.76,1.18-1.44,1.93-1.95Z"/>
</svg>