<?xml version="1.0" encoding="UTF-8"?>
<svg id="icons" xmlns="http://www.w3.org/2000/svg" viewBox="0 0 200 200">
  <defs>
    <style>
      .cls-1 {
        fill: #231f20;
      }
    </style>
  </defs>
  <path class="cls-1" d="m185.55,176.02l-34.85-34.85c43.61-48.6,5.03-133.32-61.18-131.14C-55.92,24.15,20.94,233.76,140.8,151.07c2.59,1.51,36.7,39.55,39.8,36.9,5.99.21,9.41-7.78,4.95-11.95Zm-48.92-40.15c-38.19,42.07-114.96,11.7-112.98-45.98,0-36.32,29.55-65.86,65.87-65.86,56.92-1.95,87.68,73.16,47.11,111.84Z"/>
  <path class="cls-1" d="m136.63,135.87c-.37.39-.75.77-1.14,1.14.32-.41.72-.82,1.14-1.14Z"/>
</svg>