<?xml version="1.0" encoding="UTF-8"?>
<svg id="icons" xmlns="http://www.w3.org/2000/svg" viewBox="0 0 200 200">
  <defs>
    <style>
      .cls-1 {
        fill: #231f20;
      }
    </style>
  </defs>
  <path class="cls-1" d="m100,66.41c-44.6.8-44.58,66.74,0,67.53,44.59-.8,44.59-66.74,0-67.53Zm0,53.53c-26.19-.47-26.19-39.06,0-39.53,26.2.47,26.18,39.06,0,39.53Z"/>
  <path class="cls-1" d="m162.36,125.43c3.25-6.25,13.7-.85,21.29-9.8,13.97-13.01,3.47-38.43-15.63-37.75-5.44,1.06-8.89-6.14-5.26-9.96,4.38-4.14,6.97-10.06,6.94-16.1.45-15.26-16.66-26.7-30.6-20.44-4.17,1.18-6.46,5.39-10.42,6.67-3.51.73-7-2.51-6.56-6.07-.45-29.01-43.78-29.1-44.23,0,.72,4.24-3.2,7.29-7.18,6.67-3.99-1.3-6.21-5.49-10.42-6.67-22.09-9.47-41.39,20.11-23.71,36.49,3.42,3.3.72,9.97-4.01,10.02-6.1-.14-11.92,2.15-16.22,6.47-13.97,13.02-3.47,38.45,15.64,37.76,1.48-.07,3.01.03,4.25.9,7.03,5.33-2.64,10.7-4.25,16.09-9.41,21.76,19.54,41.17,36.08,24.11,3.16-3.94,10.35-1.39,10.42,3.61-.14,6.1,2.15,11.91,6.48,16.22,8.22,8.58,23.05,8.59,31.27,0,4.18-4.18,6.48-9.73,6.48-15.64-.98-5.17,5.55-9,9.36-5.25,16.29,17.71,46.1-1.5,36.54-23.66-1.16-5.05-8.65-8.04-6.26-13.67Zm-5.72-14.08c-6.43,4.17-9.9,12.3-8.46,19.83.45,8.05,13.43,14.13,5.74,22.14-8.04,7.65-14.03-5.29-22.13-5.75-7.61-1.43-15.63,2.02-19.83,8.46-2.37,3.51-3.4,7.73-3.24,11.98.25,6.98-9.08,10.89-13.85,5.74-1.78-1.72-2.52-4.14-2.38-6.58-.1-7.76-5.26-15.05-12.54-17.74-17.08-7.17-20.3,9.76-30.63,6.25-12.79-7.62,2.22-14.88,3.11-23.9,1.44-7.6-2.02-15.62-8.46-19.83-6.21-5.28-19.81-.06-20.1-11.35-.1-4.65,4.19-8.52,8.8-8.11,12,.11,21.42-12.08,19.16-23.67-.89-8.99-15.9-16.3-3.12-23.9,7.86-3.2,11.89,7.31,19.51,7.51,11.72,2.33,23.94-6.95,23.67-19.16-1.17-7.49,8.53-12.64,13.85-7.03,4.22,4.71,1.21,12.18,5.61,17.12,4.22,6.48,12.28,9.88,19.83,8.46,7.54-.18,11.67-10.7,19.5-7.51,12.79,7.63-2.22,14.87-3.11,23.9-2.33,11.72,6.95,23.96,19.16,23.67,2.56-.17,5.2.47,7.02,2.38,5.12,4.76,1.28,14.1-5.73,13.85-4.04-.1-8.02,1-11.38,3.24Z"/>
</svg>