<?xml version="1.0" encoding="UTF-8"?>
<svg id="icons" xmlns="http://www.w3.org/2000/svg" viewBox="0 0 200 200">
  <defs>
    <style>
      .cls-1 {
        fill: #231f20;
      }
    </style>
  </defs>
  <path class="cls-1" d="m189.96,79.31c-.94-2.88-3.63-4.84-6.66-4.84h-58.55l-18.09-55.68c-.94-2.89-3.63-4.84-6.66-4.84s-5.72,1.95-6.66,4.84l-18.09,55.68H16.7c-3.03,0-5.72,1.96-6.66,4.84-.93,2.88.09,6.04,2.55,7.83l47.36,34.41-18.09,55.69c-.94,2.88.09,6.04,2.54,7.82,2.45,1.78,5.78,1.79,8.23,0,0,0,47.37-34.41,47.37-34.41l47.37,34.41c2.45,1.79,5.77,1.78,8.23,0,2.45-1.78,3.48-4.94,2.54-7.82l-18.09-55.69,47.37-34.41c2.45-1.79,3.48-4.95,2.54-7.83Zm-62.26,33.9c-2.45,1.79-3.48,4.95-2.54,7.83l13.01,40.03c-47.96-33.72-28.48-33.56-76.34,0,17.23-56.36,23.31-37.19-23.59-72.6,58.93-1.04,42.56,10.68,61.76-44.87,19.19,55.72,3,43.78,61.76,44.87l-34.06,24.74Z"/>
</svg>