<?xml version="1.0" encoding="UTF-8"?>
<svg id="icons" xmlns="http://www.w3.org/2000/svg" viewBox="0 0 200 200">
  <defs>
    <style>
      .cls-1 {
        fill: #231f20;
      }
    </style>
  </defs>
  <path class="cls-1" d="m155.96,9.96H44.04c-8.27,0-15,6.72-15,15v150.08c0,8.28,6.73,15,15,15h111.92c8.27,0,15-6.72,15-15V24.96c0-8.28-6.73-15-15-15Zm1,165.08c.24,2.87-111.94.03-112.92,1-.55,0-1-.44-1-1V24.96c-.24-2.87,111.94-.03,112.92-1,.55,0,1,.44,1,1s0,150.08,0,150.08Z"/>
  <path class="cls-1" d="m90.71,155.09c-.18-12.13,18.87-12.13,18.7,0,.18,12.13-18.87,12.13-18.7,0Z"/>
</svg>