<?xml version="1.0" encoding="UTF-8"?>
<svg id="icons" xmlns="http://www.w3.org/2000/svg" viewBox="0 0 200 200">
  <defs>
    <style>
      .cls-1 {
        fill: #231f20;
      }
    </style>
  </defs>
  <path class="cls-1" d="m168.68,76.9s-59.43-59.42-59.43-59.42c2.8-4.01-73.13-1.32-74.13-2.05-3.86,0-7,3.13-7,7,0,0,0,69.18,0,69.18-3.25,4.17,60.27,60.85,61.42,64.24,8.11,8.19,21.41,8.21,29.54.06,0,0,49.6-49.6,49.6-49.6,0-.01.01-.01.01-.02,8.06-8.1,8.06-21.27-.01-29.39Zm-9.91,19.52c-75.88,73.15-36.98,63.99-116.65-7.72V29.43h59.28l57.37,57.36c2.63,2.65,2.64,6.97,0,9.63Z"/>
  <path class="cls-1" d="m104.36,184.57c-6.94,0-13.46-2.7-18.36-7.6L21.38,112.43c-6.48-6.3,3.53-16.43,9.89-9.9,0,0,64.6,64.53,64.6,64.53,4.48,4.66,12.49,4.66,16.96,0,0,0,55.89-55.89,55.89-55.89,6.29-6.5,16.45,3.56,9.9,9.9,0,0-55.88,55.88-55.88,55.88-4.91,4.91-11.44,7.62-18.38,7.62Z"/>
  <path class="cls-1" d="m59.73,59.2c.08-18.18,27.73-18.18,27.81,0-.08,18.18-27.73,18.18-27.81,0Z"/>
</svg>