<?xml version="1.0" encoding="UTF-8"?>
<svg id="icons" xmlns="http://www.w3.org/2000/svg" viewBox="0 0 200 200">
  <defs>
    <style>
      .cls-1 {
        fill: #231f20;
      }
    </style>
  </defs>
  <path class="cls-1" d="m155.47,49.97c.05.24.08.48.1.72-.02-.24-.06-.48-.1-.72Z"/>
  <path class="cls-1" d="m155.61,51.6c0-.15,0-.3-.01-.45.01.13.01.32.01.45Z"/>
  <path class="cls-1" d="m155.6,51.15c0-.15,0-.31-.02-.46.02.15.02.31.02.46Z"/>
  <path class="cls-1" d="m155.61,51.38v97.23c.14,9.07-14.13,9.09-14,0,0,0,0-80.33,0-80.33,0,0-85.27,85.28-85.27,85.28-2.73,2.73-7.17,2.74-9.9,0-2.74-2.73-2.74-7.17,0-9.9l85.28-85.28H51.39c-3.87,0-7-3.13-7-7s3.13-7,7-7h97.23c3.75-.07,7.07,3.23,6.99,7Z"/>
</svg>