<?xml version="1.0" encoding="UTF-8"?>
<svg id="icons" xmlns="http://www.w3.org/2000/svg" viewBox="0 0 200 200">
  <defs>
    <style>
      .cls-1 {
        fill: #231f20;
      }
    </style>
  </defs>
  <path class="cls-1" d="m44.39,51.38c0-.08,0-.15.01-.23,0,.15-.02.3-.01.45v-.22Z"/>
  <path class="cls-1" d="m44.42,50.69c-.01.15-.02.31-.02.46,0-.15,0-.31.02-.46Z"/>
  <path class="cls-1" d="m44.53,49.97c-.05.24-.08.48-.1.72.02-.24.06-.48.1-.72Z"/>
  <path class="cls-1" d="m153.56,153.56c-2.71,2.73-7.17,2.74-9.89,0,0,0-85.28-85.28-85.28-85.28v80.33c.14,9.04-14.14,9.12-14,0,1.11-1.07-2.72-106.94,2.76-102.8,1.2-.92,2.72-1.43,4.24-1.43,0,0,97.22,0,97.22,0,9.04-.12,9.12,14.13,0,14,0,0-80.32,0-80.32,0l85.27,85.28c2.74,2.73,2.74,7.17,0,9.9Z"/>
</svg>