<?xml version="1.0" encoding="UTF-8"?>
<svg id="icons" xmlns="http://www.w3.org/2000/svg" viewBox="0 0 200 200">
  <defs>
    <style>
      .cls-1 {
        fill: #231f20;
      }
    </style>
  </defs>
  <path class="cls-1" d="m161.41,19.26c-31.51.88-41.68,28.24-38.7,55.86-97.71,3.82-88.28-23.83-87.75,81.14,0,8.34,6.78,15.12,15.12,15.12h99.84c8.34,0,15.12-6.78,15.12-15.12v-66.03c-.79-16.38-16.05-15.56-28.33-15.11,0,0,0-16.97,0-16.97.59-32.71,48.81-32.71,49.4,0,0,0,0,23.97,0,23.97,0,3.86,3.13,7,7,7s7-3.14,7-7c2.23-29.9-2.17-61.07-38.7-62.86Zm-11.49,69.86c.62,0,1.12.5,1.12,1.11v66.03c.26,3.16-99.86.07-100.96,1.12-3.12-.13-.1-65.78-1.12-67.15-.25-3.12,99.87-.08,100.96-1.11Z"/>
  <path class="cls-1" d="m100,151.46c-3.87,0-7-3.13-7-7,.89-6.13-3.6-23.65,7-23.46,3.87,0,7,3.13,7,7-.89,6.13,3.6,23.65-7,23.46Z"/>
</svg>