<?xml version="1.0" encoding="UTF-8"?>
<svg id="icons" xmlns="http://www.w3.org/2000/svg" viewBox="0 0 200 200">
  <defs>
    <style>
      .cls-1 {
        fill: #231f20;
      }
    </style>
  </defs>
  <path class="cls-1" d="m161.41,19.26c-21.34,0-38.7,17.45-38.7,38.89v16.97H50.08c-8.34,0-15.12,6.78-15.12,15.11v66.03c0,8.34,6.78,15.12,15.12,15.12h99.84c8.34,0,15.12-6.78,15.12-15.12v-66.03c0-8.33-6.78-15.11-15.12-15.11h-13.21v-16.97c0-13.72,11.08-24.89,24.7-24.89s24.7,11.17,24.7,24.89v23.97c0,3.86,3.13,7,7,7s7-3.14,7-7v-23.97c0-21.44-17.36-38.89-38.7-38.89Zm-11.49,69.86c.62,0,1.12.5,1.12,1.11v66.03c0,.62-.5,1.12-1.12,1.12H50.08c-.62,0-1.12-.5-1.12-1.12v-66.03c0-.61.5-1.11,1.12-1.11h99.84Z"/>
  <path class="cls-1" d="m100,151.46c-3.87,0-7-3.13-7-7v-16.46c0-3.87,3.13-7,7-7s7,3.13,7,7v16.46c0,3.87-3.13,7-7,7Z"/>
</svg>