<?xml version="1.0" encoding="UTF-8"?>
<svg id="icons" xmlns="http://www.w3.org/2000/svg" viewBox="0 0 200 200">
  <defs>
    <style>
      .cls-1 {
        fill: #231f20;
      }
    </style>
  </defs>
  <path class="cls-1" d="m173.7,104.95c-2.74,2.73-7.16,2.73-9.9,0,0,0-56.8-56.8-56.8-56.8v120.6c0,3.86-3.13,7-7,7s-7-3.14-7-7V48.15s-56.8,56.8-56.8,56.8c-2.73,2.73-7.17,2.73-9.9,0-2.73-2.74-2.73-7.17,0-9.9L95.05,26.3c1.01-1,2.2-1.64,3.54-1.91,2.97-6.04,72.62,69.93,75.11,70.66,2.73,2.73,2.73,7.16,0,9.9Z"/>
  <path class="cls-1" d="m101.41,24.39c-.9-.19-1.91-.18-2.82,0,.93-.19,1.89-.19,2.82,0Z"/>
</svg>