<?xml version="1.0" encoding="UTF-8"?>
<svg id="icons" xmlns="http://www.w3.org/2000/svg" viewBox="0 0 200 200">
  <defs>
    <style>
      .cls-1 {
        fill: #231f20;
      }
    </style>
  </defs>
  <path class="cls-1" d="m146.39,148.98c-.17-11.68,18.17-11.68,18,0,.17,11.68-18.17,11.68-18,0Z"/>
  <path class="cls-1" d="m153.7,72.93c-2.52,2.93-6.94,3.27-9.87.75l-36.83-31.64v93.11c0,3.87-3.13,7-7,7s-7-3.13-7-7V42.04l-36.83,31.64c-2.91,2.51-7.35,2.19-9.87-.75-2.52-2.94-2.18-7.35.75-9.87l48.39-41.57c2.18-1.92,5.58-2.24,8.07-.74,1.24.6,48.3,41.49,49.44,42.31,2.94,2.52,3.27,6.93.75,9.87Z"/>
  <path class="cls-1" d="m174.71,180.2H25.29c-8.5,0-15.42-6.92-15.42-15.42,0,0,0-31.6,0-31.6,0-8.5,6.92-15.42,15.42-15.42h56.34c9.09-.12,9.07,14.13,0,14,0,0-56.34,0-56.34,0-3.2-1.65-.64,32.45-1.42,33.02-.32,4.03,149.44.08,150.85,1.42.78,0,1.42-.64,1.42-1.42v-31.6c0-.78-.64-1.42-1.42-1.42h-56.59c-9.09.14-9.07-14.14,0-14,0,0,56.59,0,56.59,0,8.5,0,15.42,6.92,15.42,15.42-1.68,13.9,7.29,46.65-15.42,47.02Z"/>
</svg>