<?xml version="1.0" encoding="UTF-8"?>
<svg id="icons" xmlns="http://www.w3.org/2000/svg" viewBox="0 0 200 200">
  <defs>
    <style>
      .cls-1 {
        fill: #231f20;
      }
    </style>
  </defs>
  <path class="cls-1" d="m174.75,174H25.25c-8.48,0-15.38-6.9-15.38-15.38,0,0,0-36.28,0-36.28,0-3.87,3.13-7,7-7s7,3.13,7,7c.65.74-1.65,39.02,1.38,37.66,1.39-1.33,151.17,2.58,150.88-1.38,0,0,0-36.29,0-36.29-.18-9.07,14.17-9.09,14,0,0,0,0,36.28,0,36.28,0,8.48-6.9,15.38-15.38,15.38Z"/>
  <path class="cls-1" d="m153.7,79.12c-2.52,2.94-6.94,3.27-9.87.75l-36.83-31.64v93.11c0,3.87-3.13,7-7,7s-7-3.13-7-7V48.23s-36.83,31.64-36.83,31.64c-2.91,2.52-7.35,2.19-9.87-.75-2.52-2.93-2.18-7.35.75-9.87l48.39-41.56c2.19-1.92,5.58-2.25,8.07-.74,1.24.6,48.3,41.48,49.44,42.3,2.94,2.52,3.27,6.94.75,9.87Z"/>
</svg>