<?xml version="1.0" encoding="UTF-8"?>
<svg id="icons" xmlns="http://www.w3.org/2000/svg" viewBox="0 0 200 200">
  <defs>
    <style>
      .cls-1 {
        fill: #231f20;
      }
    </style>
  </defs>
  <g>
    <path class="cls-1" d="m134.31,132.28c-2.52,2.94-6.96,3.26-9.87.75,0,0-17.44-14.99-17.44-14.99v49.7c0,3.86-3.13,7-7,7s-7-3.14-7-7v-49.7l-17.44,14.99c-6.79,6-16.11-4.8-9.12-10.62,0,0,29-24.91,29-24.91,2.18-1.92,5.58-2.25,8.07-.74,2.12,1.31,28.32,24.35,30.05,25.65,2.93,2.51,3.27,6.93.75,9.87Z"/>
    <path class="cls-1" d="m99.84,95.82c-.12,0-.24,0-.35.02.12,0,.23-.02.35-.02Z"/>
    <path class="cls-1" d="m98.64,95.94c.28-.05.56-.08.84-.1-.28.02-.57.05-.84.1Z"/>
    <path class="cls-1" d="m100.72,95.85c-.29-.03-.59-.04-.88-.03.29-.02.59,0,.88.03Z"/>
  </g>
  <path class="cls-1" d="m173.91,145.31c-5.71.17-9.2-7.09-5.41-11.44,4.9-5.96,7.59-13.51,7.59-21.26,0-18.42-14.9-33.41-33.21-33.41-5.67-.16-13.75,3.9-16.26-3.65C108.77,19.3,23.25,33.19,23.89,92.25c0,13.85,5.28,26.96,14.88,36.89,6.44,6.42-3.89,16.36-10.07,9.72C-39.83,60.02,91.16-28.19,137.76,65.48c27.68-3.18,52.51,19.16,52.34,47.13-.27,10.52-4.68,29.97-16.19,32.7Z"/>
</svg>