<?xml version="1.0" encoding="UTF-8"?>
<svg id="icons" xmlns="http://www.w3.org/2000/svg" viewBox="0 0 200 200">
  <defs>
    <style>
      .cls-1 {
        fill: #231f20;
      }
    </style>
  </defs>
  <path class="cls-1" d="m100.03,9.81c-50.87.91-50.85,76.51,0,77.41,50.87-.91,50.87-76.51,0-77.41Zm0,63.41c-32.46-.58-32.46-48.83,0-49.41,32.48.58,32.46,48.84,0,49.41Z"/>
  <path class="cls-1" d="m170.34,148.58c-2.02-78.67-137.93-74.71-140.59-.42-.85,16.48,4.9,29.57,16.16,36.85,9.34,7.44,34.88,4.12,52.96,4.75,35.33-.1,70.71,8.95,71.47-41.18Zm-24.2,25.14c-6.55,4.84-37.89,1.24-52.76,2.03-30.28-.07-50.55,5.37-49.63-27.39,2.1-55.53,110.21-61.32,112.59.67.38,11.86-3.05,20.17-10.2,24.69Z"/>
</svg>