<?xml version="1.0" encoding="UTF-8"?>
<svg id="icons" xmlns="http://www.w3.org/2000/svg" viewBox="0 0 200 200">
  <defs>
    <style>
      .cls-1 {
        fill: #231f20;
      }
    </style>
  </defs>
  <path class="cls-1" d="m186.8,49.57c-3.69-5.21-43.94,16.42-48.32,16.98,1.19-9.32-5.15-18.47-15-18.38,0,0-99.1,0-99.1,0-8.27,0-15,6.73-15,15,0,0,0,73.65,0,73.65,0,8.28,6.73,15,15,15h99.1c9.84.08,16.21-9.04,15-18.38,4.6.65,44.44,22.13,48.32,16.99,6.37,2.99,1.87-93.15,3.13-95.03,0-2.34-1.18-4.53-3.13-5.83Zm-62.32,87.25c.21,2.86-99.1.04-100.1,1-2.87.16-.03-73.62-1-74.65,0-.55.44-1,1-1h99.1c2.86-.17.04,73.62,1,74.65Zm51.45-2.78l-37.45-15.79v-36.51l37.45-15.79v68.09Z"/>
</svg>