<?xml version="1.0" encoding="UTF-8"?>
<svg id="icons" xmlns="http://www.w3.org/2000/svg" viewBox="0 0 200 200">
  <defs>
    <style>
      .cls-1 {
        fill: #231f20;
      }
    </style>
  </defs>
  <path class="cls-1" d="m190.28,55.4c-1.29,2.19,3.29,97.72-3.13,95.03-1.89,1.23-4.22,1.51-6.31.71,0,0-26.24-26.24-26.24-26.24l21.68,9.14v-68.09l-37.45,15.79v27.39l-14-14v-31.96c0-.55-.45-1-1-1h-31.96l-14-14h45.96c9.85-.09,16.2,9.05,15,18.38l41.73-17.6c4.41-2.02,9.86,1.6,9.72,6.45Z"/>
  <path class="cls-1" d="m173.7,163.8C131.17,121.27,78.76,68.87,36.2,26.3c-6.3-6.48-16.43,3.54-9.9,9.9,0,0,11.97,11.97,11.97,11.97-12.2-.37-27.78-1.51-28.55,15,0,0,0,73.65,0,73.65,0,8.28,6.73,15,15,15,8.61-2.31,108.31,6.05,111.15-6.05,3.06,1.96,28.88,31.78,32.88,29.98,5.99.21,9.41-7.8,4.95-11.95Zm-48.87-26.98c.21,2.86-99.11.04-100.11,1-.55,0-1-.44-1-1,.97-1.05-1.86-74.8,1-74.65,0,0,27.55,0,27.55,0l72.56,72.56v2.09Z"/>
</svg>