<?xml version="1.0" standalone="no"?>
<!DOCTYPE svg PUBLIC "-//W3C//DTD SVG 1.1//EN" "http://www.w3.org/Graphics/SVG/1.1/DTD/svg11.dtd" >
<svg xmlns="http://www.w3.org/2000/svg">
<metadata>Generated by IcoMoon</metadata>
<defs>
<font id="gs-icons" horiz-adv-x="1024">
<font-face units-per-em="1024" ascent="960" descent="-64" />
<missing-glyph horiz-adv-x="1024" />
<glyph unicode="&#x20;" horiz-adv-x="512" d="" />
<glyph unicode="&#xe900;" glyph-name="bookmark-thick" d="M800.614 909.107s-576.614 0-576.614 0c-42.342 0-76.8-33.946-76.8-75.674 0.307-5.325-0.461-809.114 0.205-813.568 1.229-13.824 11.418-26.317 24.576-30.413 16.845-26.419 323.686 229.786 340.326 234.086 0.666-0.461 307.866-228.864 308.531-229.222 20.070-15.206 51.866-2.509 55.91 22.374 2.048 8.602-0.051 808.192 0.666 816.742 0 41.728-34.458 75.674-76.8 75.674zM533.658 296.96c-12.288 9.37-30.464 9.37-42.752 0 0 0-272.026-202.138-272.026-202.138v738.611c0.256 11.571 576.87 0.051 581.734 3.994 14.797 2.611 0.102-738.56 5.12-742.605-1.638 1.229-270.694 201.062-272.077 202.138z" />
<glyph unicode="&#xe901;" glyph-name="bottom-left-arrow-thick" d="M227.277 200.243c0-0.768 0-1.536 0.051-2.304-0.051 0.666-0.051 1.638-0.051 2.304zM227.994 191.898c-0.256 1.229-0.41 2.458-0.512 3.686 0.102-1.229 0.307-2.458 0.512-3.686zM227.43 195.584c-0.102 0.768-0.102 1.587-0.102 2.355 0-0.768 0-1.587 0.102-2.355zM796.723 199.117c0-19.814-16.026-35.84-35.84-35.84-5.939 5.632-547.482-13.824-526.285 14.131-4.762 6.144-7.322 13.926-7.322 21.709 0 0 0 497.818 0 497.818 0 19.763 16.026 35.84 35.84 35.84s35.84-16.077 35.84-35.84v-411.29l436.634 436.634c13.978 13.978 36.659 13.978 50.637 0 14.029-14.029 14.029-36.71 0-50.688l-436.582-436.634h411.238c19.814 0 35.84-16.026 35.84-35.84z" />
<glyph unicode="&#xe902;" glyph-name="bottom-right-arrow-thick" d="M796.723 696.934v-497.818c0.154-14.49-9.37-28.467-22.989-33.434-20.019-7.68-491.827 0.461-510.669-2.406-19.763 0-35.84 16.026-35.84 35.84s16.077 35.84 35.84 35.84c0 0 411.29 0 411.29 0l-436.634 436.634c-13.978 13.978-13.978 36.659 0 50.688 14.029 13.978 36.71 13.978 50.688 0l436.634-436.634v411.29c-0.717 46.438 72.397 46.49 71.68 0z" />
<glyph unicode="&#xe903;" glyph-name="briefcase-thick" d="M837.376 708.454h-115.302c4.147 61.798-1.28 128.666-79.667 132.25 0 0-260.659 0-260.659 0-78.234-3.482-83.917-70.502-79.667-132.25-73.626-2.355-198.81 23.501-202.342-87.040 0 0 0-449.229 0-449.229 0-47.974 39.066-87.040 87.040-87.040h650.598c47.974 0 87.040 39.066 87.040 87.040 0 0 0 449.229 0 449.229 0 47.974-39.066 87.040-87.040 87.040zM373.76 763.034c0 2.816 3.277 5.99 7.987 5.99h260.659c4.71 0 7.987-3.174 7.987-5.99v-54.579h-276.634v54.579zM171.418 621.414c0 8.448 6.861 15.36 15.36 15.36h650.598c8.448 0 15.36-6.912 15.36-15.36v-142.694h-681.318v142.694zM427.213 407.040h169.728c0.819-10.906 0.358-35.328-12.902-34.714 0 0-143.974 0-143.974 0-13.056-0.614-13.824 23.859-12.851 34.714zM852.736 172.186c0-8.448-6.912-15.36-15.36-15.36h-650.598c-8.499 0-15.36 6.912-15.36 15.36v234.854h184.115c-6.144-53.862 30.874-107.059 84.531-106.394 88.422 5.581 236.339-35.482 228.557 106.394h184.115v-234.854z" />
<glyph unicode="&#xe904;" glyph-name="calendar-2-thick" d="M896.307 861.85h-135.629c1.485 27.853 2.714 69.939-35.84 69.99-38.554-0.051-37.325-42.189-35.84-69.99h-353.946c1.485 27.853 2.714 69.939-35.84 69.99-38.554-0.051-37.325-42.189-35.84-69.99-66.509-5.683-211.61 30.31-212.838-77.158 0 0 0-673.331 0-673.331 0-42.547 34.611-77.158 77.158-77.158 0 0 768.614 0 768.614 0 42.547 0 77.158 34.611 77.158 77.158 0 0 0 673.331 0 673.331 0 42.547-34.611 77.158-77.158 77.158zM901.786 111.36c1.229-15.974-768.666 0-774.093-5.478-15.667-1.126-0.205 482.202-5.478 487.68h779.571v-482.202zM901.786 665.242h-779.571c2.714 3.123-6.4 130.202 5.478 124.928 0 0 135.68 0 135.68 0-1.485-27.853-2.714-69.939 35.84-69.99 38.502 0.051 37.325 42.189 35.84 69.99h353.946c-1.485-27.853-2.714-69.939 35.84-69.99 38.502 0.051 37.325 42.189 35.84 69.99h135.629c11.827 5.734 2.816-122.368 5.478-124.928zM307.763 386.714c-27.136 4.454-110.080-16.947-109.056 30.72 4.454 27.136-16.947 110.080 30.72 109.056 27.136-4.454 110.080 16.947 109.056-30.72-4.454-27.136 16.947-110.080-30.72-109.056zM551.168 386.714c-27.136 4.454-110.080-16.947-109.056 30.72 4.454 27.136-16.947 110.080 30.72 109.056 27.136-4.454 110.080 16.947 109.056-30.72-4.454-27.136 16.947-110.080-30.72-109.056zM794.573 386.714c-27.136 4.454-110.080-16.947-109.056 30.72 4.454 27.136-16.947 110.080 30.72 109.056 27.136-4.454 110.080 16.947 109.056-30.72-4.454-27.136 16.947-110.080-30.72-109.056zM307.763 171.162c-27.136 4.454-110.080-16.947-109.056 30.72 4.454 27.136-16.947 110.080 30.72 109.056 27.136-4.454 110.080 16.947 109.056-30.72-4.454-27.136 16.947-110.080-30.72-109.056zM551.168 171.162c-27.136 4.454-110.080-16.947-109.056 30.72 4.454 27.136-16.947 110.080 30.72 109.056 27.136-4.454 110.080 16.947 109.056-30.72-4.454-27.136 16.947-110.080-30.72-109.056zM794.573 171.162c-27.136 4.454-110.080-16.947-109.056 30.72 4.454 27.136-16.947 110.080 30.72 109.056 27.136-4.454 110.080 16.947 109.056-30.72-4.454-27.136 16.947-110.080-30.72-109.056z" />
<glyph unicode="&#xe905;" glyph-name="calendar-alt-thick" d="M896.307 861.85h-135.629c1.485 27.853 2.714 69.939-35.84 69.99-38.554-0.051-37.325-42.189-35.84-69.99h-353.946c1.485 27.853 2.714 69.939-35.84 69.99-38.554-0.051-37.325-42.189-35.84-69.99-66.509-5.683-211.61 30.31-212.838-77.158 0 0 0-673.331 0-673.331 0-42.547 34.611-77.158 77.158-77.158 0 0 768.614 0 768.614 0 42.547 0 77.158 34.611 77.158 77.158v673.331c0 42.547-34.611 77.158-77.158 77.158zM332.595 105.882h-204.902c-3.021 0-5.478 2.458-5.478 5.478v109.21h210.381v-114.688zM332.595 292.25h-210.381v114.79h210.381v-114.79zM332.595 478.72h-210.381v114.842h210.381v-114.842zM618.854 105.882h-214.579v114.688h214.579v-114.688zM618.854 292.25h-214.579v114.79h214.579v-114.79zM618.854 478.72h-214.579v114.842h214.579v-114.842zM901.786 111.36c-2.816-13.67-202.803-1.587-211.251-5.478v114.688h211.251v-109.21zM901.786 292.25h-211.251v114.79h211.251v-114.79zM901.786 478.72h-211.251v114.842h211.251v-114.842zM901.786 665.242h-779.571c2.714 3.123-6.4 130.202 5.478 124.928 0 0 135.68 0 135.68 0-1.485-27.853-2.714-69.939 35.84-69.99 38.502 0.051 37.325 42.189 35.84 69.99h353.946c-1.485-27.853-2.714-69.939 35.84-69.99 38.502 0.051 37.325 42.189 35.84 69.99h135.629c11.878 5.734 2.816-122.368 5.478-124.928z" />
<glyph unicode="&#xe906;" glyph-name="calendar-thick" d="M896.307 861.85h-135.629c1.485 27.853 2.714 69.939-35.84 69.99-38.554-0.051-37.325-42.189-35.84-69.99h-353.946c1.485 27.853 2.714 69.939-35.84 69.99-38.554-0.051-37.325-42.189-35.84-69.99-66.509-5.683-211.61 30.31-212.838-77.158 0 0 0-673.331 0-673.331 0-42.547 34.611-77.158 77.158-77.158 0 0 768.614 0 768.614 0 42.547 0 77.158 34.611 77.158 77.158 0 0 0 673.331 0 673.331 0 42.547-34.611 77.158-77.158 77.158zM901.786 111.36c1.229-15.974-768.666 0-774.093-5.478-15.667-1.126-0.205 482.202-5.478 487.68h779.571v-482.202zM901.786 665.242h-779.571c2.714 3.123-6.4 130.202 5.478 124.928 0 0 135.68 0 135.68 0-1.485-27.853-2.714-69.939 35.84-69.99 38.502 0.051 37.325 42.189 35.84 69.99h353.946c-1.485-27.853-2.714-69.939 35.84-69.99 38.502 0.051 37.325 42.189 35.84 69.99h135.629c11.878 5.734 2.816-122.368 5.478-124.928zM278.067 394.24c-25.446 1.894-84.685-11.11-83.763 30.72 1.894 25.446-11.11 84.685 30.72 83.763 25.446-1.894 84.685 11.11 83.763-30.72-1.894-25.446 11.11-84.685-30.72-83.763zM278.067 188.877c-25.446 1.894-84.685-11.11-83.763 30.72 1.894 25.446-11.11 84.685 30.72 83.763 25.446-1.894 84.685 11.11 83.763-30.72-1.894-25.446 11.11-84.685-30.72-83.763zM453.376 394.24c-25.446 1.894-84.685-11.11-83.763 30.72 1.894 25.446-11.11 84.685 30.72 83.763 25.446-1.894 84.685 11.11 83.763-30.72-1.894-25.446 11.11-84.685-30.72-83.763zM624.026 394.24c-25.446 1.894-84.685-11.11-83.763 30.72 1.894 25.446-11.11 84.685 30.72 83.763 25.446-1.894 84.685 11.11 83.763-30.72-1.894-25.446 11.11-84.685-30.72-83.763zM798.976 394.24c-25.446 1.894-84.685-11.11-83.763 30.72 1.894 25.446-11.11 84.685 30.72 83.763 25.446-1.894 84.685 11.11 83.763-30.72-1.894-25.446 11.11-84.685-30.72-83.763zM453.376 188.877c-25.446 1.894-84.685-11.11-83.763 30.72 1.894 25.446-11.11 84.685 30.72 83.763 25.446-1.894 84.685 11.11 83.763-30.72-1.894-25.446 11.11-84.685-30.72-83.763zM624.026 188.877c-25.446 1.894-84.685-11.11-83.763 30.72 1.894 25.446-11.11 84.685 30.72 83.763 25.446-1.894 84.685 11.11 83.763-30.72-1.894-25.446 11.11-84.685-30.72-83.763zM798.976 188.877c-25.446 1.894-84.685-11.11-83.763 30.72 1.894 25.446-11.11 84.685 30.72 83.763 25.446-1.894 84.685 11.11 83.763-30.72-1.894-25.446 11.11-84.685-30.72-83.763z" />
<glyph unicode="&#xe907;" glyph-name="camera-off-thick" d="M845.773 711.117h-137.37l-41.984 111.667c-5.222 13.978-18.586 23.245-33.536 23.245h-245.811c-33.894 2.611-40.858-47.821-51.149-70.093l55.654-55.654 20.326 54.067h196.198c67.942-187.29 32.614-124.314 237.67-134.912 16.128 1.126 0.41-373.299 5.734-379.085l58.726-58.726c25.139 5.12 8.448 409.395 12.954 432.077 0 42.701-34.714 77.414-77.414 77.414zM299.571 711.117h-0.205l61.747-61.747s0 0.102 0.102 0.102l-61.645 61.645zM771.942 238.746h-0.205l71.68-71.68h0.205l-71.68 71.68zM510.003 607.386c-1.792 0-3.635-0.051-5.427-0.102l173.619-173.619c3.277 94.618-73.523 173.926-168.192 173.722zM425.882 584.806s-0.102-0.051-0.154-0.051l53.965-53.965s0.102 0.051 0.154 0.051l-53.965 53.965zM601.754 408.934s0-0.102 0-0.154l53.965-53.965s0 0.102 0.051 0.154l-53.965 53.965zM890.317 120.269c-131.686 131.226-581.939 581.99-705.075 704.973-31.949 33.485-84.070-18.125-50.586-50.586 0 0 63.539-63.539 63.539-63.539-49.869 6.963-101.99-22.835-101.427-77.414 0 0 0-389.222 0-389.222 0-42.65 34.714-77.414 77.414-77.414h568.064c16.998-11.725 98.355-112.179 121.754-106.906 30.003-1.075 47.821 38.554 26.317 60.109zM424.755 484.557l130.662-130.662c-80.435-46.387-176.896 50.33-130.662 130.662zM174.182 238.746c-16.282-1.178-0.307 389.222-5.734 394.957-5.53 12.186 98.458 3.072 101.427 5.734l102.963-102.963c-109.773-150.118 84.48-344.269 234.547-234.547l63.181-63.181h-496.384zM890.317 120.269c-131.84 131.635-582.656 582.451-706.048 706.048 230.861-230.656 475.29-475.085 706.048-706.048z" />
<glyph unicode="&#xe908;" glyph-name="camera-thick" d="M847.821 711.117h-137.37l-41.984 111.667c-5.274 13.978-18.637 23.245-33.536 23.245h-245.862c-14.899 0-28.262-9.267-33.536-23.245l-41.984-111.667c-66.867-5.837-213.555 30.669-214.733-77.414 0 0 0-389.222 0-389.222 0-42.65 34.714-77.414 77.414-77.414h671.59c42.701 0 77.414 34.765 77.414 77.414v389.222c0 42.701-34.714 77.414-77.414 77.414zM853.555 244.48c1.178-16.691-671.539 0-677.325-5.734-3.174 0-5.734 2.611-5.734 5.734 5.427 5.734-10.547 396.134 5.734 394.957 204.8 10.65 169.728-52.531 237.67 134.912h196.198c67.942-187.341 32.717-124.314 237.722-134.912 16.282 1.178 0.307-389.222 5.734-394.957zM512 607.386c-221.082-3.994-221.082-332.646 0-336.589 221.184 3.942 221.133 332.646 0 336.589zM512 342.477c-126.925 2.304-126.874 190.976 0 193.229 126.976-2.304 126.976-190.976 0-193.229z" />
<glyph unicode="&#xe909;" glyph-name="chat-thick" d="M512 898.15c-315.904 5.325-550.861-317.85-429.926-604.058 4.096-21.555-31.334-276.838-3.021-285.798 9.882-27.904 265.472 29.338 286.208 26.675 674.202-191.334 858.112 832.461 146.739 863.181zM512 83.354c-51.763-3.379-99.84 16.742-149.248 23.654 0 0-222.259-32.051-222.259-32.051l13.619 222.618v10.394c-21.043 45.824-31.949 95.181-31.898 146.944 8.806 488.090 770.816 488.141 779.571 0 0-204.851-174.848-371.558-389.786-371.558zM334.746 448c0.973-64.973-101.12-64.973-100.198 0-0.973 64.973 101.12 64.973 100.198 0zM562.074 448c0.973-64.973-101.12-64.973-100.198 0-0.973 64.973 101.12 64.973 100.198 0zM776.038 448c0.973-64.973-101.12-64.973-100.198 0-0.973 64.973 101.12 64.973 100.198 0z" />
<glyph unicode="&#xe90a;" glyph-name="check-circle-alt-thick" d="M512-11.238c-246.918-5.088-464.529 212.574-459.238 459.492-9.871 322.067 356.105 559.216 646.169 419.196 42.433-18.367 12.974-84.307-29.001-65.075-49.964 22.234-103.031 33.58-157.675 33.58-208.555 4.427-392.433-179.248-388.21-387.803-8.497-337.738 429.117-519.428 662.196-274.749 84.155 82.17 120.483 197.158 113.817 313.265-0.865 46.199 72.096 46.199 71.231 0 22.947-260.248-195.937-503.859-459.238-497.957zM512 327.009c-20.708-8.446-136.968 127.657-152.282 137.527-33.123 32.156 18.164 83.544 50.371 50.371 0 0 101.912-101.861 101.912-101.861l398.437 398.793c13.89 13.89 36.43 13.941 50.371 0 13.941-13.89 13.941-36.43 0-50.371l-423.622-424.029c-6.665-6.665-15.722-10.43-25.185-10.43z" />
<glyph unicode="&#xe90b;" glyph-name="check-circle-thick" d="M512 909.619c-606.618-10.854-606.566-912.384 0-923.187 606.669 10.906 606.515 912.384 0 923.187zM512 58.112c-512.512 9.165-512.358 770.714 0 779.827 512.41-9.165 512.41-770.714 0-779.827zM418.662 241.050c-18.022-11.418-166.963 157.696-180.89 166.042-33.331 32.358 18.278 84.070 50.688 50.688 0 0 130.202-130.202 130.202-130.202s316.877 316.928 316.877 316.928c32.358 33.28 84.122-18.227 50.688-50.688 0 0-342.221-342.221-342.221-342.221-6.707-6.707-15.821-10.496-25.344-10.496z" />
<glyph unicode="&#xe90c;" glyph-name="check-square-alt-thick" d="M513.997 325.786c-22.016-7.629-139.315 130.15-155.75 140.954-32.87 34.56 22.784 82.022 51.558 49.766 2.048-2.048 104.192-104.192 104.192-104.192l406.528 406.528c13.978 13.978 36.71 13.978 50.688 0s13.978-36.71 0-50.688l-431.872-431.872c-6.707-6.707-15.821-10.496-25.344-10.496zM816.333 23.501h-604.621c-67.379 0-122.214 54.835-122.214 122.214v604.57c0 67.379 54.835 122.214 122.214 122.214h475.034c46.387 0.461 46.541-72.192 0-71.68 0 0-475.034 0-475.034 0-27.853 0-50.534-22.682-50.534-50.534v-604.57c0-27.853 22.682-50.534 50.534-50.534h604.57c27.853 0 50.534 22.682 50.534 50.534v302.285c-0.87 46.49 72.499 46.49 71.68 0 0 0 0-302.285 0-302.285 0-67.379-54.835-122.214-122.214-122.214z" />
<glyph unicode="&#xe90d;" glyph-name="check-square-thick" d="M418.662 241.050c-18.022-11.418-166.963 157.696-180.89 166.042-33.331 32.358 18.278 84.070 50.688 50.688 0 0 130.202-130.202 130.202-130.202s316.877 316.928 316.877 316.928c32.358 33.28 84.122-18.227 50.688-50.688 0 0-342.221-342.221-342.221-342.221-6.707-6.707-15.821-10.496-25.344-10.496zM811.213 872.55h-598.426c-67.994 0-123.29-55.347-123.29-123.29v-598.426c0-67.994 55.296-123.29 123.29-123.29h598.426c67.994 0 123.29 55.296 123.29 123.29v598.426c0 67.942-55.296 123.29-123.29 123.29zM862.822 150.835c0-28.467-23.142-51.61-51.61-51.61h-598.426c-28.467 0-51.61 23.142-51.61 51.61v598.426c0 28.416 23.142 51.61 51.61 51.61h598.426c28.467 0 51.61-23.194 51.61-51.61v-598.426z" />
<glyph unicode="&#xe90e;" glyph-name="check-thick" d="M370.483 161.69c-10.138-18.893-251.802 242.176-261.171 246.323-33.331 32.358 18.227 84.070 50.688 50.688 0 0 210.483-210.483 210.483-210.483l493.466 493.466c13.978 13.978 36.71 13.978 50.688 0s13.978-36.71 0-50.688l-518.81-518.81c-6.707-6.707-15.821-10.496-25.344-10.496z" />
<glyph unicode="&#xe90f;" glyph-name="clipboard-thick" d="M794.675 845.722h-84.89c-2.611 35.789-32.563 64.051-68.966 64.051h-257.638c-36.403 0-66.355-28.262-68.966-64.051-63.949 0.307-160.102 13.773-163.482-77.312 0 0 0-704.461 0-704.461 0-42.65 35.277-77.312 78.643-77.312h565.299c43.366 0 78.643 34.662 78.643 77.312 0 0 0 704.461 0 704.461 0 42.65-35.277 77.312-78.643 77.312zM385.69 838.093h252.621v-56.422h-252.621v56.422zM801.638 63.949c-0.256-16.077-565.555-0.256-572.262-5.632-3.789 0-6.963 2.56-6.963 5.632 6.861 5.888-13.158 713.114 6.963 710.093 0 0 84.838 0 84.838 0 2.611-35.738 32.563-64.051 68.966-64.051h257.638c36.403 0 66.355 28.314 68.966 64.051h84.89c20.122 3.021 0.102-704.256 6.963-710.093z" />
<glyph unicode="&#xe910;" glyph-name="clock-thick" d="M512 909.466c-606.464-10.854-606.362-912.128 0-922.931 606.464 10.906 606.362 912.179 0 922.931zM512 58.214c-512.256 9.165-512.205 770.458 0 779.571 512.256-9.165 512.154-770.458 0-779.571zM784.026 326.298c-8.090-18.278-29.747-26.061-47.36-18.074 0 0-191.181 85.504-191.181 85.504-69.837-42.803-136.602 61.44-69.325 107.059v274.227c0 19.814 16.077 35.84 35.84 35.84s35.84-16.026 35.84-35.84v-274.227c13.926-9.472 23.91-24.371 26.982-41.626l191.13-85.504c18.074-8.090 26.163-29.286 18.074-47.36z" />
<glyph unicode="&#xe911;" glyph-name="close-circle-thick" d="M513.997 909.619c-606.566-10.854-606.515-912.384 0-923.187 606.669 10.854 606.515 912.435 0 923.187zM513.997 58.112c-512.41 9.165-512.307 770.714 0 779.827 512.41-9.165 512.41-770.714 0-779.827zM728.115 282.573c22.886-21.248 5.325-62.259-25.344-61.184-17.254-12.237-177.203 167.885-190.771 175.923l-165.427-165.427c-14.029-13.978-36.659-13.978-50.688 0-13.978 14.029-13.978 36.71 0 50.688l165.427 165.427-165.427 165.427c-13.978 14.029-13.978 36.71 0 50.688 13.978 14.029 36.71 14.029 50.688 0l165.427-165.427 165.427 165.427c14.029 14.029 36.71 14.029 50.688 0 14.029-13.978 14.029-36.659 0-50.688l-165.427-165.427 165.427-165.427z" />
<glyph unicode="&#xe912;" glyph-name="close-square-thick" d="M811.213 870.502h-598.426c-67.994 0-123.29-55.296-123.29-123.29v-598.426c0-67.942 55.296-123.238 123.29-123.238h598.426c67.994 0 123.29 55.296 123.29 123.238v598.426c0 67.994-55.296 123.29-123.29 123.29zM862.822 148.787c0-28.416-23.142-51.558-51.61-51.558h-598.426c-28.467 0-51.61 23.142-51.61 51.558v598.426c0 28.467 23.142 51.61 51.61 51.61h598.426c28.467 0 51.61-23.142 51.61-51.61v-598.426zM728.115 282.573c22.886-21.248 5.325-62.259-25.344-61.184-17.254-12.237-177.203 167.885-190.771 175.923l-165.427-165.427c-14.029-13.978-36.659-13.978-50.688 0-13.978 14.029-13.978 36.71 0 50.688l165.427 165.427-165.427 165.427c-13.978 14.029-13.978 36.71 0 50.688 13.978 14.029 36.71 14.029 50.688 0l165.427-165.427 165.427 165.427c14.029 14.029 36.71 14.029 50.688 0 14.029-13.978 14.029-36.659 0-50.688l-165.427-165.427 165.427-165.427z" />
<glyph unicode="&#xe913;" glyph-name="close-thick" d="M815.36 195.328c22.886-21.248 5.376-62.259-25.293-61.184-1.075-25.395-273.715 262.502-278.067 263.219l-252.672-252.723c-13.978-13.978-36.762-14.029-50.688 0-14.029 13.978-14.029 36.71 0 50.688l252.723 252.672-252.723 252.723c-14.029 13.978-14.029 36.659 0 50.688 13.978 13.978 36.659 13.978 50.688 0l252.672-252.723 252.723 252.723c13.978 13.978 36.659 13.978 50.637 0 14.029-14.029 14.029-36.71 0-50.688l-252.672-252.723 252.672-252.672z" />
<glyph unicode="&#xe914;" glyph-name="down-arrow-thick" d="M889.344 422.656c-22.016-7.424-363.162-398.694-391.168-359.731-22.016 9.984-346.47 347.187-363.571 359.731-13.978 14.029-13.978 36.71 0 50.688 13.978 14.029 36.71 14.029 50.688 0 0 0 290.816-290.816 290.816-290.816v617.472c0 19.814 16.077 35.84 35.84 35.84s35.84-16.026 35.84-35.84v-617.472l290.816 290.816c32.41 33.382 84.019-18.227 50.688-50.688z" />
<glyph unicode="&#xe915;" glyph-name="download-alt-thick" d="M894.72 37.53h-765.44c-43.418 0-78.746 35.328-78.746 78.746 8.653 71.168-37.376 239.053 78.746 240.896 0 0 168.448 0 168.448 0 19.814 0 35.84-16.026 35.84-35.84s-16.026-35.84-35.84-35.84c-1.024-3.789-184.166 8.602-175.514-7.066 4.198-2.97-8.806-177.613 7.066-169.267 7.117 6.81 773.99-13.21 772.506 7.066-4.198 3.379 8.858 177.408-7.066 169.267 0 0-158.464 0-158.464 0-19.814 0-35.84 16.026-35.84 35.84s16.026 35.84 35.84 35.84c0 0 158.464 0 158.464 0 43.418 0 78.746-35.328 78.746-78.746-8.653-71.014 37.376-239.104-78.746-240.896zM749.517 197.325c-0.87 59.802 93.030 59.802 92.16 0 0.87-59.802-93.030-59.802-92.16 0zM783.104 453.786l-247.757-212.838c-9.011-7.731-21.965-10.701-33.331-7.168-4.915 1.331-9.472 3.891-13.363 7.168 0 0-247.757 212.838-247.757 212.838-35.584 29.696 11.776 85.248 46.694 54.374 0 0 188.57-161.997 188.57-161.997v476.723c0 19.814 16.077 35.84 35.84 35.84s35.84-16.026 35.84-35.84v-476.723l188.57 161.997c34.765 30.771 82.483-24.576 46.694-54.374z" />
<glyph unicode="&#xe916;" glyph-name="download-cloud-thick" d="M683.827 200.090l-148.48-127.539c-1.638-1.382-3.482-2.714-5.376-3.789-11.776-7.066-27.648-6.349-38.707 1.792-3.43 2.15-147.917 127.13-151.091 129.536-35.635 29.696 11.827 85.248 46.694 54.374 0 0 89.293-76.698 89.293-76.698v254.413c0 19.814 16.077 35.84 35.84 35.84s35.84-16.026 35.84-35.84v-254.413l89.293 76.698c34.816 30.822 82.432-24.576 46.694-54.374zM890.419 214.579c-29.235-0.87-47.104 36.301-27.699 58.573 25.088 30.515 38.861 69.171 38.861 108.851 0 94.31-76.288 171.059-170.035 171.059-29.030 0.819-70.4-19.968-83.251 18.688-91.392 288-529.254 216.883-525.978-85.504 0-70.912 27.034-138.035 76.186-188.877 32.973-32.87-19.917-83.814-51.558-49.766-350.874 403.661 319.795 855.296 558.387 375.706 141.722 16.282 268.851-98.099 267.981-241.306-1.382-53.862-23.962-153.446-82.893-167.424z" />
<glyph unicode="&#xe917;" glyph-name="download-thick" d="M894.72 71.475h-765.44c-43.418 0-78.746 35.328-78.746 78.746 0 0 0 185.754 0 185.754 0 19.814 16.026 35.84 35.84 35.84s35.84-16.026 35.84-35.84c3.328-3.789-8.448-199.782 7.066-192.819 7.117 6.81 773.99-13.21 772.506 7.066 0 0 0 185.805 0 185.805-0.922 46.438 72.55 46.541 71.68 0 0 0 0-185.754 0-185.754 0-43.418-35.328-78.746-78.746-78.746zM783.104 424.294l-247.757-212.838c-9.011-7.731-21.965-10.701-33.331-7.168-4.915 1.331-9.472 3.891-13.363 7.168 0 0-247.757 212.838-247.757 212.838-35.584 29.696 11.776 85.248 46.694 54.374 0 0 188.57-161.997 188.57-161.997v476.723c0 19.814 16.077 35.84 35.84 35.84s35.84-16.026 35.84-35.84v-476.723l188.57 161.997c34.765 30.771 82.483-24.576 46.694-54.374z" />
<glyph unicode="&#xe918;" glyph-name="email-thick" d="M896.307 789.043c-1014.272-42.24-829.901 218.419-845.773-604.877 0-42.547 34.611-77.21 77.158-77.21 1014.221 42.24 829.901-218.47 845.773 604.928 0 42.547-34.611 77.158-77.158 77.158zM901.786 184.166c-4.147-10.65-775.27-10.547-779.571 0 0 0 0 362.701 0 362.701 461.107-320.87 319.488-319.59 779.571 0v-362.65zM901.786 634.47c-503.552-337.306-276.941-336.026-779.571 0 2.765 3.84-6.144 86.938 5.478 82.893 5.786-5.478 775.066 10.496 774.093-5.478 0 0 0-77.414 0-77.414z" />
<glyph unicode="&#xe919;" glyph-name="eye-alt-thick" d="M973.107 452.71c-171.264 378.214-758.426 377.754-922.522-4.762 160.973-384.205 769.997-383.949 922.522 4.71zM512 227.84c-155.341 0-300.698 83.866-384.051 220.16 165.683 289.587 602.522 289.536 768.102 0-83.302-136.294-228.71-220.16-384.051-220.16zM512 618.189c-223.642-3.994-223.642-336.384 0-340.378 223.642 3.994 223.642 336.384 0 340.378zM512 349.491c-129.485 2.304-129.434 194.714 0 197.018 129.485-2.304 129.434-194.714 0-197.018z" />
<glyph unicode="&#xe91a;" glyph-name="eye-close-alt-thick" d="M778.854 231.834s-0.461-0.307-0.717-0.461l-52.429 52.429s0.461 0.256 0.717 0.41v0l52.378-52.378zM367.36 643.328c-0.307-0.102-0.614-0.205-0.87-0.307l-55.296 55.296s0.563 0.205 0.87 0.307l55.296-55.296zM973.414 448.051c-23.347-70.605-82.842-127.898-135.885-174.694l-50.995 50.995c42.752 33.69 80.026 75.366 109.568 123.648-94.362 155.443-272.23 242.432-448.563 215.347l-60.672 60.672c225.946 59.853 490.496-55.45 586.547-275.968zM512 618.189c-6.195 0-12.288-0.358-18.33-0.973l187.546-187.546c11.315 99.635-68.864 189.133-169.216 188.518zM419.789 590.899s-0.512-0.256-0.717-0.461l52.582-52.582c0.256 0.102 0.512 0.256 0.819 0.358l-52.685 52.685zM602.214 408.474c-0.102-0.307-0.256-0.563-0.358-0.819l52.582-52.582s0.358 0.461 0.461 0.717l-52.685 52.685zM894.054 115.456c-183.808 184.883-530.278 528.077-708.813 709.99-32.358 33.126-83.917-18.381-50.586-50.79 0 0 110.49-110.49 110.49-110.49-77.363-51.61-166.861-125.44-194.253-220.826 114.432-242.739 420.608-353.28 661.094-246.016 16.333-10.752 130.202-144.845 152.013-137.165 27.29-1.075 45.875 33.075 30.054 55.296zM421.786 487.526l129.741-129.741c-78.746-37.478-167.219 50.995-129.741 129.741zM512 227.84c-155.341 0-300.698 83.866-384.102 220.16 42.65 69.734 101.53 125.747 169.626 163.789l71.578-71.578c-100.096-149.248 85.965-335.206 235.11-235.11l52.429-52.429c-46.029-16.23-94.822-24.832-144.64-24.832zM894.054 115.456c-183.501 184.627-530.432 528.179-708.71 709.888 164.045-164.045 378.624-378.522 541.082-541.133v0l162.867-162.867c1.843-1.843 3.43-3.789 4.71-5.888z" />
<glyph unicode="&#xe91b;" glyph-name="eye-close-thick" d="M742.656 166.656c-255.846-150.579-589.414-12.237-691.456 274.483 20.019 101.018 97.741 187.341 169.472 247.501l51.149-51.149c-62.106-46.746-113.203-111.514-146.637-189.491 93.901-227.379 352.358-338.842 564.531-228.403l52.941-52.941zM972.749 440.986c-25.549-71.219-67.584-134.298-116.224-185.446l-50.739 50.739c38.042 39.782 69.786 87.552 93.030 141.722-84.89 200.397-291.482 313.6-491.622 256.87l-56.883 56.883c246.886 96.102 549.376-53.146 622.438-320.768zM512 637.44c-11.674 0-23.142-1.075-34.253-3.123l76.39-76.39c31.078-11.93 55.859-36.71 67.789-67.789l76.39-76.39c22.17 114.483-69.53 224.922-186.317 223.693zM889.344 121.344c-229.171 229.171-475.034 475.034-704 704-32.256 33.229-84.122-18.125-50.688-50.688 64.614-64.563 155.955-156.006 220.518-220.518-117.299-167.629 95.437-380.211 262.963-262.963 63.846-63.898 156.314-156.314 220.518-220.518 32.41-33.331 84.019 18.278 50.688 50.688zM512 330.24c-86.118-2.202-145.818 96.717-104.602 171.674l158.515-158.515c-16.179-8.448-34.509-13.158-53.914-13.158z" />
<glyph unicode="&#xe91c;" glyph-name="eye-thick" d="M972.8 454.912c-150.784 440.832-770.867 440.832-921.6 0 127.386-459.622 794.266-459.571 921.6 0zM512 176.64c-165.478 0-315.853 106.035-386.816 271.36 140.134 356.25 633.498 356.198 773.632 0-70.963-165.325-221.338-271.36-386.816-271.36zM512 637.44c-248.986-4.454-248.934-374.426 0-378.88 248.934 4.454 248.934 374.477 0 378.88zM512 330.24c-154.778 2.765-154.726 232.806 0 235.52 154.778-2.765 154.726-232.755 0-235.52z" />
<glyph unicode="&#xe91d;" glyph-name="file-minus-thick" d="M872.858 661.146c-1.741 4.25-4.352 8.243-7.834 11.725l-226.765 226.202c-6.451 6.451-15.36 10.496-25.242 10.496h-392.090c-42.342 0-76.8-34.458-76.8-76.8v-769.536c0-42.342 34.458-76.8 76.8-76.8h577.843c42.342 0 76.8 34.458 76.8 76.8v584.602c-0.051 4.71-1.024 9.216-2.714 13.312zM648.755 787.354l104.294-104.038h-104.294v104.038zM803.891 63.232c0-2.816-2.304-5.12-5.12-5.12h-577.843c-2.816 0-5.12 2.304-5.12 5.12v769.536c0 2.816 2.304 5.12 5.12 5.12h356.147v-190.413c0-19.814 16.077-35.84 35.84-35.84h190.976v-548.403zM715.571 400.435c0-19.814-16.077-35.84-35.84-35.84h-344.627c-19.814 0-35.84 16.026-35.84 35.84s16.026 35.84 35.84 35.84h344.627c19.763 0 35.84-16.077 35.84-35.84z" />
<glyph unicode="&#xe91e;" glyph-name="file-plus-thick" d="M875.008 661.197c-1.741 4.25-4.352 8.192-7.834 11.674-1.382 1.331-226.458 225.997-227.635 227.072 0 0 0 0 0 0.051 5.274 21.811-406.374 3.994-416.41 9.574-42.342 0-76.8-34.458-76.8-76.8v-769.536c0-42.342 34.458-76.8 76.8-76.8 0 0 577.843 0 577.843 0 42.342 0 76.8 34.458 76.8 76.8 0 0 0 584.346 0 584.397 0 4.813-0.973 9.37-2.714 13.568zM650.906 787.354l104.294-104.038h-104.294v104.038zM806.042 63.232c1.28-14.694-577.946-0.205-582.963-5.12-2.816 0-5.12 2.304-5.12 5.12 4.966 5.222-9.574 775.731 5.12 774.656 0 0 356.147 0 356.147 0 3.123-273.818-45.363-222.413 226.816-226.253v-548.403zM717.67 400.435c0-19.814-16.026-35.84-35.84-35.84h-136.448v-136.499c0-19.763-16.026-35.84-35.84-35.84s-35.84 16.077-35.84 35.84v136.499h-136.448c-19.814 0-35.84 16.026-35.84 35.84s16.026 35.84 35.84 35.84h136.448v136.448c0 19.763 16.077 35.84 35.84 35.84s35.84-16.077 35.84-35.84v-136.448h136.448c19.814 0 35.84-16.077 35.84-35.84z" />
<glyph unicode="&#xe91f;" glyph-name="file-text-thick" d="M875.008 661.197c-1.741 4.25-4.352 8.192-7.834 11.674-1.382 1.331-226.458 225.997-227.635 227.072 0 0 0 0 0 0.051 5.222 21.811-406.374 3.994-416.41 9.574-42.342 0-76.8-34.458-76.8-76.8 0 0 0-769.536 0-769.536 0-42.342 34.458-76.8 76.8-76.8h577.843c42.342 0 76.8 34.458 76.8 76.8 0 0 0 584.346 0 584.397 0 4.813-0.973 9.37-2.714 13.568zM650.906 787.354l104.294-104.038h-104.294v104.038zM806.042 63.232c1.28-14.694-577.946-0.205-582.963-5.12-2.816 0-5.12 2.304-5.12 5.12 4.966 5.222-9.574 775.731 5.12 774.656 0 0 356.147 0 356.147 0 3.174-273.818-45.363-222.413 226.816-226.253v-548.403zM488.192 591.258h-173.619c-19.814 0-35.84 16.026-35.84 35.84s16.026 35.84 35.84 35.84h173.619c46.438 0.666 46.541-72.346 0-71.68zM704.563 412.57h-390.042c-46.387-0.666-46.592 72.346 0 71.68 0 0 389.99 0 389.99 0 46.387 0.666 46.592-72.346 0-71.68zM704.563 233.882h-390.042c-46.387-0.666-46.592 72.346 0 71.68 0 0 389.99 0 389.99 0 46.387 0.666 46.592-72.346 0-71.68z" />
<glyph unicode="&#xe920;" glyph-name="file-thick" d="M875.008 661.402c-13.107 15.206-236.851 255.232-259.942 248.371 0 0-391.987 0-391.987 0-42.342 0-76.8-34.406-76.8-76.8v-769.536c0-42.342 34.458-76.8 76.8-76.8 833.946 21.299 628.838-166.195 654.643 661.146 0 4.813-0.973 9.421-2.714 13.619zM650.906 787.558l104.294-104.038h-104.294v104.038zM806.042 63.437c1.28-14.694-577.946-0.205-582.963-5.12-2.816 0-5.12 2.304-5.12 5.12 5.018 5.274-9.626 775.731 5.12 774.656 0 0 356.147 0 356.147 0 3.123-273.818-45.363-222.413 226.816-226.253v-548.403z" />
<glyph unicode="&#xe921;" glyph-name="folder-minus-thick" d="M849.92 738.765h-363.213c-16.947 16.333-72.653 134.144-104.192 127.488-105.626-9.267-330.035 48.23-333.261-120.832 0 0 0-594.842 0-594.842 0-66.611 54.221-120.832 120.832-120.832h679.834c66.611 0 120.781 54.221 120.781 120.832 0 0 0 467.405 0 467.405 0 66.611-54.17 120.781-120.781 120.781zM899.021 150.579c0-27.085-22.016-49.152-49.101-49.152h-679.834c-27.085 0-49.152 22.067-49.152 49.152v594.842c0 27.085 22.067 49.152 49.152 49.152h193.28l74.291-111.514c-1.28-33.126 395.11-9.165 412.262-15.974 27.085 0 49.101-22.016 49.101-49.101 0 0 0-467.405 0-467.405zM704.973 349.184h-389.99c-46.387-0.666-46.592 72.346 0 71.68 0 0 389.99 0 389.99 0 46.387 0.666 46.592-72.346 0-71.68z" />
<glyph unicode="&#xe922;" glyph-name="folder-open-thick" d="M967.219 510.31c-6.656 10.086-17.92 16.128-29.952 16.128h-697.037c-14.285 0-27.238-8.499-32.922-21.606l-84.685-195.891v384.358c0 18.688 15.155 33.843 33.843 33.843h155.085l59.034-88.576c-1.997-31.898 326.605-9.882 343.501-15.974 56.678-2.816 11.059-75.571 69.683-78.182 23.808-0.205 38.81 21.914 35.84 44.339 0 58.214-47.36 105.523-105.523 105.523h-294.502s-59.034 88.627-59.034 88.627c-10.189 31.539-181.146 9.882-204.083 15.923-58.214 0-105.523-47.309-105.523-105.523 7.322-11.213-17.664-599.398 15.411-587.11 5.274-3.482 11.418-5.888 17.766-6.195 1.485-0.666 697.651 0.154 699.648-0.154 14.285 0 27.238 8.499 32.922 21.606-0.512 18.33 182.477 376.678 150.528 388.864zM760.218 171.52h-618.906l122.47 283.238h618.906l-122.47-283.238z" />
<glyph unicode="&#xe923;" glyph-name="folder-plus-thick" d="M849.92 738.816h-363.213c-16.947 16.333-72.704 134.093-104.192 127.437-105.626-9.267-330.035 48.23-333.261-120.832 0 0 0-594.842 0-594.842 0-66.611 54.221-120.832 120.832-120.832h679.834c66.611 0 120.781 54.221 120.781 120.832 0 0 0 467.405 0 467.405 0 66.611-54.17 120.832-120.781 120.832zM899.021 150.579c0-27.085-22.016-49.152-49.101-49.152h-679.834c-27.085 0-49.152 22.067-49.152 49.152v594.842c0 27.136 22.067 49.152 49.152 49.152h193.28s74.291-111.514 74.291-111.514c-1.28-32.973 395.162-9.114 412.262-15.923 27.085 0 49.101-22.067 49.101-49.152v-467.405zM740.813 385.024c0-19.814-16.026-35.84-35.84-35.84h-159.13v-159.181c0-19.763-16.077-35.84-35.84-35.84s-35.84 16.077-35.84 35.84v159.181h-159.181c-19.814 0-35.84 16.026-35.84 35.84s16.026 35.84 35.84 35.84h159.181v159.181c0 19.763 16.026 35.84 35.84 35.84s35.84-16.077 35.84-35.84v-159.181h159.13c19.814 0 35.84-16.077 35.84-35.84z" />
<glyph unicode="&#xe924;" glyph-name="folder-thick" d="M816.026 711.885h-322.816c-16.691 16.589-63.898 119.859-95.181 114.022-97.485-7.885-298.65 42.957-301.875-111.872 0 0 0-532.070 0-532.070 0-61.645 50.176-111.821 111.821-111.821 0 0 608.051 0 608.051 0 61.696 0 111.872 50.176 111.872 111.821 0 0 0 418.048 0 418.048 0 61.696-50.176 111.872-111.872 111.872zM856.218 181.965c0-22.118-18.022-40.141-40.192-40.141h-608.051c-22.118 0-40.141 18.022-40.141 40.141v532.070c0 22.17 18.022 40.192 40.141 40.192h170.854s65.382-98.048 65.382-98.048c-5.888-31.642 356.966-10.035 371.814-15.974 22.17 0 40.192-18.022 40.192-40.192v-418.048z" />
<glyph unicode="&#xe925;" glyph-name="heart-thick" d="M897.536 777.83c-107.981 109.363-286.72 98.15-385.536-17.613-148.070 185.344-467.814 72.038-461.466-165.99 0-69.427 27.034-134.656 76.134-183.757l359.987-359.987c13.312-13.824 37.376-13.875 50.688 0 0 0 359.987 359.987 359.987 359.987 100.762 96.563 100.864 270.592 0.205 367.309zM846.643 461.21l-334.643-334.643s-334.643 334.643-334.643 334.643c-35.584 35.533-55.142 82.79-55.142 133.069-3.379 164.147 207.309 251.597 321.28 133.069 0 0 43.162-43.162 43.162-43.162 13.978-13.978 36.71-13.978 50.688 0 182.784 238.694 491.93-8.653 309.299-222.976z" />
<glyph unicode="&#xe926;" glyph-name="home-thick" d="M936.192 587.366l-369.715 272.128c-32.563 24.013-76.339 24.013-108.954 0 0 0-369.715-272.128-369.715-272.128-32.512-23.962-45.414-64.256-32.819-102.656 15.258-50.995 67.277-68.506 116.019-63.232 0 0 0-331.418 0-331.418 0-39.373 32.563-71.424 72.653-71.424 186.010-3.891 192.205-4.966 186.931 183.296 6.042 103.27 162.765 99.123 162.97-4.71-5.632-188.826 6.81-181.043 187.341-178.586 40.090 0 72.755 32.051 72.755 71.424 0 0 0 331.418 0 331.418 100.762-17.408 165.581 99.533 82.534 165.888zM900.915 507.085c-1.382-4.198-5.99-13.926-19.2-13.926h-63.898c-19.814 0-35.84-16.026-35.84-35.84v-366.746c-2.253-0.512-114.278-0.512-116.582 0 6.605 121.549 0.666 250.419-153.395 259.891-155.699-10.957-158.976-136.806-153.088-259.891-2.048-0.512-114.176-0.512-116.224 0v366.746c0 19.814-16.077 35.84-35.84 35.84h-64.563c-13.21 0-17.818 9.728-19.2 13.926-1.331 4.147-3.379 14.694 7.219 22.528l369.715 272.179c7.168 5.274 16.794 5.274 23.962 0l369.715-272.179c10.598-7.834 8.55-18.381 7.219-22.528z" />
<glyph unicode="&#xe927;" glyph-name="laptop-thick" d="M947.917 294.81c-6.861 2.714-40.346 1.075-48.026 1.485 0 0 0 395.981 0 395.981 0 47.053-35.738 85.299-79.718 85.299-788.634-34.714-694.374 176.333-695.962-481.28-27.29 1.126-74.496 3.994-73.728-35.84 0-78.336 63.693-142.029 142.029-142.029h639.13c78.336 0 142.029 63.693 142.029 142.029 0 16.333-10.854 30.054-25.754 34.355zM195.891 692.275c0 8.192 4.864 13.619 8.090 13.619h616.192c3.226 0 8.038-5.427 8.038-13.619v-395.981h-632.32v395.981zM831.642 190.106c-40.55 13.824-702.413-35.482-699.648 34.509h760.166c-12.288-20.634-34.816-34.509-60.518-34.509z" />
<glyph unicode="&#xe928;" glyph-name="left-arrow-thick" d="M127.046 442.556c0.204-1.679 0.56-3.307 1.068-4.884-0.458 1.577-0.865 3.205-1.068 4.884zM134.678 425.46c-2.188 2.595-3.969 5.546-5.291 8.7 1.323-3.155 3.104-6.055 5.291-8.7zM132.592 467.792c-1.272-1.883-2.29-3.867-3.205-5.902 0.865 2.086 1.933 4.070 3.205 5.902zM897.412 448c0-19.639-15.925-35.616-35.616-35.616h-613.606l288.995-288.995c32.97-32.003-18.062-83.646-50.371-50.371 0 0-349.796 349.796-349.796 349.796-6.614 6.665-10.43 15.773-10.43 25.185 0 9.362 3.765 18.571 10.43 25.185 0 0 349.796 349.796 349.796 349.796 32.054 32.97 83.595-17.96 50.371-50.371 0 0-288.995-288.995-288.995-288.995h613.606c19.69 0 35.616-15.925 35.616-35.616z" />
<glyph unicode="&#xe929;" glyph-name="link-alt-thick" d="M314.163 35.584c-187.034-3.789-288.256 235.725-152.115 367.104 72.499 66.458 165.837 199.578 278.323 189.235 57.446 0 111.462-22.374 152.115-63.027 25.344-27.494 76.902-86.682 26.675-113.818-45.005-17.766-50.688 41.83-77.363 63.13-53.402 55.654-149.453 55.654-202.854 0-84.89-90.931-247.603-193.178-126.208-329.062 130.15-121.395 241.92 42.342 329.062 126.208 32.307 33.382 84.122-18.33 50.688-50.688-70.963-65.894-168.909-200.755-278.323-189.133zM583.117 304.538c-55.091 0-110.182 20.941-152.115 62.925-25.754 28.16-79.155 90.061-27.392 117.299 18.33 7.526 39.27-1.28 46.746-19.61 36.25-93.235 164.659-119.45 234.189-47.002 0 0 126.72 126.669 126.72 126.669 130.867 135.578-67.123 333.773-202.854 202.854 0 0-126.669-126.669-126.669-126.669-32.307-33.382-84.122 18.33-50.688 50.688 0 0 126.669 126.669 126.669 126.669 203.418 196.301 500.582-100.762 304.23-304.23-71.219-66.048-169.165-201.165-278.784-189.594z" />
<glyph unicode="&#xe92a;" glyph-name="link-external-thick" d="M919.245 819.098v-321.792c0.666-46.49-72.397-46.541-71.68 0 0 0 0 234.035 0 234.035l-392.755-392.704c-14.029-14.029-36.659-13.978-50.688 0-13.978 13.978-13.978 36.659 0 50.688l393.984 393.933h-236.493c-19.814 0-35.84 16.077-35.84 35.84s16.026 35.84 35.84 35.84h321.792c19.763 0 35.84-16.026 35.84-35.84zM723.763 33.331h-547.328c-42.803 0-77.568 34.816-77.568 77.568 28.262 682.701-140.237 628.89 372.275 624.947 46.49 0.512 46.541-72.243 0-71.68 0 0-294.707 0-294.707 0-16.896 1.229-0.256-547.328-5.939-553.267-1.229-16.896 547.328-0.205 553.267-5.888 3.226 0 5.888 2.662 5.888 5.939v294.707c0 19.814 16.026 35.84 35.84 35.84s35.84-16.026 35.84-35.84v-294.707c0-42.803-34.816-77.568-77.568-77.568z" />
<glyph unicode="&#xe92b;" glyph-name="link-thick" d="M704.973 417.843h-389.99c-46.387-0.666-46.592 72.346 0 71.68 0 0 389.99 0 389.99 0 46.387 0.666 46.592-72.346 0-71.68zM743.424 226.406h-148.070c-19.814 0-35.84 16.026-35.84 35.84s16.026 35.84 35.84 35.84h148.070c204.493 3.635 204.493 307.558 0 311.194 0 0-148.070 0-148.070 0-46.438-0.768-46.541 72.448 0 71.68 0 0 148.070 0 148.070 0 298.65-5.325 298.65-449.229 0-454.554zM424.602 226.406c-176.998-12.237-364.339 7.885-375.347 227.277 11.11 219.392 198.298 239.514 375.347 227.277 46.438 0.563 46.541-72.294 0-71.68 0 0-148.070 0-148.070 0-204.493-3.635-204.493-307.558 0-311.194 0 0 148.070 0 148.070 0 46.438 0.768 46.541-72.448 0-71.68z" />
<glyph unicode="&#xe92c;" glyph-name="list-thick" d="M911.974 412.16h-607.232c-19.814 0-35.84 16.026-35.84 35.84s16.026 35.84 35.84 35.84h607.232c46.336 0.666 46.643-72.346 0-71.68zM911.974 678.81h-607.232c-19.814 0-35.84 16.026-35.84 35.84s16.026 35.84 35.84 35.84h607.232c46.336 0.666 46.643-72.346 0-71.68zM911.974 145.51h-607.232c-19.814 0-35.84 16.026-35.84 35.84s16.026 35.84 35.84 35.84h607.232c46.336 0.666 46.643-72.346 0-71.68zM89.6 714.65c-0.922 62.259 96.922 62.259 96 0 0.922-62.259-96.922-62.259-96 0zM89.6 448c-0.922 62.259 96.922 62.259 96 0 0.922-62.259-96.922-62.259-96 0zM89.6 181.35c-0.922 62.259 96.922 62.259 96 0 0.922-62.259-96.922-62.259-96 0z" />
<glyph unicode="&#xe92d;" glyph-name="lock-open-alt-thick" d="M765.594 575.488h-382.054v86.886c-3.686 118.426 158.362 173.722 226.918 77.363 27.546-37.376 85.811 6.81 57.088 43.418-107.315 150.63-361.472 64.512-355.686-120.781 0 0 0-86.886 0-86.886-60.877 3.584-131.379 1.024-134.912-77.414 0 0 0-337.51 0-337.51 0-42.701 34.765-77.414 77.414-77.414 653.517 29.542 590.592-150.374 588.646 414.925 0 42.701-34.714 77.414-77.414 77.414zM771.328 160.563c1.331-16.179-511.334-0.358-516.966-5.734-3.123 0-5.734 2.56-5.734 5.734v337.51c0 3.174 2.611 5.734 5.734 5.734 0 0 511.232 0 511.232 0 16.128-1.536 0.41-335.565 5.734-343.245zM510.003 195.277c-19.814 0-35.84 16.026-35.84 35.84 4.557 31.386-18.432 121.088 35.84 120.115 19.814 0 35.84-16.026 35.84-35.84-4.557-31.386 18.432-121.088-35.84-120.115z" />
<glyph unicode="&#xe92e;" glyph-name="lock-thick" d="M767.59 576.051h-57.395c15.309 141.466-37.018 281.549-198.195 285.952-161.178-4.454-213.453-144.538-198.144-285.952-60.928 3.584-131.328 0.973-134.861-77.414 0 0 0-338.074 0-338.074 0-42.701 34.714-77.414 77.414-77.414 653.978 29.491 590.438-150.374 588.595 415.488 0 42.65-34.714 77.414-77.414 77.414zM385.536 662.886c3.021 167.526 250.010 167.424 252.979 0 0 0 0-86.835 0-86.835h-252.979v86.835zM773.325 160.563c1.331-16.179-511.283-0.358-516.915-5.734-15.974 0.666-0.512 336.794-5.734 343.808 0 3.123 2.56 5.734 5.734 5.734h511.181c3.174 0 5.734-2.611 5.734-5.734v-338.074zM512 195.277c-19.814 0-35.84 16.026-35.84 35.84 4.557 31.386-18.432 121.088 35.84 120.115 19.814 0 35.84-16.026 35.84-35.84-4.557-31.386 18.432-121.088-35.84-120.115z" />
<glyph unicode="&#xe92f;" glyph-name="menu-thick" d="M911.974 412.16h-799.949c-19.814 0-35.84 16.026-35.84 35.84s16.026 35.84 35.84 35.84h800c46.285 0.666 46.643-72.346 0-71.68zM911.974 678.81h-799.949c-19.814 0-35.84 16.026-35.84 35.84s16.026 35.84 35.84 35.84h800c46.285 0.666 46.643-72.346 0-71.68zM911.974 145.51h-799.949c-19.814 0-35.84 16.026-35.84 35.84s16.026 35.84 35.84 35.84h800c46.285 0.666 46.643-72.346 0-71.68z" />
<glyph unicode="&#xe930;" glyph-name="minus-circle-thick" d="M510.003 909.619c-606.669-10.854-606.618-912.435 0-923.187 606.669 10.906 606.515 912.384 0 923.187zM510.003 58.112c-512.512 9.165-512.358 770.765 0 779.827 512.41-9.165 512.41-770.714 0-779.827zM769.331 412.16h-518.707c-46.336-0.666-46.592 72.346 0 71.68 0 0 518.656 0 518.656 0 46.336 0.666 46.592-72.346 0-71.68z" />
<glyph unicode="&#xe931;" glyph-name="minus-square-thick" d="M809.216 870.502h-598.426c-67.994 0-123.29-55.296-123.29-123.29v-598.426c0-67.942 55.296-123.238 123.29-123.238h598.426c67.942 0 123.29 55.296 123.29 123.238v598.426c0 67.994-55.347 123.29-123.29 123.29zM860.826 148.787c0-28.416-23.194-51.558-51.61-51.558h-598.426c-28.467 0-51.61 23.142-51.61 51.558v598.426c0 28.467 23.142 51.61 51.61 51.61h598.426c28.416 0 51.61-23.142 51.61-51.61v-598.426zM769.331 412.16h-518.707c-46.336-0.666-46.592 72.346 0 71.68 0 0 518.656 0 518.656 0 46.336 0.666 46.592-72.346 0-71.68z" />
<glyph unicode="&#xe932;" glyph-name="minus-thick" d="M905.216 412.16h-786.432c-19.814 0-35.84 16.026-35.84 35.84s16.026 35.84 35.84 35.84h786.432c46.285 0.666 46.643-72.346 0-71.68z" />
<glyph unicode="&#xe933;" glyph-name="mobile-thick" d="M709.018 860.262h-398.899c-42.342 0-76.8-34.458-76.8-76.8v-670.925c0-42.342 34.458-76.8 76.8-76.8h398.899c42.342 0 76.8 34.458 76.8 76.8v670.925c0 42.342-34.458 76.8-76.8 76.8zM714.138 112.538c1.178-14.438-398.95-0.358-404.019-5.12-15.053-1.178 0.102 670.976-5.12 676.045-1.126 14.387 398.95 0.358 404.019 5.12 15.053 1.178-0.102-670.976 5.12-676.045zM464.128 213.811c-0.922 62.106 96.614 62.106 95.744 0 0.922-62.106-96.614-62.106-95.744 0z" />
<glyph unicode="&#xe934;" glyph-name="monitor-thick" d="M895.13 860.928h-766.259c-42.342 0-76.8-34.458-76.8-76.8 29.286-624.486-150.886-562.125 424.090-560.538v-117.402h-123.75c-19.814 0-35.84-16.026-35.84-35.84s16.026-35.84 35.84-35.84h319.181c46.438-0.666 46.592 72.397 0 71.68 0 0-123.75 0-123.75 0v117.402h347.29c42.342 0 76.8 34.458 76.8 76.8v483.738c0 42.342-34.458 76.8-76.8 76.8zM900.25 300.39c1.28-14.643-766.413-0.205-771.379-5.12-14.438-1.229-0.307 483.84-5.12 488.858 0 2.816 2.304 5.12 5.12 5.12h766.259c14.438 1.229 0.358-483.84 5.12-488.858z" />
<glyph unicode="&#xe935;" glyph-name="plus-circle-thick" d="M512 909.619c-606.618-10.854-606.566-912.384 0-923.187 606.669 10.906 606.515 912.384 0 923.187zM512 58.112c-512.512 9.165-512.358 770.714 0 779.827 512.41-9.165 512.41-770.714 0-779.827zM807.168 448c0-19.763-16.026-35.84-35.84-35.84h-223.488v-223.488c0-19.763-16.026-35.84-35.84-35.84s-35.84 16.077-35.84 35.84v223.488h-223.488c-19.814 0-35.84 16.077-35.84 35.84s16.026 35.84 35.84 35.84h223.488v223.539c0 19.763 16.077 35.84 35.84 35.84s35.84-16.077 35.84-35.84v-223.539h223.488c19.814 0 35.84-16.026 35.84-35.84z" />
<glyph unicode="&#xe936;" glyph-name="plus-square-thick" d="M811.213 870.502h-598.426c-67.994 0-123.29-55.296-123.29-123.29v-598.426c0-67.942 55.296-123.238 123.29-123.238h598.426c67.994 0 123.29 55.296 123.29 123.238v598.426c0 67.994-55.296 123.29-123.29 123.29zM862.822 148.787c0-28.416-23.142-51.558-51.61-51.558h-598.426c-28.467 0-51.61 23.142-51.61 51.558v598.426c0 28.467 23.142 51.61 51.61 51.61h598.426c28.467 0 51.61-23.142 51.61-51.61v-598.426zM807.168 448c0-19.763-16.026-35.84-35.84-35.84h-223.488v-223.488c0-19.763-16.026-35.84-35.84-35.84s-35.84 16.077-35.84 35.84v223.488h-223.488c-19.814 0-35.84 16.077-35.84 35.84s16.026 35.84 35.84 35.84h223.488v223.539c0 19.763 16.077 35.84 35.84 35.84s35.84-16.077 35.84-35.84v-223.539h223.488c19.814 0 35.84-16.026 35.84-35.84z" />
<glyph unicode="&#xe937;" glyph-name="plus-thick" d="M941.056 448c0-19.763-16.077-35.84-35.84-35.84h-357.376v-357.325c0-19.814-16.026-35.84-35.84-35.84s-35.84 16.026-35.84 35.84v357.325h-357.376c-19.763 0-35.84 16.077-35.84 35.84s16.077 35.84 35.84 35.84h357.376v357.376c0 19.814 16.077 35.84 35.84 35.84s35.84-16.026 35.84-35.84v-357.376h357.376c19.763 0 35.84-16.026 35.84-35.84z" />
<glyph unicode="&#xe938;" glyph-name="refresh_1" d="M973.722 757.709c-2.714-14.285 5.632-239.462-3.789-248.32-5.888-11.981-18.739-19.917-32.051-19.814 0 0-232.294 0-232.294 0-46.387-0.717-46.592 72.346 0 71.68 0 0 141.824 0 141.824 0-64.051 55.706-147.558 156.774-231.322 181.35-157.286 59.29-346.214-30.822-399.002-190.464-14.694-43.93-83.866-19.763-67.584 23.91 64.922 196.198 297.165 306.995 490.496 234.086 97.178-28.365 188.774-136.55 262.042-201.83v149.402c-0.666 46.49 72.397 46.49 71.68 0zM874.496 319.846c-51.968-150.989-202.445-258.253-362.394-256.051-160.87-9.83-284.621 120.73-390.144 223.898v-149.453c0.717-46.387-72.397-46.592-71.68 0 0 0 0 232.346 0 232.346-0.358 19.2 16.64 36.096 35.84 35.789 0 0 232.294 0 232.294 0 46.387 0.717 46.592-72.397 0-71.68 0 0-141.824 0-141.824 0 91.29-86.426 197.171-208.384 335.565-199.219v0c130.099-1.69 252.416 85.402 294.707 208.282 14.848 44.083 83.763 19.763 67.584-23.91zM80.026 405.811c-2.458-0.41-4.864-1.075-7.168-1.997 2.253 0.922 4.659 1.638 7.168 1.997z" />
<glyph unicode="&#xe939;" glyph-name="refresh-alt-thick" d="M852.685 530.33c-18.688-6.605-39.168 3.174-45.773 21.811-52.787 159.642-241.715 249.754-399.002 190.464-83.354-24.269-167.885-126.003-231.322-181.35h141.824c46.387 0.666 46.592-72.397 0-71.68 0 0-232.294 0-232.294 0-18.995-0.461-36.25 16.589-35.84 35.789 0 0 0 232.346 0 232.346-0.717 46.387 72.397 46.592 71.68 0 0 0 0-149.453 0-149.453 161.946 165.427 314.675 293.069 555.776 186.419 62.054-15.104 263.578-216.166 174.95-264.346zM973.722 370.534v-232.294c0.717-46.49-72.346-46.541-71.68 0 0 0 0 149.402 0 149.402-103.987-103.27-235.11-235.11-390.246-223.693-154.112-3.738-312.166 104.806-362.291 255.898-15.974 43.622 52.582 68.045 67.584 23.91 70.605-212.89 360.243-279.245 515.789-116.685 0.768 0.717 113.715 106.854 114.534 107.622h-141.824c-46.387-0.666-46.592 72.397 0 71.68 0 0 232.294 0 232.294 0 13.363 0.102 26.163-7.834 32.051-19.814 1.434-2.867 2.56-6.093 3.123-9.267 0.512-2.202 0.614-4.506 0.666-6.758z" />
<glyph unicode="&#xe93a;" glyph-name="refresh-thick" d="M973.722 757.709v-232.294c0-1.229 0-2.458-0.205-3.635-0.102-1.024-0.205-1.997-0.41-2.97-0.205-1.075-0.461-2.15-0.768-3.226-0.205-0.768-0.461-1.587-0.768-2.355-0.102-0.41-0.256-0.819-0.41-1.178-0.41-0.922-0.768-1.792-1.229-2.611v0c-0.512-1.075-1.075-2.048-1.69-3.021-0.41-0.717-0.87-1.382-1.382-1.997-0.307-0.512-0.717-1.024-1.126-1.536-0.563-0.666-1.126-1.331-1.741-1.997 0-0.051-0.154-0.154-0.205-0.205-0.614-0.614-1.229-1.229-1.843-1.741-0.563-0.614-1.178-1.126-1.792-1.587-0.717-0.614-1.485-1.126-2.253-1.69-4.25-2.867-9.011-4.71-13.926-5.53-1.946-0.41-3.994-0.563-6.093-0.563h-232.294c-19.814 0-35.84 16.026-35.84 35.84s16.026 35.84 35.84 35.84h141.824l-113.715 106.854c-0.256 0.256-0.512 0.512-0.819 0.768-32.717 32.768-73.114 58.266-116.787 73.728-78.746 27.853-163.584 23.347-238.95-12.595s-132.198-99.123-160.051-177.869c-6.605-18.637-27.085-28.416-45.773-21.811-18.637 6.605-28.416 27.085-21.811 45.722 34.253 96.819 104.141 174.438 196.762 218.624 92.621 44.237 196.966 49.715 293.734 15.462 53.504-18.893 103.014-50.125 143.206-90.163l118.835-111.667v149.402c0 19.814 16.077 35.84 35.84 35.84s35.84-16.026 35.84-35.84zM874.496 319.846c-18.995-53.658-50.33-103.322-90.624-143.616-72.55-72.499-169.062-112.435-271.667-112.486 0 0 0 0-0.102 0.051-102.451 0-198.758 39.834-271.258 112.179l-118.886 111.718v-149.453c0-19.814-16.026-35.84-35.84-35.84s-35.84 16.026-35.84 35.84v232.346c0 1.229 0 2.406 0.205 3.635 0.102 1.024 0.256 2.048 0.461 3.072 0.051 0.41 0.154 0.819 0.256 1.229 0.102 0.614 0.256 1.229 0.461 1.843 0.205 0.717 0.461 1.536 0.717 2.253 0 0.051 0 0.051 0 0.102 0.154 0.41 0.256 0.819 0.461 1.178 0.205 0.563 0.41 1.075 0.666 1.587 0 0.154 0.102 0.256 0.154 0.358 0.154 0.358 0.307 0.666 0.512 1.024 0.461 0.922 0.973 1.792 1.536 2.662 0.461 0.819 0.973 1.536 1.536 2.304 0.256 0.41 0.563 0.768 0.922 1.178 0.563 0.717 1.178 1.382 1.792 2.048 0.102 0.102 0.154 0.154 0.256 0.205 0.256 0.307 0.563 0.614 0.87 0.922s0.614 0.563 0.922 0.819c0.666 0.614 1.331 1.178 1.997 1.69 1.331 1.075 2.765 2.048 4.25 2.918 0.717 0.41 1.485 0.819 2.253 1.178s1.536 0.717 2.304 1.024c2.304 0.922 4.71 1.587 7.168 1.997 1.946 0.41 3.994 0.563 6.093 0.563h232.294c19.814 0 35.84-16.026 35.84-35.84s-16.026-35.84-35.84-35.84h-141.824l113.715-106.854c0.256-0.256 0.563-0.512 0.819-0.768 59.034-59.085 137.523-91.597 221.030-91.597v0c83.507-0.051 161.946 32.461 221.030 91.494 32.768 32.717 58.214 73.114 73.677 116.787 6.605 18.688 27.085 28.467 45.773 21.862 18.637-6.605 28.416-27.085 21.811-45.773zM80.026 405.811c-2.458-0.41-4.864-1.075-7.168-1.997 2.253 0.922 4.659 1.638 7.168 1.997z" />
<glyph unicode="&#xe93d;" glyph-name="right-arrow-thick" d="M891.699 425.318c2.202 2.662 3.994 5.581 5.325 8.755-1.331-3.174-3.123-6.144-5.325-8.755zM893.798 467.917c1.28-1.843 2.355-3.84 3.226-5.939-0.922 2.048-1.946 4.045-3.226 5.939zM898.304 437.606c0.512 1.587 0.87 3.226 1.075 4.915-0.205-1.69-0.614-3.328-1.075-4.915zM899.84 448c0-9.472-3.84-18.637-10.496-25.344 0 0-352-352-352-352-14.029-13.978-36.659-13.978-50.688 0-13.978 14.029-13.978 36.71 0 50.688l290.816 290.816h-617.472c-19.814 0-35.84 16.077-35.84 35.84s16.026 35.84 35.84 35.84h617.472l-290.816 290.816c-13.978 14.029-13.978 36.71 0 50.688 13.978 14.029 36.71 14.029 50.688 0l352-352c6.707-6.656 10.496-15.923 10.496-25.344z" />
<glyph unicode="&#xe93e;" glyph-name="search-alt-thick" d="M957.082 58.778l-229.53 229.478c387.891 573.798-612.659 933.018-677.478 241.613-10.394-316.467 394.752-501.299 627.098-292.608 12.083-6.195 240.64-255.898 254.566-239.718 30.618-1.075 48.179 39.834 25.344 61.184zM657.613 317.133c-3.226-3.43-6.502-6.758-9.882-9.984 0-0.051-0.051-0.051-0.051-0.102-182.682-189.85-535.040-44.646-525.926 222.874 0 171.059 139.213 310.272 310.272 310.272 265.626 9.011 411.853-339.2 225.587-523.059zM657.613 317.133c-3.226-3.43-6.502-6.758-9.882-9.984 2.56 3.891 6.042 7.373 9.882 9.984z" />
<glyph unicode="&#xe93f;" glyph-name="search-thick" d="M950.016 58.778l-178.432 178.432c223.283 248.832 25.754 682.598-313.242 671.437-744.653-72.294-351.13-1145.498 262.554-722.125 13.261-7.731 187.904-202.496 203.776-188.928 30.669-1.075 48.179 39.834 25.344 61.184zM699.546 264.346c-195.533-215.398-588.595-59.904-578.458 235.418 0 185.958 151.296 337.203 337.254 337.203 291.43 9.984 448.922-374.579 241.203-572.621zM699.546 264.346c-1.894-1.997-3.84-3.942-5.837-5.837 1.638 2.099 3.686 4.198 5.837 5.837z" />
<glyph unicode="&#xe940;" glyph-name="settings-thick" d="M512 619.981c-228.352-4.096-228.25-341.709 0-345.754 228.301 4.096 228.301 341.709 0 345.754zM512 345.907c-134.093 2.406-134.093 199.987 0 202.394 134.144-2.406 134.042-199.987 0-202.394zM831.283 317.798c16.64 32 70.144 4.352 109.005 50.176 71.526 66.611 17.766 196.762-80.026 193.28-27.853-5.427-45.517 31.437-26.931 50.995 22.426 21.197 35.686 51.507 35.533 82.432 2.304 78.131-85.299 136.704-156.672 104.653-21.35-6.042-33.075-27.597-53.35-34.15-17.971-3.738-35.84 12.851-33.587 31.078-2.304 148.531-224.154 148.992-226.458 0 3.686-21.709-16.384-37.325-36.762-34.15-20.429 6.656-31.795 28.109-53.35 34.15-113.101 48.486-211.917-102.963-121.395-186.829 17.51-16.896 3.686-51.046-20.531-51.302-31.232 0.717-61.030-11.008-83.046-33.126-71.526-66.662-17.766-196.864 80.077-193.331 7.578 0.358 15.411-0.154 21.76-4.608 35.994-27.29-13.517-54.784-21.76-82.381-48.179-111.411 100.045-210.79 184.73-123.443 16.179 20.173 52.992 7.117 53.35-18.483-0.717-31.232 11.008-60.979 33.178-83.046 42.086-43.93 118.016-43.981 160.102 0 21.402 21.402 33.178 49.818 33.178 80.077-5.018 26.47 28.416 46.080 47.923 26.88 83.405-90.675 236.032 7.68 187.085 121.139-5.939 25.856-44.288 41.165-32.051 69.99zM801.997 389.888c-32.922-21.35-50.688-62.976-43.315-101.53 2.304-41.216 68.762-72.346 29.389-113.357-41.165-39.168-71.834 27.085-113.306 29.44-38.963 7.322-80.026-10.342-101.53-43.315-12.134-17.971-17.408-39.578-16.589-61.338 1.28-35.738-46.49-55.757-70.912-29.389-9.114 8.806-12.902 21.197-12.186 33.69-0.512 39.731-26.931 77.056-64.205 90.829-87.45 36.71-103.936-49.971-156.826-32-65.485 39.014 11.366 76.186 15.923 122.368 7.373 38.912-10.342 79.974-43.315 101.53-31.795 27.034-101.427 0.307-102.912 58.112-0.512 23.808 21.453 43.622 45.056 41.523 61.44-0.563 109.67 61.85 98.099 121.19-4.557 46.029-81.408 83.456-15.974 122.368 40.243 16.384 60.877-37.427 99.891-38.451 60.006-11.93 122.573 35.584 121.19 98.099-5.99 38.349 43.674 64.717 70.912 35.994 21.606-24.115 6.195-62.362 28.723-87.654 21.606-33.178 62.874-50.586 101.53-43.315 38.605 0.922 59.75 54.784 99.84 38.451 65.485-39.066-11.366-76.134-15.923-122.368-11.93-60.006 35.584-122.675 98.099-121.19 13.107 0.87 26.624-2.406 35.942-12.186 26.214-24.371 6.554-72.192-29.338-70.912-20.685 0.512-41.062-5.12-58.266-16.589z" />
<glyph unicode="&#xe941;" glyph-name="star-rounded-thick" d="M970.138 557.312c-29.85 117.555-293.274-6.093-324.096 90.726 0 0-61.389 187.546-61.389 187.546-19.61 68.864-125.696 69.069-145.306 0 0 0-61.338-187.546-61.338-187.546-7.424-22.682-28.621-37.939-52.736-37.939h-198.656c-33.792 0-62.362-20.685-72.704-52.787-10.342-31.949 0.614-65.28 27.904-84.941l160.717-115.917c19.354-13.978 27.443-38.502 20.019-61.082l-61.389-187.546c-24.883-67.379 60.979-129.587 117.453-85.248 0 0 160.717 115.917 160.717 115.917 19.558 14.080 45.773 14.080 65.331 0l160.717-115.917c27.392-19.763 62.72-19.661 90.010 0.307 27.085 19.763 37.837 53.094 27.443 84.941 0 0-61.389 187.546-61.389 187.546-31.488 96.563 253.184 149.504 208.691 261.939zM900.25 530.483c-255.59-179.302-246.323-150.426-145.562-444.979 0.41-1.229 0.973-2.918-1.587-4.762-2.918-2.099-4.762-0.768-5.786-0.051-250.726 186.47-220.877 185.242-470.63 0-26.47-21.709 59.546 195.994 54.016 192.41 46.746 123.648-135.731 195.277-206.95 257.382-1.075 0.819-2.611 1.894-1.638 4.813 1.024 3.123 3.226 3.123 4.506 3.123 311.962-4.045 288.154-22.528 380.877 274.893 0.358 1.075 1.024 3.123 4.506 3.123s4.147-2.048 4.506-3.123c92.774-299.008 70.502-278.528 380.877-274.893 1.331 0 3.482 0 4.506-3.123 0.973-2.918-0.563-3.994-1.638-4.813z" />
<glyph unicode="&#xe942;" glyph-name="star-thick" d="M972.595 553.933c-4.813 14.746-18.586 24.781-34.099 24.781h-299.776l-92.621 285.082c-4.813 14.797-18.586 24.781-34.099 24.781s-29.286-9.984-34.099-24.781l-92.621-285.082h-299.776c-15.514 0-29.286-10.035-34.099-24.781-4.762-14.746 0.461-30.925 13.056-40.090l242.483-176.179-92.621-285.133c-4.813-14.746 0.461-30.925 13.005-40.038s29.594-9.165 42.138 0c0 0 242.534 176.179 242.534 176.179l242.534-176.179c12.544-9.165 29.542-9.114 42.138 0 12.544 9.114 17.818 25.293 13.005 40.038l-92.621 285.133 242.534 176.179c12.544 9.165 17.818 25.344 13.005 40.090zM653.824 380.365c-12.544-9.165-17.818-25.344-13.005-40.090l66.611-204.954c-245.555 172.646-145.818 171.827-390.861 0 88.218 288.563 119.347 190.413-120.781 371.712 301.722 5.325 217.907-54.682 316.211 229.734 98.253-285.286 15.36-224.154 316.211-229.734l-174.387-126.669z" />
<glyph unicode="&#xe943;" glyph-name="tablet-thick" d="M798.515 909.005h-573.030c-42.342 0-76.8-34.406-76.8-76.8v-768.41c0-42.394 34.458-76.8 76.8-76.8h573.030c42.342 0 76.8 34.406 76.8 76.8v768.41c0 42.394-34.458 76.8-76.8 76.8zM803.635 63.795c1.229-14.694-573.133-0.154-578.15-5.12-2.816 0-5.12 2.253-5.12 5.12v768.41c-1.229 14.694 573.133 0.154 578.15 5.12 2.816 0 5.12-2.253 5.12-5.12s0-768.41 0-768.41zM464.435 165.939c-0.922 62.106 96.614 62.106 95.744 0 0.922-62.106-96.614-62.106-95.744 0z" />
<glyph unicode="&#xe944;" glyph-name="tags-thick" d="M863.642 566.272s-304.282 304.23-304.282 304.23c14.336 20.531-374.426 6.758-379.546 10.496-19.763 0-35.84-16.026-35.84-35.84 0 0 0-354.202 0-354.202-16.64-21.35 308.582-311.552 314.47-328.909 41.523-41.933 109.619-42.035 151.245-0.307 0 0 253.952 253.952 253.952 253.952 0 0.051 0.051 0.051 0.051 0.102 41.267 41.472 41.267 108.902-0.051 150.477zM812.902 466.33c-388.506-374.528-189.338-327.629-597.248 39.526v303.462h303.514l293.734-293.683c13.466-13.568 13.517-35.686 0-49.306zM534.323 15.002c-35.533 0-68.915 13.824-94.003 38.912l-330.854 330.445c-33.178 32.256 18.074 84.122 50.637 50.688 0 0 330.752-330.394 330.752-330.394 22.938-23.859 63.949-23.859 86.835 0 0 0 286.157 286.157 286.157 286.157 32.205 33.28 84.224-18.227 50.688-50.688 0 0-286.106-286.106-286.106-286.106-25.139-25.139-58.573-39.014-94.106-39.014zM305.818 656.896c0.41 93.082 141.978 93.082 142.387 0-0.41-93.082-141.978-93.082-142.387 0z" />
<glyph unicode="&#xe945;" glyph-name="top-left-arrow-thick" d="M227.277 696.934c0 0.41 0 0.768 0.051 1.178 0-0.768-0.102-1.536-0.051-2.304v1.126zM227.43 700.467c-0.051-0.768-0.102-1.587-0.102-2.355 0 0.768 0 1.587 0.102 2.355zM227.994 704.154c-0.256-1.229-0.41-2.458-0.512-3.686 0.102 1.229 0.307 2.458 0.512 3.686zM786.227 173.773c-13.875-13.978-36.71-14.029-50.637 0 0 0-436.634 436.634-436.634 436.634v-411.29c0.717-46.285-72.397-46.694-71.68 0 5.683 5.478-13.926 547.533 14.131 526.336 6.144 4.71 13.926 7.322 21.709 7.322 0 0 497.766 0 497.766 0 46.285 0.614 46.694-72.346 0-71.68 0 0-411.238 0-411.238 0l436.582-436.634c14.029-13.978 14.029-36.71 0-50.688z" />
<glyph unicode="&#xe946;" glyph-name="top-right-arrow-thick" d="M796.006 704.154c0.256-1.229 0.41-2.458 0.512-3.686-0.102 1.229-0.307 2.458-0.512 3.686zM796.723 695.808c0 0.768 0 1.536-0.051 2.304 0.051-0.666 0.051-1.638 0.051-2.304zM796.672 698.112c0 0.768 0 1.587-0.102 2.355 0.102-0.768 0.102-1.587 0.102-2.355zM796.723 696.934v-497.818c0.717-46.438-72.346-46.541-71.68 0 0 0 0 411.29 0 411.29s-436.582-436.634-436.582-436.634c-13.978-13.978-36.71-14.029-50.688 0-14.029 13.978-14.029 36.71 0 50.688l436.634 436.634h-411.29c-19.814 0-35.84 16.026-35.84 35.84s16.026 35.84 35.84 35.84h497.818c19.2 0.358 36.198-16.538 35.789-35.84z" />
<glyph unicode="&#xe947;" glyph-name="unlock_1" d="M826.419 861.389c-161.331-4.506-213.402-144.589-198.144-286.003-500.275-19.558-451.994 122.010-449.28-415.437 0-42.701 34.714-77.414 77.414-77.414h511.181c42.701 0 77.414 34.714 77.414 77.414v338.074c-4.045 83.866-82.176 79.667-145.050 77.363 0 0 0 86.886 0 86.886 3.021 167.475 249.907 167.475 252.928 0 0 0 0-122.726 0-122.726 0-19.763 16.026-35.84 35.84-35.84s35.84 16.077 35.84 35.84c11.418 153.088-11.11 312.678-198.144 321.843zM767.59 503.706c3.174 0 5.734-2.56 5.734-5.683v-338.074c1.331-16.179-511.283-0.358-516.915-5.734-15.974 0.666-0.512 336.794-5.734 343.808-1.28 15.974 511.334 0.41 516.915 5.683zM512 184.525c-19.814 0-35.84 16.026-35.84 35.84 4.557 31.386-18.432 121.088 35.84 120.115 19.814 0 35.84-16.026 35.84-35.84-4.557-31.386 18.432-121.088-35.84-120.115z" />
<glyph unicode="&#xe948;" glyph-name="unlock-thick" d="M826.419 861.389c-109.261 0-198.144-89.344-198.144-199.117v-86.886h-371.866c-42.701 0-77.414-34.714-77.414-77.363v-338.074c0-42.701 34.714-77.414 77.414-77.414h511.181c42.701 0 77.414 34.714 77.414 77.414v338.074c0 42.65-34.714 77.363-77.414 77.363h-67.635v86.886c0 70.246 56.73 127.437 126.464 127.437s126.464-57.19 126.464-127.437v-122.726c0-19.763 16.026-35.84 35.84-35.84s35.84 16.077 35.84 35.84v122.726c0 109.773-88.883 199.117-198.144 199.117zM767.59 503.706c3.174 0 5.734-2.56 5.734-5.683v-338.074c0-3.174-2.56-5.734-5.734-5.734h-511.181c-3.174 0-5.734 2.56-5.734 5.734v338.074c0 3.123 2.56 5.683 5.734 5.683h511.181zM512 184.525c-19.814 0-35.84 16.026-35.84 35.84v84.275c0 19.814 16.026 35.84 35.84 35.84s35.84-16.026 35.84-35.84v-84.275c0-19.814-16.026-35.84-35.84-35.84z" />
<glyph unicode="&#xe949;" glyph-name="up-arrow-thick" d="M889.344 422.656c-14.029-13.978-36.659-13.978-50.688 0 0 0-290.816 290.816-290.816 290.816v-617.472c0-19.763-16.026-35.84-35.84-35.84s-35.84 16.077-35.84 35.84v617.472s-290.816-290.816-290.816-290.816c-13.978-13.978-36.71-13.978-50.688 0-13.978 14.029-13.978 36.71 0 50.688l352 352c5.171 5.12 11.264 8.397 18.125 9.779 15.206 30.925 371.814-358.042 384.563-361.779 13.978-13.978 13.978-36.659 0-50.688zM519.219 835.123c-4.608 0.973-9.779 0.922-14.438 0 4.762 0.973 9.677 0.973 14.438 0z" />
<glyph unicode="&#xe94a;" glyph-name="upload-alt-thick" d="M749.517 197.222c-0.87 59.802 93.030 59.802 92.16 0 0.87-59.802-93.030-59.802-92.16 0zM786.944 586.598c-12.902-15.002-35.533-16.742-50.534-3.84l-188.57 161.997v-476.723c0-19.814-16.026-35.84-35.84-35.84s-35.84 16.026-35.84 35.84v476.723l-188.57-161.997c-14.899-12.851-37.632-11.213-50.534 3.84s-11.162 37.632 3.84 50.534l247.757 212.838c11.162 9.83 28.57 11.469 41.318 3.789 6.349-3.072 247.296-212.429 253.133-216.627 15.053-12.902 16.742-35.482 3.84-50.534zM894.515 37.376h-765.030c-43.52 0-78.95 35.43-78.95 78.95 0 0 0 161.792 0 161.792 0 43.52 35.43 78.95 78.95 78.95h288.461c46.541 0.614 46.438-72.346 0-71.68 0 0-288.461 0-288.461 0-16.384 8.448-3.277-166.144-7.27-169.062-1.638-20.634 765.133-0.41 772.352-7.27 3.994 0 7.27 3.277 7.27 7.27v161.792c0 3.994-3.277 7.27-7.27 7.27h-289.741c-46.541-0.717-46.438 72.397 0 71.68 0 0 289.741 0 289.741 0 43.52 0 78.95-35.43 78.95-78.95-8.602-71.168 37.325-238.848-78.95-240.742z" />
<glyph unicode="&#xe94b;" glyph-name="upload-cloud-thick" d="M687.667 282.726c-12.902-15.053-35.635-16.691-50.534-3.84 0 0-89.293 76.749-89.293 76.749v-254.464c0-19.763-16.026-35.84-35.84-35.84s-35.84 16.077-35.84 35.84v254.464l-89.293-76.749c-34.765-30.72-82.483 24.576-46.694 54.374 0 0 148.48 127.539 148.48 127.539 11.162 9.83 28.57 11.52 41.318 3.789 10.854-6.707 144.998-124.672 153.856-131.328 15.002-12.851 16.742-35.482 3.84-50.534zM511.181 469.402c-0.614 0-1.229 0-1.792-0.102 0.614 0 1.178 0.102 1.792 0.102zM505.037 468.787c1.434 0.256 2.867 0.41 4.301 0.512-1.434-0.102-2.918-0.256-4.301-0.512zM515.686 469.248c-1.485 0.154-3.021 0.205-4.506 0.154 1.485 0.102 3.021 0 4.506-0.154zM890.419 216.013c-29.235-0.87-47.104 36.301-27.699 58.573 25.088 30.515 38.861 69.171 38.861 108.851 0 94.31-76.288 171.059-170.035 171.059-29.030 0.819-70.4-19.968-83.251 18.688-91.392 288-529.254 216.883-525.978-85.504 0-70.912 27.034-138.035 76.186-188.877 32.973-32.87-19.917-83.763-51.558-49.766-350.874 403.661 319.795 855.296 558.387 375.706 141.722 16.282 268.851-98.099 267.981-241.306-1.382-53.862-23.962-153.446-82.893-167.424z" />
<glyph unicode="&#xe94c;" glyph-name="upload-thick" d="M894.72 69.12h-765.44c-43.418 0-78.746 35.328-78.746 78.746 0 0 0 185.754 0 185.754 0 19.814 16.026 35.84 35.84 35.84s35.84-16.026 35.84-35.84c3.328-3.789-8.448-199.782 7.066-192.819 7.117 6.81 773.99-13.21 772.506 7.066 0 0 0 185.805 0 185.805-0.922 46.438 72.55 46.541 71.68 0 0 0 0-185.754 0-185.754 0-43.418-35.328-78.746-78.746-78.746zM786.944 554.906c-12.902-15.053-35.533-16.742-50.534-3.84l-188.57 161.997v-476.723c0-19.814-16.026-35.84-35.84-35.84s-35.84 16.026-35.84 35.84v476.723s-188.57-161.997-188.57-161.997c-14.899-12.902-37.632-11.213-50.534 3.84-12.902 15.002-11.162 37.632 3.84 50.534l247.757 212.787c11.213 9.83 28.57 11.52 41.318 3.789 6.349-3.072 247.296-212.378 253.133-216.576 15.053-12.902 16.742-35.533 3.84-50.534z" />
<glyph unicode="&#xe94d;" glyph-name="user-thick" d="M512.154 909.773c-260.454-4.659-260.352-391.731 0-396.339 260.454 4.659 260.454 391.731 0 396.339zM512.154 585.114c-166.195 2.97-166.195 250.010 0 252.979 166.298-2.97 166.195-250.061 0-252.979zM872.141 199.27c-10.342 402.79-706.202 382.515-719.821 2.15-4.352-84.378 25.088-151.398 82.739-188.672 47.821-38.093 178.586-21.094 271.155-24.32 180.89 0.512 362.035-45.824 365.926 210.842zM748.237 70.554c-33.536-24.781-193.997-6.349-270.131-10.394-155.034 0.358-258.816-27.494-254.106 140.237 10.752 284.314 564.275 313.958 576.461-3.43 1.946-60.723-15.616-103.27-52.224-126.413z" />
<glyph unicode="&#xe94e;" glyph-name="video-off-thick" d="M974.234 676.352c-6.605-11.213 16.845-500.326-16.026-486.554-9.677-6.298-21.606-7.731-32.307-3.635 0 0-134.349 134.349-134.349 134.349l111.002-46.797v348.621l-191.744-80.845v-140.237l-71.68 71.68v163.635c0 2.816-2.304 5.12-5.12 5.12h-163.635l-71.68 71.68h235.315c50.432 0.461 82.944-46.336 76.8-94.106l213.658 90.112c22.579 10.342 50.483-8.192 49.766-33.024zM889.344 121.344c-217.754 217.754-486.093 486.042-704 704-32.256 33.178-84.122-18.125-50.688-50.688 0 0 61.286-61.286 61.286-61.286-62.464 1.894-142.234 7.731-146.176-76.8 0 0 0-377.088 0-377.088 0-42.394 34.458-76.8 76.8-76.8 44.083 11.827 554.547-30.976 569.088 30.976 15.667-10.035 147.866-162.714 168.346-153.498 30.669-1.075 48.179 39.936 25.344 61.184zM639.13 259.482c1.075-14.643-507.443-0.205-512.563-5.12-2.816 0-5.12 2.253-5.12 5.12 4.966 5.376-9.523 382.976 5.12 382.208 0 0 141.056 0 141.056 0l371.507-371.507v-10.701z" />
<glyph unicode="&#xe94f;" glyph-name="video-thick" d="M956.416 706.202c-18.893 26.675-224.973-84.070-247.398-86.938 6.093 47.718-26.368 94.566-76.8 94.106 0 0-507.392 0-507.392 0-42.342 0-76.8-34.458-76.8-76.8 0 0 0-377.088 0-377.088 0-42.394 34.458-76.8 76.8-76.8h507.392c50.381-0.41 82.995 46.285 76.8 94.106 23.552-3.328 227.533-113.306 247.398-86.989 32.614-15.309 9.574 476.928 16.026 486.554 0 11.981-6.042 23.194-16.026 29.85zM637.338 259.482c1.075-14.643-507.392-0.205-512.512-5.12-14.694-0.819-0.154 376.934-5.12 382.208 0 2.816 2.253 5.12 5.12 5.12h507.392c14.643 0.87 0.205-376.934 5.12-382.208zM900.762 273.715l-191.744 80.845v186.931l191.744 80.845v-348.621z" />
</font>
</defs>
</svg>
